<mxfile host="65bd71144e">
    <diagram id="jTJcuQjnhPeeEBLulEQu" name="Page-1">
        <mxGraphModel dx="2114" dy="1209" grid="0" gridSize="10" guides="1" tooltips="1" connect="1" arrows="1" fold="1" page="0" pageScale="1" pageWidth="827" pageHeight="1169" math="0" shadow="0">
            <root>
                <mxCell id="0"/>
                <mxCell id="1" parent="0"/>
                <mxCell id="68" value="" style="rounded=1;whiteSpace=wrap;html=1;fillColor=#003333;" parent="1" vertex="1">
                    <mxGeometry x="812" y="408" width="644" height="154" as="geometry"/>
                </mxCell>
                <mxCell id="2" value="&lt;h1&gt;Serviço de Envio de Mensagens&lt;/h1&gt;&lt;p dir=&quot;auto&quot; style=&quot;box-sizing: border-box ; margin-top: 0px ; margin-bottom: 16px ; color: rgb(201 , 209 , 217) ; font-family: , &amp;#34;blinkmacsystemfont&amp;#34; , &amp;#34;segoe ui&amp;#34; , &amp;#34;helvetica&amp;#34; , &amp;#34;arial&amp;#34; , sans-serif , &amp;#34;apple color emoji&amp;#34; , &amp;#34;segoe ui emoji&amp;#34; ; font-size: 16px ; background-color: rgb(13 , 17 , 23)&quot;&gt;Uma empresa específica necessita disponibilizar a aquisição e o uso de diferentes tipos de créditos para envios de mensagens. Os créditos podem ser divididos em:&amp;nbsp;&lt;code style=&quot;box-sizing: border-box ; font-family: , , &amp;#34;sf mono&amp;#34; , &amp;#34;menlo&amp;#34; , &amp;#34;consolas&amp;#34; , &amp;#34;liberation mono&amp;#34; , monospace ; font-size: 13.6px ; padding: 0.2em 0.4em ; margin: 0px ; border-radius: 6px&quot;&gt;e-mail&lt;/code&gt;,&amp;nbsp;&lt;code style=&quot;box-sizing: border-box ; font-family: , , &amp;#34;sf mono&amp;#34; , &amp;#34;menlo&amp;#34; , &amp;#34;consolas&amp;#34; , &amp;#34;liberation mono&amp;#34; , monospace ; font-size: 13.6px ; padding: 0.2em 0.4em ; margin: 0px ; border-radius: 6px&quot;&gt;sms&lt;/code&gt;&amp;nbsp;e&amp;nbsp;&lt;code style=&quot;box-sizing: border-box ; font-family: , , &amp;#34;sf mono&amp;#34; , &amp;#34;menlo&amp;#34; , &amp;#34;consolas&amp;#34; , &amp;#34;liberation mono&amp;#34; , monospace ; font-size: 13.6px ; padding: 0.2em 0.4em ; margin: 0px ; border-radius: 6px&quot;&gt;whatsapp&lt;/code&gt;.&lt;/p&gt;&lt;p dir=&quot;auto&quot; style=&quot;box-sizing: border-box ; margin-top: 0px ; margin-bottom: 16px ; color: rgb(201 , 209 , 217) ; font-family: , &amp;#34;blinkmacsystemfont&amp;#34; , &amp;#34;segoe ui&amp;#34; , &amp;#34;helvetica&amp;#34; , &amp;#34;arial&amp;#34; , sans-serif , &amp;#34;apple color emoji&amp;#34; , &amp;#34;segoe ui emoji&amp;#34; ; font-size: 16px ; background-color: rgb(13 , 17 , 23)&quot;&gt;Cada tipo de crédito representará quantas mensagens o usuário poderá enviar na plataforma em questão. Exemplo: 1 crédito de&amp;nbsp;&lt;code style=&quot;box-sizing: border-box ; font-family: , , &amp;#34;sf mono&amp;#34; , &amp;#34;menlo&amp;#34; , &amp;#34;consolas&amp;#34; , &amp;#34;liberation mono&amp;#34; , monospace ; font-size: 13.6px ; padding: 0.2em 0.4em ; margin: 0px ; border-radius: 6px&quot;&gt;e-mail&lt;/code&gt;&amp;nbsp;permite que o usuário envie 1 mensagem via e-mail para qualquer destinatário.&lt;/p&gt;" style="text;html=1;strokeColor=none;fillColor=none;spacing=5;spacingTop=-20;whiteSpace=wrap;overflow=hidden;rounded=0;" parent="1" vertex="1">
                    <mxGeometry x="-169" y="-68" width="609" height="198" as="geometry"/>
                </mxCell>
                <mxCell id="3" value="&lt;h1&gt;Plataformas&lt;/h1&gt;&lt;p&gt;&lt;br&gt;&lt;/p&gt;" style="text;html=1;strokeColor=none;fillColor=none;spacing=5;spacingTop=-20;whiteSpace=wrap;overflow=hidden;rounded=0;" parent="1" vertex="1">
                    <mxGeometry x="40.5" y="209" width="190" height="45" as="geometry"/>
                </mxCell>
                <mxCell id="4" value="" style="dashed=0;outlineConnect=0;html=1;align=center;labelPosition=center;verticalLabelPosition=bottom;verticalAlign=top;shape=mxgraph.weblogos.android;fillColor=#A4CA39;strokeColor=none" parent="1" vertex="1">
                    <mxGeometry x="138" y="345.70000000000005" width="59" height="71" as="geometry"/>
                </mxCell>
                <mxCell id="6" value="" style="dashed=0;outlineConnect=0;html=1;align=center;labelPosition=center;verticalLabelPosition=bottom;verticalAlign=top;shape=mxgraph.weblogos.ios;fillColor=#695D5D;gradientColor=#100E0E" parent="1" vertex="1">
                    <mxGeometry x="43" y="359.30000000000007" width="73.60000000000001" height="39.400000000000006" as="geometry"/>
                </mxCell>
                <mxCell id="10" value="" style="shape=image;verticalLabelPosition=bottom;labelBackgroundColor=#ffffff;verticalAlign=top;aspect=fixed;imageAspect=0;image=data:image/svg+xml,PHN2ZyB4bWxucz0iaHR0cDovL3d3dy53My5vcmcvMjAwMC9zdmciIHhtbG5zOnhsaW5rPSJodHRwOi8vd3d3LnczLm9yZy8xOTk5L3hsaW5rIiB3aWR0aD0iMTkwcHgiIGhlaWdodD0iMTkwcHgiIHZpZXdCb3g9IjAgMCAxOTAgMTkwIiBmaWxsPSJub25lIj48bGluZWFyR3JhZGllbnQgaWQ9ImQiIHgxPSIyOC4zIiB4Mj0iODAuOCIgeTE9Ijc1IiB5Mj0iNDQuNCIgZ3JhZGllbnRVbml0cz0idXNlclNwYWNlT25Vc2UiPjxzdG9wIG9mZnNldD0iMCIgc3RvcC1jb2xvcj0iI2E1MjcxNCIgc3RvcC1vcGFjaXR5PSIuNiIvPjxzdG9wIG9mZnNldD0iLjciIHN0b3AtY29sb3I9IiNhNTI3MTQiIHN0b3Atb3BhY2l0eT0iMCIvPjwvbGluZWFyR3JhZGllbnQ+PGxpbmVhckdyYWRpZW50IGlkPSJmIiB4MT0iMTA5LjkiIHgyPSI1MS41IiB5MT0iMTY0LjUiIHkyPSIxMzAuMyIgZ3JhZGllbnRVbml0cz0idXNlclNwYWNlT25Vc2UiPjxzdG9wIG9mZnNldD0iMCIgc3RvcC1jb2xvcj0iIzA1NTUyNCIgc3RvcC1vcGFjaXR5PSIuNCIvPjxzdG9wIG9mZnNldD0iLjMiIHN0b3AtY29sb3I9IiMwNTU1MjQiIHN0b3Atb3BhY2l0eT0iMCIvPjwvbGluZWFyR3JhZGllbnQ+PGxpbmVhckdyYWRpZW50IGlkPSJoIiB4MT0iMTIxLjkiIHgyPSIxMzYuNiIgeTE9IjQ5LjgiIHkyPSIxMTQuMSIgZ3JhZGllbnRVbml0cz0idXNlclNwYWNlT25Vc2UiPjxzdG9wIG9mZnNldD0iMCIgc3RvcC1jb2xvcj0iI2VhNjEwMCIgc3RvcC1vcGFjaXR5PSIuMyIvPjxzdG9wIG9mZnNldD0iLjciIHN0b3AtY29sb3I9IiNlYTYxMDAiIHN0b3Atb3BhY2l0eT0iMCIvPjwvbGluZWFyR3JhZGllbnQ+PHJhZGlhbEdyYWRpZW50IGlkPSJhIiBjeD0iOTEuMiIgY3k9IjU1IiByPSI4NC4xIiBncmFkaWVudFVuaXRzPSJ1c2VyU3BhY2VPblVzZSI+PHN0b3Agb2Zmc2V0PSIwIiBzdG9wLWNvbG9yPSIjM2UyNzIzIiBzdG9wLW9wYWNpdHk9Ii4yIi8+PHN0b3Agb2Zmc2V0PSIxIiBzdG9wLWNvbG9yPSIjM2UyNzIzIiBzdG9wLW9wYWNpdHk9IjAiLz48L3JhZGlhbEdyYWRpZW50PjxyYWRpYWxHcmFkaWVudCBpZD0iaSIgY3g9IjIwLjkiIGN5PSI0Ny41IiByPSI3OCIgeGxpbms6aHJlZj0iI2EiLz48cmFkaWFsR3JhZGllbnQgaWQ9ImoiIGN4PSI5NC44IiBjeT0iOTUuMSIgcj0iODcuOSIgZ3JhZGllbnRVbml0cz0idXNlclNwYWNlT25Vc2UiPjxzdG9wIG9mZnNldD0iMCIgc3RvcC1jb2xvcj0iIzI2MzIzOCIgc3RvcC1vcGFjaXR5PSIuMiIvPjxzdG9wIG9mZnNldD0iMSIgc3RvcC1jb2xvcj0iIzI2MzIzOCIgc3RvcC1vcGFjaXR5PSIwIi8+PC9yYWRpYWxHcmFkaWVudD48cmFkaWFsR3JhZGllbnQgaWQ9ImsiIGN4PSIzMy4zIiBjeT0iMzEiIHI9IjE3Ni44IiBncmFkaWVudFVuaXRzPSJ1c2VyU3BhY2VPblVzZSI+PHN0b3Agb2Zmc2V0PSIwIiBzdG9wLWNvbG9yPSIjZmZmIiBzdG9wLW9wYWNpdHk9Ii4xIi8+PHN0b3Agb2Zmc2V0PSIxIiBzdG9wLWNvbG9yPSIjZmZmIiBzdG9wLW9wYWNpdHk9IjAiLz48L3JhZGlhbEdyYWRpZW50PjxjbGlwUGF0aCBpZD0iYiI+PGNpcmNsZSBjeD0iOTUiIGN5PSI5NSIgcj0iODgiLz48L2NsaXBQYXRoPjxnIGNsaXAtcGF0aD0idXJsKCNiKSI+PHVzZSBmaWxsPSIjZGI0NDM3IiB4bGluazpocmVmPSIjYyIvPjx1c2UgZmlsbD0idXJsKCNkKSIgeGxpbms6aHJlZj0iI2MiLz48dXNlIGZpbGw9IiMwZjlkNTgiIHhsaW5rOmhyZWY9IiNlIi8+PHVzZSBmaWxsPSJ1cmwoI2YpIiB4bGluazpocmVmPSIjZSIvPjx1c2UgZmlsbD0iI2ZmY2Q0MCIgeGxpbms6aHJlZj0iI2ciLz48dXNlIGZpbGw9InVybCgjaCkiIHhsaW5rOmhyZWY9IiNnIi8+PGcgZmlsbC1vcGFjaXR5PSIuMSI+PHBhdGggZmlsbD0iIzNlMjcyMyIgZD0iTTYxLjMgMTE0LjdMMjEgNDcuNGwzOSA2Ny44eiIvPjxwYXRoIGZpbGw9IiMyNjMyMzgiIGQ9Ik0xMjguOCAxMTYuM2wtLjgtLjQtMzcuMyA2NyAzOC4zLTY3eiIvPjwvZz48cGF0aCBpZD0iZSIgZD0iTTcgMTgzaDgzLjhsMzktMzl2LTI5SDYwLjJMNyAyMy41eiIvPjxwYXRoIGlkPSJnIiBkPSJNOTUgNTVsMzQuNiA2MEw5MSAxODNoOTJWNTV6Ii8+PHBhdGggaWQ9ImMiIGQ9Ik0yMSA3djEwOGgzOS40TDk1IDU1aDg4Vjd6Ii8+PHBhdGggZmlsbD0idXJsKCNhKSIgZD0iTTk1IDU1djIxbDc4LjQtMjF6Ii8+PHBhdGggZmlsbD0idXJsKCNpKSIgZD0iTTIxIDQ3LjVsNTcuMiA1Ny4yTDYwLjQgMTE1eiIvPjxwYXRoIGZpbGw9InVybCgjaikiIGQ9Ik05MC44IDE4M2wyMS03OC4zIDE3LjggMTAuM3oiLz48Y2lyY2xlIGN4PSI5NSIgY3k9Ijk1IiByPSI0MCIgZmlsbD0iI2YxZjFmMSIvPjxjaXJjbGUgY3g9Ijk1IiBjeT0iOTUiIHI9IjMyIiBmaWxsPSIjNDI4NWY0Ii8+PGNpcmNsZSBjeD0iOTUiIGN5PSI5NSIgcj0iODgiIGZpbGw9InVybCgjaykiLz48ZyBmaWxsPSIjM2UyNzIzIiBmaWxsLW9wYWNpdHk9Ii4xIj48cGF0aCBmaWxsPSIjZmZmIiBkPSJNMTI5LjYgMTE1YTQwIDQwIDAgMDEtNjkuMiAwTDcgMjQuNSA2MC40IDExNmE0MCA0MCAwIDAwNjkuMiAweiIvPjxwYXRoIGQ9Ik05NiA1NWgtLjVhNDAgNDAgMCAxMTAgODBoLjVjMjIgMCA0MC0xOCA0MC00MHMtMTgtNDAtNDAtNDB6bS0xIDEyN2E4OCA4OCAwIDAwODgtODcuNXYuNUE4OCA4OCAwIDAxNyA5NXYtLjVBODggODggMCAwMDk1IDE4MnoiLz48ZyBmaWxsLW9wYWNpdHk9Ii4yIj48cGF0aCBmaWxsPSIjZmZmIiBkPSJNMTMwIDExNi4zYTM5LjMgMzkuMyAwIDAwMy40LTMyIDM4IDM4IDAgMDEtMy44IDMwLjdMOTIgMTgzbDM4LjItNjYuNXpNOTUgOGE4OCA4OCAwIDAxODggODcuNVY5NUE4OCA4OCAwIDAwNyA5NXYuNUE4OCA4OCAwIDAxOTUgOHoiLz48cGF0aCBkPSJNOTUgNTRjLTIyIDAtNDAgMTgtNDAgNDB2MWMwLTIyIDE4LTQwIDQwLTQwaDg4di0xeiIvPjwvZz48L2c+PC9nPjwvc3ZnPg==;" parent="1" vertex="1">
                    <mxGeometry x="352" y="347.45000000000005" width="67.5" height="67.5" as="geometry"/>
                </mxCell>
                <mxCell id="12" value="" style="shape=image;verticalLabelPosition=bottom;labelBackgroundColor=#ffffff;verticalAlign=top;aspect=fixed;imageAspect=0;image=data:image/svg+xml,PHN2ZyB4bWxucz0iaHR0cDovL3d3dy53My5vcmcvMjAwMC9zdmciIHhtbG5zOnhsaW5rPSJodHRwOi8vd3d3LnczLm9yZy8xOTk5L3hsaW5rIiB3aWR0aD0iNTE1MDBweCIgaGVpZ2h0PSI1MTUwMHB4IiB2aWV3Qm94PSIwIDAgNTE1MDAgNTE1MDAiPjxyYWRpYWxHcmFkaWVudCBpZD0iYiIgY3g9Ijg3LjQlIiBjeT0iLTEyLjklIiByPSIxMjglIiBncmFkaWVudFRyYW5zZm9ybT0ibWF0cml4KC44IDAgMCAxIC4xOCAuMTMpIj48c3RvcCBvZmZzZXQ9Ii4xMyIgc3RvcC1jb2xvcj0iI2ZmYmQ0ZiIvPjxzdG9wIG9mZnNldD0iLjI4IiBzdG9wLWNvbG9yPSIjZmY5ODBlIi8+PHN0b3Agb2Zmc2V0PSIuNDciIHN0b3AtY29sb3I9IiNmZjM3NTAiLz48c3RvcCBvZmZzZXQ9Ii43OCIgc3RvcC1jb2xvcj0iI2ViMDg3OCIvPjxzdG9wIG9mZnNldD0iLjg2IiBzdG9wLWNvbG9yPSIjZTUwMDgwIi8+PC9yYWRpYWxHcmFkaWVudD48cmFkaWFsR3JhZGllbnQgaWQ9ImQiIGN4PSI0OSUiIGN5PSI0MCUiIHI9IjEyOCUiIGdyYWRpZW50VHJhbnNmb3JtPSJtYXRyaXgoLjgyIDAgMCAxIC4wOSAwKSI+PHN0b3Agb2Zmc2V0PSIuMyIgc3RvcC1jb2xvcj0iIzk2MGUxOCIvPjxzdG9wIG9mZnNldD0iLjM1IiBzdG9wLWNvbG9yPSIjYjExOTI3IiBzdG9wLW9wYWNpdHk9Ii43NCIvPjxzdG9wIG9mZnNldD0iLjQzIiBzdG9wLWNvbG9yPSIjZGIyOTNkIiBzdG9wLW9wYWNpdHk9Ii4zNCIvPjxzdG9wIG9mZnNldD0iLjUiIHN0b3AtY29sb3I9IiNmNTMzNGIiIHN0b3Atb3BhY2l0eT0iLjEiLz48c3RvcCBvZmZzZXQ9Ii41MyIgc3RvcC1jb2xvcj0iI2ZmMzc1MCIgc3RvcC1vcGFjaXR5PSIwIi8+PC9yYWRpYWxHcmFkaWVudD48cmFkaWFsR3JhZGllbnQgaWQ9ImUiIGN4PSI0OCUiIGN5PSItMTIlIiByPSIxNDAlIj48c3RvcCBvZmZzZXQ9Ii4xMyIgc3RvcC1jb2xvcj0iI2ZmZjQ0ZiIvPjxzdG9wIG9mZnNldD0iLjUzIiBzdG9wLWNvbG9yPSIjZmY5ODBlIi8+PC9yYWRpYWxHcmFkaWVudD48cmFkaWFsR3JhZGllbnQgaWQ9ImYiIGN4PSIyMi43NiUiIGN5PSIxMTAuMTElIiByPSIxMDAlIj48c3RvcCBvZmZzZXQ9Ii4zNSIgc3RvcC1jb2xvcj0iIzNhOGVlNiIvPjxzdG9wIG9mZnNldD0iLjY3IiBzdG9wLWNvbG9yPSIjOTA1OWZmIi8+PHN0b3Agb2Zmc2V0PSIxIiBzdG9wLWNvbG9yPSIjYzEzOWU2Ii8+PC9yYWRpYWxHcmFkaWVudD48cmFkaWFsR3JhZGllbnQgaWQ9ImgiIGN4PSI1MiUiIGN5PSIzMyUiIHI9IjU5JSIgZ3JhZGllbnRUcmFuc2Zvcm09InNjYWxlKC45IDEpIj48c3RvcCBvZmZzZXQ9Ii4yMSIgc3RvcC1jb2xvcj0iIzkwNTlmZiIgc3RvcC1vcGFjaXR5PSIwIi8+PHN0b3Agb2Zmc2V0PSIuOTciIHN0b3AtY29sb3I9IiM2ZTAwOGIiIHN0b3Atb3BhY2l0eT0iLjYiLz48L3JhZGlhbEdyYWRpZW50PjxyYWRpYWxHcmFkaWVudCBpZD0iaSIgY3g9IjIxMCUiIGN5PSItMTAwJSIgcj0iMjkwJSI+PHN0b3Agb2Zmc2V0PSIuMSIgc3RvcC1jb2xvcj0iI2ZmZTIyNiIvPjxzdG9wIG9mZnNldD0iLjc5IiBzdG9wLWNvbG9yPSIjZmY3MTM5Ii8+PC9yYWRpYWxHcmFkaWVudD48cmFkaWFsR3JhZGllbnQgaWQ9ImoiIGN4PSI4NCUiIGN5PSItNDElIiByPSIxODAlIj48c3RvcCBvZmZzZXQ9Ii4xMSIgc3RvcC1jb2xvcj0iI2ZmZjQ0ZiIvPjxzdG9wIG9mZnNldD0iLjQ2IiBzdG9wLWNvbG9yPSIjZmY5ODBlIi8+PHN0b3Agb2Zmc2V0PSIuNzIiIHN0b3AtY29sb3I9IiNmZjM2NDciLz48c3RvcCBvZmZzZXQ9Ii45IiBzdG9wLWNvbG9yPSIjZTMxNTg3Ii8+PC9yYWRpYWxHcmFkaWVudD48cmFkaWFsR3JhZGllbnQgaWQ9ImsiIGN4PSIxNi4xJSIgY3k9Ii0xOC42JSIgcj0iMzQ4LjglIiBncmFkaWVudFRyYW5zZm9ybT0ibWF0cml4KC4xMDQ1MyAuNDY3NDMgLS45OTQ1MiAuMDQ5MTMgLS4wNSAtLjI2KSI+PHN0b3Agb2Zmc2V0PSIwIiBzdG9wLWNvbG9yPSIjZmZmNDRmIi8+PHN0b3Agb2Zmc2V0PSIuMyIgc3RvcC1jb2xvcj0iI2ZmOTgwZSIvPjxzdG9wIG9mZnNldD0iLjU3IiBzdG9wLWNvbG9yPSIjZmYzNjQ3Ii8+PHN0b3Agb2Zmc2V0PSIuNzQiIHN0b3AtY29sb3I9IiNlMzE1ODciLz48L3JhZGlhbEdyYWRpZW50PjxyYWRpYWxHcmFkaWVudCBpZD0ibCIgY3g9IjE4LjklIiBjeT0iLTQyLjUlIiByPSIyMzguNCUiPjxzdG9wIG9mZnNldD0iLjE0IiBzdG9wLWNvbG9yPSIjZmZmNDRmIi8+PHN0b3Agb2Zmc2V0PSIuNDgiIHN0b3AtY29sb3I9IiNmZjk4MGUiLz48c3RvcCBvZmZzZXQ9Ii42NiIgc3RvcC1jb2xvcj0iI2ZmMzY0NyIvPjxzdG9wIG9mZnNldD0iLjkiIHN0b3AtY29sb3I9IiNlMzE1ODciLz48L3JhZGlhbEdyYWRpZW50PjxyYWRpYWxHcmFkaWVudCBpZD0ibSIgY3g9IjE1OS4zJSIgY3k9Ii00NC43MiUiIHI9IjMxMy4xJSI+PHN0b3Agb2Zmc2V0PSIuMDkiIHN0b3AtY29sb3I9IiNmZmY0NGYiLz48c3RvcCBvZmZzZXQ9Ii42MyIgc3RvcC1jb2xvcj0iI2ZmOTgwZSIvPjwvcmFkaWFsR3JhZGllbnQ+PGxpbmVhckdyYWRpZW50IGlkPSJhIiB4MT0iODcuMjUlIiB4Mj0iOS40JSIgeTE9IjE1LjUlIiB5Mj0iOTMuMSUiPjxzdG9wIG9mZnNldD0iLjA1IiBzdG9wLWNvbG9yPSIjZmZmNDRmIi8+PHN0b3Agb2Zmc2V0PSIuMzciIHN0b3AtY29sb3I9IiNmZjk4MGUiLz48c3RvcCBvZmZzZXQ9Ii41MyIgc3RvcC1jb2xvcj0iI2ZmMzY0NyIvPjxzdG9wIG9mZnNldD0iLjciIHN0b3AtY29sb3I9IiNlMzE1ODciLz48L2xpbmVhckdyYWRpZW50PjxsaW5lYXJHcmFkaWVudCBpZD0ibiIgeDE9IjgwJSIgeDI9IjE4JSIgeTE9IjE0JSIgeTI9Ijg0JSI+PHN0b3Agb2Zmc2V0PSIuMTciIHN0b3AtY29sb3I9IiNmZmY0NGYiIHN0b3Atb3BhY2l0eT0iLjgiLz48c3RvcCBvZmZzZXQ9Ii42IiBzdG9wLWNvbG9yPSIjZmZmNDRmIiBzdG9wLW9wYWNpdHk9IjAiLz48L2xpbmVhckdyYWRpZW50PjxwYXRoIGlkPSJjIiBkPSJNNDc4NzAgMTY3MzVjLTEwNDQtMjUxMi0zMTYwLTUyMjQtNDgyMC02MDgyIDEzNTIgMjY1MCAyMTM0IDUzMTAgMjQzMyA3Mjk0IDAtNiAyIDUgNCAyMmw0IDI2YzIyNjggNjE0NyAxMDMyIDEyMzk4LTc0OCAxNjIxOC0yNzU0IDU5MTAtOTQyMCAxMTk2Ny0xOTg1NyAxMTY3MC0xMTI3Ni0zMTgtMjEyMTAtODY4My0yMzA2NC0xOTY0My0zMzgtMTcyOCAwLTI2MDUgMTcwLTQwMDgtMjA3IDEwODAtMjg2IDEzOTQtMzkwIDMzMTVsLTIgMTIzYzAgMTMyNzAgMTA3NjAgMjQwMzAgMjQwMzIgMjQwMzAgMTE4ODcgMCAyMTc1Ni04NjMwIDIzNjkwLTE5OTYzbDExMC05MjdjNDc3LTQxMjAtNTMtODQ1My0xNTYwLTEyMDc1eiIvPjxwYXRoIGlkPSJnIiBkPSJNMjU2NzcgMjEwNTBjLTQwIDU5OC0yMTUwIDI2NjAtMjg5MCAyNjYwLTY4MzQgMC03OTQzIDQxMzMtNzk0MyA0MTMzIDMwMyAzNDgwIDI3MjYgNjM0OCA1NjYwIDc4NjUgMTM0IDcwIDI3MCAxMzAgNDA1IDE5M2ExMzI3NyAxMzI3NyAwIDAwNzA2IDI4OSAxMDY3NCAxMDY3NCAwIDAwMzEyNyA2MDNjMTE5NzggNTYyIDE0MzAwLTE0MzIwIDU2NTUtMTg2NDAgMjIxMy0zODUgNDUxMCA1MDUgNTc5NCAxNDA3LTIxMDAtMzY3Mi02MDI1LTYxNTAtMTA1MzAtNjE1MC0yODUgMC01NjQgMjQtODQ0IDQzYTEyMDI1IDEyMDI1IDAgMDAtNjYxNCAyNTQ5YzM2NiAzMTAgNzgwIDcyNCAxNjUwIDE1ODMgMTYzMCAxNjA2IDU4MTMgMzI3MCA1ODIyIDM0NjV6Ii8+PHBhdGggZmlsbD0idXJsKCNhKSIgZD0iTTQ3ODcwIDE2NzM1Yy0xMDQ0LTI1MTItMzE2MC01MjI0LTQ4MjAtNjA4MiAxMzUyIDI2NTAgMjEzNCA1MzEwIDI0MzMgNzI5NGw1IDQwYy0yNzE4LTY3NzMtNzMyNS05NTA1LTExMDg4LTE1NDUybC01NjYtOTIwYTczNzIgNzM3MiAwIDAxLTI2NS00OTcgNDM3MCA0MzcwIDAgMDEtMzU5LTk1MCA2MyA2MyAwIDAwLTU1LTY1IDgyIDgyIDAgMDAtNDUgMGwtMTIgNy0xNyAxMCAxMC0xNGMtNjAzNyAzNTM2LTgwODUgMTAwNzYtODI3NCAxMzM1MGExMjAyNSAxMjAyNSAwIDAwLTY2MTQgMjU0OCA3MTM2IDcxMzYgMCAwMC02MjItNDcwIDExMTM0IDExMTM0IDAgMDEtNjgtNTg3M2MtMjQ2OCAxMTI0LTQzOTAgMjkwMC01Nzg1IDQ0NzBoLTEwYy05NTMtMTIwNi04ODYtNTE4Ny04MzItNjAxOC0xMC01Mi03MTAgMzYzLTgwMiA0MjVhMTc1MDcgMTc1MDcgMCAwMC0yMzQ5IDIwMTIgMjEwNDggMjEwNDggMCAwMC0yMjQ0IDI2OTJsLTEgM3YtM2EyMDI4NCAyMDI4NCAwIDAwLTMyMjUgNzI4MGwtMzIgMTYwYTM5NzAwIDM5NzAwIDAgMDAtMjM3IDE1MDBsLTUgNTJhMjI5MDcgMjI5MDcgMCAwMC0zOTAgMzMxNmwtMSAxMjBjMCAxMzI3MCAxMDc2MCAyNDAzMCAyNDAzMiAyNDAzMCAxMTg4NyAwIDIxNzU2LTg2MzAgMjM2OTAtMTk5NjNsMTEwLTkyN2M0NzctNDEyMC01My04NDUzLTE1NjAtMTIwNzV6TTIwMTcwIDM1NTQ1YzExMyA1MyAyMjAgMTEyIDMzNCAxNjRsMTYgMTBhMTI2MjAgMTI2MjAgMCAwMS0zNTAtMTc0em01NTA2LTE0NDkzem0xOTgxMy0zMDYwbC0zLTIzIDQgMjZ6Ii8+PHVzZSBmaWxsPSJ1cmwoI2IpIiB4bGluazpocmVmPSIjYyIvPjx1c2UgZmlsbD0idXJsKCNkKSIgeGxpbms6aHJlZj0iI2MiLz48cGF0aCBmaWxsPSJ1cmwoI2UpIiBkPSJNMzYxOTIgMTk1NjBsMTUwIDExMGExMzA3MCAxMzA3MCAwIDAwLTIyMzEtMjkxMUMyNjY0MCA5MjkwIDMyMTUwIDU2MyAzMzA4MCAxMjBsMTAtMTNjLTYwMzcgMzUzNS04MDg1IDEwMDc2LTgyNzMgMTMzNDggMjgwLTIwIDU2MC00MyA4NDQtNDMgNDUwNSAwIDg0MzAgMjQ3NyAxMDUzMCA2MTUweiIvPjx1c2UgZmlsbD0idXJsKCNmKSIgeGxpbms6aHJlZj0iI2ciLz48dXNlIGZpbGw9InVybCgjaCkiIHhsaW5rOmhyZWY9IiNnIi8+PHBhdGggZmlsbD0idXJsKCNpKSIgZD0iTTE3MDgzIDE1MjA0YTI0NDA0IDI0NDA0IDAgMDE0OTggMzMwIDExMTM0IDExMTM0IDAgMDEtNjctNTg3NGMtMjQ3MCAxMTI1LTQzOTAgMjkwMC01Nzg1IDQ0NzAgMTE1LTMgMzYwMC02NiA1MzU0IDEwNzR6Ii8+PHBhdGggZmlsbD0idXJsKCNqKSIgZD0iTTE4MjIgMjYyNDBjMTg1NSAxMDk2MCAxMTc4OCAxOTMyNSAyMzA2MyAxOTY0NCAxMDQzNyAyOTYgMTcxMDQtNTc2MiAxOTg1OC0xMTY3MCAxNzgwLTM4MjAgMzAxNi0xMDA3MCA3NDgtMTYyMTh2LTJsLTQtMjRjLTItMTctNC0yOC00LTIybDUgNDBjODUzIDU1NjYtMTk4MCAxMDk1OC02NDA1IDE0NjA0bC0xMyAzMGMtODYyNSA3MDIzLTE2ODc4IDQyMzctMTg1NTAgMzA5N2ExNDQxMCAxNDQxMCAwIDAxLTM1MC0xNzRjLTUwMjgtMjQwMy03MTA1LTY5ODQtNjY2MC0xMDkxMy00MjQ1IDAtNTY5My0zNTgwLTU2OTMtMzU4MHMzODEyLTI3MTggODgzNi0zNTVjNDY1MyAyMTkwIDkwMjMgMzU1IDkwMjMgMzU0LTEwLTE5NS00MTkyLTE4NjAtNTgyMi0zNDY1LTg3Mi04NjAtMTI4NS0xMjcyLTE2NTItMTU4M2E3MTM2IDcxMzYgMCAwMC02MjItNDcwIDI4MjkzIDI4MjkzIDAgMDAtNDk4LTMzMGMtMTc1My0xMTQwLTUyNDAtMTA3Ni01MzU1LTEwNzNoLTEwYy05NTMtMTIwNy04ODYtNTE4OC04MzItNjAyMC0xMC01MC03MTAgMzYzLTgwMiA0MjZhMTc1MDcgMTc1MDcgMCAwMC0yMzQ5IDIwMTIgMjEwNDggMjEwNDggMCAwMC0yMjQ0IDI2OTJsLTEgM3YtM2EyMDI4NCAyMDI4NCAwIDAwLTMyMjUgNzI4MGMtMTAgNTItODY1IDM3ODQtNDQ0IDU3MjB6Ii8+PHBhdGggZmlsbD0idXJsKCNrKSIgZD0iTTM0MTEwIDE2NzYwYTEzMDcwIDEzMDcwIDAgMDEyMjMxIDI5MTBsMzYwIDI5NmM1NDUwIDUwMjAgMjU5NCAxMjEyMCAyMzgwIDEyNjI2IDQ0MjYtMzY0NiA3MjU4LTkwMzggNjQwNS0xNDYwNC0yNzE2LTY3NzQtNzMyMy05NTA2LTExMDg2LTE1NDUzbC01NjYtOTIwYTczNzIgNzM3MiAwIDAxLTI2NS00OTcgNDM3MCA0MzcwIDAgMDEtMzU5LTk1MCA2MyA2MyAwIDAwLTU1LTY1IDgyIDgyIDAgMDAtNDUgMGwtMTIgNy0xNyAxMGMtOTMwIDQ0My02NDQwIDkxNzAgMTAzMCAxNjY0MHoiLz48cGF0aCBmaWxsPSJ1cmwoI2wpIiBkPSJNMzY3MDIgMTk5NjVhNDc0MyA0NzQzIDAgMDAtMzYwLTI5NWwtMTUwLTExMGMtMTI4My05MDAtMzU4MC0xNzkyLTU3OTQtMTQwNyA4NjQ0IDQzMjIgNjMyMyAxOTIwMy01NjU1IDE4NjQwYTEwNjc0IDEwNjc0IDAgMDEtMzEyNy02MDMgMTM0NTEgMTM0NTEgMCAwMS03MDYtMjg5IDkwNjQgOTA2NCAwIDAxLTQwNS0xOTNsMTYgMTBjMTY3MCAxMTQwIDk5MjQgMzkyNSAxODU1MC0zMDk3bDEzLTMwYzIxMy01MDYgMzA2OC03NjA2LTIzODAtMTI2MjZ6Ii8+PHBhdGggZmlsbD0idXJsKCNtKSIgZD0iTTE0ODQ0IDI3ODQ0czExMTAtNDEzMyA3OTQzLTQxMzNjNzQwIDAgMjg1MC0yMDYyIDI4OTAtMjY2MHMtNDM3MCAxODM2LTkwMjMtMzU0Yy01MDI0LTIzNjMtODgzNiAzNTQtODgzNiAzNTRzMTQ0OCAzNTgwIDU2OTMgMzU4MGMtNDQ1IDM5MzAgMTYzMiA4NTEwIDY2NjAgMTA5MTMgMTEzIDUzIDIxOCAxMTIgMzM0IDE2NC0yOTM1LTE1MTctNTM1OC00Mzg0LTU2NjAtNzg2NXoiLz48cGF0aCBmaWxsPSJ1cmwoI24pIiBkPSJNNDc4NzAgMTY3MzVjLTEwNDQtMjUxMi0zMTYwLTUyMjQtNDgyMC02MDgyIDEzNTIgMjY1MCAyMTM0IDUzMTAgMjQzMyA3Mjk0bDUgNDBjLTI3MTgtNjc3My03MzI1LTk1MDUtMTEwODgtMTU0NTJsLTU2Ni05MjBhNzM3MiA3MzcyIDAgMDEtMjY1LTQ5NyA0MzcwIDQzNzAgMCAwMS0zNTktOTUwIDYzIDYzIDAgMDAtNTUtNjUgODIgODIgMCAwMC00NSAwbC0xMiA3LTE3IDEwIDEwLTE0Yy02MDM3IDM1MzYtODA4NSAxMDA3Ni04Mjc0IDEzMzUwIDI4MC0yMCA1NjAtNDMgODQ1LTQzIDQ1MDUgMCA4NDMwIDI0NzcgMTA1MzAgNjE0OC0xMjg0LTkwMC0zNTgwLTE3OTItNTc5NS0xNDA3IDg2NDQgNDMyMiA2MzIzIDE5MjAzLTU2NTUgMTg2NDBhMTA2NzQgMTA2NzQgMCAwMS0zMTI3LTYwMyAxMzQ1MSAxMzQ1MSAwIDAxLTcwNi0yODkgOTA2NCA5MDY0IDAgMDEtNDA1LTE5M2wxNyAxMGExNDQxMCAxNDQxMCAwIDAxLTM1MC0xNzRjMTEyIDUzIDIxOCAxMTIgMzMzIDE2NC0yOTM1LTE1MTctNTM1OC00Mzg0LTU2NjAtNzg2NSAwIDAgMTEwOC00MTMzIDc5NDItNDEzMyA3NDAgMCAyODUwLTIwNjIgMjg5MC0yNjYwLTEwLTE5NS00MTkwLTE4NjAtNTgyMi0zNDY1LTg3MC04NjAtMTI4NS0xMjcyLTE2NTAtMTU4M2E3MTM2IDcxMzYgMCAwMC02MjMtNDcwIDExMTM0IDExMTM0IDAgMDEtNjctNTg3M2MtMjQ3MCAxMTI0LTQzOTAgMjkwMC01Nzg1IDQ0NzBoLTEwYy05NTMtMTIwNy04ODYtNTE4Ny04MzItNjAyMC0xMC01MC03MTAgMzYzLTgwMiA0MjZhMTc1MDcgMTc1MDcgMCAwMC0yMzQ5IDIwMTIgMjEwNDggMjEwNDggMCAwMC0yMjQzIDI2OTJsLTEgM3YtM2EyMDI4NCAyMDI4NCAwIDAwLTMyMjUgNzI4MGwtMzIgMTYwYTM5Nzg3IDM5Nzg3IDAgMDAtMjc3IDE1MTVjLTIgMTggMi0xNyAwIDBhMjc5NTYgMjc5NTYgMCAwMC0zNTUgMzM1M2wtMyAxMjJjMCAxMzI3MCAxMDc2MCAyNDAzMCAyNDAzMiAyNDAzMCAxMTg4NyAwIDIxNzU2LTg2MzAgMjM2OTAtMTk5NjNsMTEwLTkyN2M0NzctNDEyMC01My04NDUzLTE1NjAtMTIwNzV6bS0yMzg0IDEyMzRsNCAyNnYtMmwtNC0yNHoiLz48L3N2Zz4=;" parent="1" vertex="1">
                    <mxGeometry x="456" y="344.20000000000005" width="74" height="74" as="geometry"/>
                </mxCell>
                <mxCell id="15" value="" style="shape=image;verticalLabelPosition=bottom;labelBackgroundColor=#ffffff;verticalAlign=top;aspect=fixed;imageAspect=0;image=data:image/svg+xml,PHN2ZyB4bWxucz0iaHR0cDovL3d3dy53My5vcmcvMjAwMC9zdmciIHhtbG5zOnhsaW5rPSJodHRwOi8vd3d3LnczLm9yZy8xOTk5L3hsaW5rIiB3aWR0aD0iMjQ4IiBoZWlnaHQ9IjI0OCIgdmlld0JveD0iNCAyIDI0OCAyNDgiIHZlcnNpb249IjEuMSIgcHJlc2VydmVBc3BlY3RSYXRpbz0ieE1pZFlNaWQiPgogICAgPGRlZnM+CiAgICAgICAgPGxpbmVhckdyYWRpZW50IHgxPSI1MCUiIHkxPSIxMDAlIiB4Mj0iNTAlIiB5Mj0iMy41NTI3MTM2N2UtMTMlIiBpZD0ibGluZWFyR3JhZGllbnQtMSI+CiAgICAgICAgICAgIDxzdG9wIHN0b3AtY29sb3I9IiNEQkRCREEiIG9mZnNldD0iMjUlIi8+CiAgICAgICAgICAgIDxzdG9wIHN0b3AtY29sb3I9IiNGRkZGRkYiIG9mZnNldD0iMTAwJSIvPgogICAgICAgIDwvbGluZWFyR3JhZGllbnQ+CiAgICAgICAgPGZpbHRlciB4PSItNTAlIiB5PSItNTAlIiB3aWR0aD0iMjAwJSIgaGVpZ2h0PSIyMDAlIiBmaWx0ZXJVbml0cz0ib2JqZWN0Qm91bmRpbmdCb3giIGlkPSJmaWx0ZXItMiI+CiAgICAgICAgICAgIDxmZU9mZnNldCBkeD0iMCIgZHk9IjIiIGluPSJTb3VyY2VBbHBoYSIgcmVzdWx0PSJzaGFkb3dPZmZzZXRPdXRlcjEiLz4KICAgICAgICAgICAgPGZlR2F1c3NpYW5CbHVyIHN0ZERldmlhdGlvbj0iMiIgaW49InNoYWRvd09mZnNldE91dGVyMSIgcmVzdWx0PSJzaGFkb3dCbHVyT3V0ZXIxIi8+CiAgICAgICAgICAgIDxmZUNvbG9yTWF0cml4IHZhbHVlcz0iMCAwIDAgMCAwICAgMCAwIDAgMCAwICAgMCAwIDAgMCAwICAwIDAgMCAwLjI2NjAwNzEzMyAwIiBpbj0ic2hhZG93Qmx1ck91dGVyMSIgdHlwZT0ibWF0cml4IiByZXN1bHQ9InNoYWRvd01hdHJpeE91dGVyMSIvPgogICAgICAgICAgICA8ZmVNZXJnZT4KICAgICAgICAgICAgICAgIDxmZU1lcmdlTm9kZSBpbj0ic2hhZG93TWF0cml4T3V0ZXIxIi8+CiAgICAgICAgICAgICAgICA8ZmVNZXJnZU5vZGUgaW49IlNvdXJjZUdyYXBoaWMiLz4KICAgICAgICAgICAgPC9mZU1lcmdlPgogICAgICAgIDwvZmlsdGVyPgogICAgICAgIDxyYWRpYWxHcmFkaWVudCBjeD0iNTcuMDI1NDIwOSUiIGN5PSIzOS4wMTY3NDA1JSIgZng9IjU3LjAyNTQyMDklIiBmeT0iMzkuMDE2NzQwNSUiIHI9IjYxLjAzMTU2ODklIiBpZD0icmFkaWFsR3JhZGllbnQtMyI+CiAgICAgICAgICAgIDxzdG9wIHN0b3AtY29sb3I9IiMyQUJDRTEiIG9mZnNldD0iMCUiLz4KICAgICAgICAgICAgPHN0b3Agc3RvcC1jb2xvcj0iIzJBQkJFMSIgb2Zmc2V0PSIxMS4zNjI5NDI2JSIvPgogICAgICAgICAgICA8c3RvcCBzdG9wLWNvbG9yPSIjMzM3NUY4IiBvZmZzZXQ9IjEwMCUiLz4KICAgICAgICA8L3JhZGlhbEdyYWRpZW50PgogICAgICAgIDxsaW5lYXJHcmFkaWVudCB4MT0iNDkuMDUwMjUyNCUiIHkxPSIzNS43MDM0NDg3JSIgeDI9IjI1LjcxMjg5NTYlIiB5Mj0iNzcuNTcxODg5NCUiIGlkPSJsaW5lYXJHcmFkaWVudC00Ij4KICAgICAgICAgICAgPHN0b3Agc3RvcC1jb2xvcj0iIzAwMDAwMCIgc3RvcC1vcGFjaXR5PSIwIiBvZmZzZXQ9IjAlIi8+CiAgICAgICAgICAgIDxzdG9wIHN0b3AtY29sb3I9IiMwMDAwMDAiIG9mZnNldD0iMTAwJSIvPgogICAgICAgIDwvbGluZWFyR3JhZGllbnQ+CiAgICAgICAgPGZpbHRlciB4PSItNTAlIiB5PSItNTAlIiB3aWR0aD0iMjAwJSIgaGVpZ2h0PSIyMDAlIiBmaWx0ZXJVbml0cz0ib2JqZWN0Qm91bmRpbmdCb3giIGlkPSJmaWx0ZXItNSI+CiAgICAgICAgICAgIDxmZU9mZnNldCBkeD0iMCIgZHk9IjEiIGluPSJTb3VyY2VBbHBoYSIgcmVzdWx0PSJzaGFkb3dPZmZzZXRPdXRlcjEiLz4KICAgICAgICAgICAgPGZlR2F1c3NpYW5CbHVyIHN0ZERldmlhdGlvbj0iMiIgaW49InNoYWRvd09mZnNldE91dGVyMSIgcmVzdWx0PSJzaGFkb3dCbHVyT3V0ZXIxIi8+CiAgICAgICAgICAgIDxmZUNvbG9yTWF0cml4IHZhbHVlcz0iMCAwIDAgMCAwICAgMCAwIDAgMCAwICAgMCAwIDAgMCAwICAwIDAgMCAxMyAwIiBpbj0ic2hhZG93Qmx1ck91dGVyMSIgdHlwZT0ibWF0cml4IiByZXN1bHQ9InNoYWRvd01hdHJpeE91dGVyMSIvPgogICAgICAgICAgICA8ZmVNZXJnZT4KICAgICAgICAgICAgICAgIDxmZU1lcmdlTm9kZSBpbj0ic2hhZG93TWF0cml4T3V0ZXIxIi8+CiAgICAgICAgICAgICAgICA8ZmVNZXJnZU5vZGUgaW49IlNvdXJjZUdyYXBoaWMiLz4KICAgICAgICAgICAgPC9mZU1lcmdlPgogICAgICAgIDwvZmlsdGVyPgogICAgPC9kZWZzPgogICAgPGc+CiAgICAgICAgPGcgdHJhbnNmb3JtPSJ0cmFuc2xhdGUoNC4wMDAwMDAsIDIuMDAwMDAwKSI+CiAgICAgICAgICAgIDxjaXJjbGUgZmlsbD0idXJsKCNsaW5lYXJHcmFkaWVudC0xKSIgZmlsdGVyPSJ1cmwoI2ZpbHRlci0yKSIgY3g9IjEyNCIgY3k9IjEyNCIgcj0iMTI0Ii8+CiAgICAgICAgICAgIDxjaXJjbGUgZmlsbD0idXJsKCNyYWRpYWxHcmFkaWVudC0zKSIgY3g9IjEyNCIgY3k9IjEyNCIgcj0iMTE0LjciLz4KICAgICAgICAgICAgPGcgdHJhbnNmb3JtPSJ0cmFuc2xhdGUoOS42ODc1MDAsIDguNzE4NzUwKSI+CiAgICAgICAgICAgICAgICA8cGF0aCBkPSJNMTE0LjUwNjI1LDI4LjQ4MTI1IEMxMTMuNzMxMjUsMjguNDgxMjUgMTEzLjA1MzEyNSwyNy45IDExMy4wNTMxMjUsMjcuMTI1IEwxMTMuMDUzMTI1LDYuODc4MTI1IEMxMTMuMDUzMTI1LDYuMTAzMTI1IDExMy43MzEyNSw1LjUyMTg3NSAxMTQuNTA2MjUsNS41MjE4NzUgQzExNS4yODEyNSw1LjUyMTg3NSAxMTUuOTU5Mzc1LDYuMTAzMTI1IDExNS45NTkzNzUsNi44NzgxMjUgTDExNS45NTkzNzUsMjcuMTI1IEMxMTUuODYyNSwyNy45IDExNS4yODEyNSwyOC40ODEyNSAxMTQuNTA2MjUsMjguNDgxMjUgTDExNC41MDYyNSwyOC40ODEyNSBaIiBmaWxsPSIjRjNGM0YzIi8+CiAgICAgICAgICAgICAgICA8cGF0aCBkPSJNMTE0LjUwNjI1LDI4LjU3ODEyNSBDMTEzLjYzNDM3NSwyOC41NzgxMjUgMTEyLjk1NjI1LDI3LjkgMTEyLjk1NjI1LDI3LjEyNSBMMTEyLjk1NjI1LDYuODc4MTI1IEMxMTIuOTU2MjUsNi4xMDMxMjUgMTEzLjYzNDM3NSw1LjQyNSAxMTQuNTA2MjUsNS40MjUgQzExNS4zNzgxMjUsNS40MjUgMTE2LjA1NjI1LDYuMTAzMTI1IDExNi4wNTYyNSw2Ljg3ODEyNSBMMTE2LjA1NjI1LDI3LjEyNSBDMTE2LjA1NjI1LDI3LjkgMTE1LjI4MTI1LDI4LjU3ODEyNSAxMTQuNTA2MjUsMjguNTc4MTI1IEwxMTQuNTA2MjUsMjguNTc4MTI1IFogTTExNC41MDYyNSw1LjYxODc1IEMxMTMuODI4MTI1LDUuNjE4NzUgMTEzLjE1LDYuMiAxMTMuMTUsNi44NzgxMjUgTDExMy4xNSwyNy4xMjUgQzExMy4xNSwyNy44MDMxMjUgMTEzLjczMTI1LDI4LjM4NDM3NSAxMTQuNTA2MjUsMjguMzg0Mzc1IEMxMTUuMTg0Mzc1LDI4LjM4NDM3NSAxMTUuODYyNSwyNy44MDMxMjUgMTE1Ljg2MjUsMjcuMTI1IEwxMTUuODYyNSw2Ljg3ODEyNSBDMTE1Ljc2NTYyNSw2LjIgMTE1LjE4NDM3NSw1LjYxODc1IDExNC41MDYyNSw1LjYxODc1IEwxMTQuNTA2MjUsNS42MTg3NSBaIiBmaWxsPSIjRkZGRkZGIi8+CiAgICAgICAgICAgICAgICA8cGF0aCBkPSJNMTI0LjE5Mzc1LDE3LjYzMTI1IEMxMjMuNDE4NzUsMTcuNTM0Mzc1IDEyMi44Mzc1LDE2Ljk1MzEyNSAxMjIuODM3NSwxNi4xNzgxMjUgTDEyMy41MTU2MjUsNy4xNjg3NSBDMTIzLjYxMjUsNi4zOTM3NSAxMjQuMjkwNjI1LDUuODEyNSAxMjUuMDY1NjI1LDUuOTA5Mzc1IEMxMjUuODQwNjI1LDYuMDA2MjUgMTI2LjQyMTg3NSw2LjU4NzUgMTI2LjQyMTg3NSw3LjM2MjUgTDEyNS43NDM3NSwxNi4zNzE4NzUgQzEyNS42NDY4NzUsMTcuMTQ2ODc1IDEyNC45Njg3NSwxNy43MjgxMjUgMTI0LjE5Mzc1LDE3LjYzMTI1IEwxMjQuMTkzNzUsMTcuNjMxMjUgWiIgZmlsbD0iI0YzRjNGMyIvPgogICAgICAgICAgICAgICAgPHBhdGggZD0iTTEyNC4xOTM3NSwxNy43MjgxMjUgQzEyMy4zMjE4NzUsMTcuNjMxMjUgMTIyLjc0MDYyNSwxNi45NTMxMjUgMTIyLjc0MDYyNSwxNi4xNzgxMjUgTDEyMy40MTg3NSw3LjE2ODc1IEMxMjMuNTE1NjI1LDYuMzkzNzUgMTI0LjE5Mzc1LDUuNzE1NjI1IDEyNS4wNjU2MjUsNS44MTI1IEMxMjUuOTM3NSw1LjkwOTM3NSAxMjYuNTE4NzUsNi41ODc1IDEyNi41MTg3NSw3LjM2MjUgTDEyNS44NDA2MjUsMTYuMzcxODc1IEMxMjUuNzQzNzUsMTcuMjQzNzUgMTI1LjA2NTYyNSwxNy44MjUgMTI0LjE5Mzc1LDE3LjcyODEyNSBMMTI0LjE5Mzc1LDE3LjcyODEyNSBaIE0xMjUuMDY1NjI1LDYuMDA2MjUgQzEyNC4zODc1LDYuMDA2MjUgMTIzLjcwOTM3NSw2LjQ5MDYyNSAxMjMuNzA5Mzc1LDcuMTY4NzUgTDEyMy4wMzEyNSwxNi4xNzgxMjUgQzEyMy4wMzEyNSwxNi44NTYyNSAxMjMuNTE1NjI1LDE3LjQzNzUgMTI0LjI5MDYyNSwxNy41MzQzNzUgQzEyNC45Njg3NSwxNy41MzQzNzUgMTI1LjY0Njg3NSwxNy4wNSAxMjUuNjQ2ODc1LDE2LjM3MTg3NSBMMTI2LjMyNSw3LjM2MjUgQzEyNi4zMjUsNi42ODQzNzUgMTI1Ljc0Mzc1LDYuMTAzMTI1IDEyNS4wNjU2MjUsNi4wMDYyNSBMMTI1LjA2NTYyNSw2LjAwNjI1IFoiIGZpbGw9IiNGRkZGRkYiLz4KICAgICAgICAgICAgICAgIDxwYXRoIGQ9Ik0xMzEuNDU5Mzc1LDMwLjIyNSBDMTMwLjY4NDM3NSwzMC4wMzEyNSAxMzAuMiwyOS4zNTMxMjUgMTMwLjI5Njg3NSwyOC41NzgxMjUgTDEzNC4yNjg3NSw4LjcxODc1IEMxMzQuNDYyNSw3Ljk0Mzc1IDEzNS4xNDA2MjUsNy40NTkzNzUgMTM1LjkxNTYyNSw3LjY1MzEyNSBDMTM2LjY5MDYyNSw3Ljg0Njg3NSAxMzcuMTc1LDguNTI1IDEzNy4wNzgxMjUsOS4zIEwxMzMuMTA2MjUsMjkuMTU5Mzc1IEMxMzMuMDA5Mzc1LDI5LjgzNzUgMTMyLjIzNDM3NSwzMC4zMjE4NzUgMTMxLjQ1OTM3NSwzMC4yMjUgTDEzMS40NTkzNzUsMzAuMjI1IFoiIGZpbGw9IiNGM0YzRjMiLz4KICAgICAgICAgICAgICAgIDxwYXRoIGQ9Ik0xMzEuNDU5Mzc1LDMwLjMyMTg3NSBDMTMwLjU4NzUsMzAuMTI4MTI1IDEzMC4xMDMxMjUsMjkuMzUzMTI1IDEzMC4yLDI4LjU3ODEyNSBMMTM0LjE3MTg3NSw4LjcxODc1IEMxMzQuMzY1NjI1LDcuOTQzNzUgMTM1LjE0MDYyNSw3LjM2MjUgMTM2LjAxMjUsNy41NTYyNSBDMTM2Ljg4NDM3NSw3Ljc1IDEzNy4zNjg3NSw4LjUyNSAxMzcuMjcxODc1LDkuMyBMMTMzLjMsMjkuMTU5Mzc1IEMxMzMuMTA2MjUsMjkuOTM0Mzc1IDEzMi4zMzEyNSwzMC40MTg3NSAxMzEuNDU5Mzc1LDMwLjMyMTg3NSBMMTMxLjQ1OTM3NSwzMC4zMjE4NzUgWiBNMTM2LjAxMjUsNy43NSBDMTM1LjMzNDM3NSw3LjY1MzEyNSAxMzQuNjU2MjUsOC4wNDA2MjUgMTM0LjQ2MjUsOC43MTg3NSBMMTMwLjQ5MDYyNSwyOC41NzgxMjUgQzEzMC4zOTM3NSwyOS4yNTYyNSAxMzAuNzgxMjUsMjkuOTM0Mzc1IDEzMS41NTYyNSwzMC4xMjgxMjUgQzEzMi4yMzQzNzUsMzAuMjI1IDEzMi45MTI1LDI5LjgzNzUgMTMzLjEwNjI1LDI5LjE1OTM3NSBMMTM3LjA3ODEyNSw5LjMgQzEzNy4xNzUsOC41MjUgMTM2LjY5MDYyNSw3Ljk0Mzc1IDEzNi4wMTI1LDcuNzUgTDEzNi4wMTI1LDcuNzUgWiIgZmlsbD0iI0ZGRkZGRiIvPgogICAgICAgICAgICAgICAgPHBhdGggZD0iTTE0My4wODQzNzUsMjEuNTA2MjUgQzE0Mi4zMDkzNzUsMjEuMzEyNSAxNDEuODI1LDIwLjUzNzUgMTQyLjAxODc1LDE5Ljc2MjUgTDE0NC40NDA2MjUsMTEuMDQzNzUgQzE0NC42MzQzNzUsMTAuMjY4NzUgMTQ1LjQwOTM3NSw5Ljg4MTI1IDE0Ni4xODQzNzUsMTAuMDc1IEMxNDYuOTU5Mzc1LDEwLjI2ODc1IDE0Ny40NDM3NSwxMS4wNDM3NSAxNDcuMjUsMTEuODE4NzUgTDE0NC44MjgxMjUsMjAuNTM3NSBDMTQ0LjYzNDM3NSwyMS4zMTI1IDE0My44NTkzNzUsMjEuNyAxNDMuMDg0Mzc1LDIxLjUwNjI1IEwxNDMuMDg0Mzc1LDIxLjUwNjI1IFoiIGZpbGw9IiNGM0YzRjMiLz4KICAgICAgICAgICAgICAgIDxwYXRoIGQ9Ik0xNDMuMDg0Mzc1LDIxLjYwMzEyNSBDMTQyLjMwOTM3NSwyMS40MDkzNzUgMTQxLjcyODEyNSwyMC41Mzc1IDE0Mi4wMTg3NSwxOS43NjI1IEwxNDQuNDQwNjI1LDExLjA0Mzc1IEMxNDQuNjM0Mzc1LDEwLjI2ODc1IDE0NS41MDYyNSw5Ljc4NDM3NSAxNDYuMjgxMjUsOS45NzgxMjUgQzE0Ny4wNTYyNSwxMC4xNzE4NzUgMTQ3LjYzNzUsMTEuMDQzNzUgMTQ3LjM0Njg3NSwxMS44MTg3NSBMMTQ0LjkyNSwyMC41Mzc1IEMxNDQuNzMxMjUsMjEuMzEyNSAxNDMuOTU2MjUsMjEuNzk2ODc1IDE0My4wODQzNzUsMjEuNjAzMTI1IEwxNDMuMDg0Mzc1LDIxLjYwMzEyNSBaIE0xNDYuMjgxMjUsMTAuMjY4NzUgQzE0NS42MDMxMjUsMTAuMDc1IDE0NC44MjgxMjUsMTAuNDYyNSAxNDQuNjM0Mzc1LDExLjE0MDYyNSBMMTQyLjIxMjUsMTkuODU5Mzc1IEMxNDIuMDE4NzUsMjAuNTM3NSAxNDIuNDA2MjUsMjEuMjE1NjI1IDE0My4xODEyNSwyMS40MDkzNzUgQzE0My44NTkzNzUsMjEuNjAzMTI1IDE0NC42MzQzNzUsMjEuMjE1NjI1IDE0NC44MjgxMjUsMjAuNTM3NSBMMTQ3LjI1LDExLjgxODc1IEMxNDcuMzQ2ODc1LDExLjE0MDYyNSAxNDYuOTU5Mzc1LDEwLjQ2MjUgMTQ2LjI4MTI1LDEwLjI2ODc1IEwxNDYuMjgxMjUsMTAuMjY4NzUgWiIgZmlsbD0iI0ZGRkZGRiIvPgogICAgICAgICAgICAgICAgPHBhdGggZD0iTTE0Ny44MzEyNSwzNS4xNjU2MjUgQzE0Ny4wNTYyNSwzNC44NzUgMTQ2Ljc2NTYyNSwzNC4wMDMxMjUgMTQ3LjA1NjI1LDMzLjMyNSBMMTU0LjgwNjI1LDE0LjYyODEyNSBDMTU1LjA5Njg3NSwxMy45NSAxNTUuOTY4NzUsMTMuNTYyNSAxNTYuNjQ2ODc1LDEzLjk1IEMxNTcuNDIxODc1LDE0LjI0MDYyNSAxNTcuNzEyNSwxNS4xMTI1IDE1Ny40MjE4NzUsMTUuNzkwNjI1IEwxNDkuNjcxODc1LDM0LjQ4NzUgQzE0OS4zODEyNSwzNS4xNjU2MjUgMTQ4LjUwOTM3NSwzNS41NTMxMjUgMTQ3LjgzMTI1LDM1LjE2NTYyNSBMMTQ3LjgzMTI1LDM1LjE2NTYyNSBaIiBmaWxsPSIjRjNGM0YzIi8+CiAgICAgICAgICAgICAgICA8cGF0aCBkPSJNMTQ3LjgzMTI1LDM1LjI2MjUgQzE0Ny4wNTYyNSwzNC45NzE4NzUgMTQ2LjY2ODc1LDM0LjEgMTQ2Ljk1OTM3NSwzMy4zMjUgTDE1NC43MDkzNzUsMTQuNjI4MTI1IEMxNTUsMTMuODUzMTI1IDE1NS44NzE4NzUsMTMuNTYyNSAxNTYuNzQzNzUsMTMuODUzMTI1IEMxNTcuNTE4NzUsMTQuMTQzNzUgMTU3LjkwNjI1LDE1LjAxNTYyNSAxNTcuNjE1NjI1LDE1Ljc5MDYyNSBMMTQ5Ljg2NTYyNSwzNC40ODc1IEMxNDkuNDc4MTI1LDM1LjI2MjUgMTQ4LjYwNjI1LDM1LjY1IDE0Ny44MzEyNSwzNS4yNjI1IEwxNDcuODMxMjUsMzUuMjYyNSBaIE0xNTYuNjQ2ODc1LDE0LjA0Njg3NSBDMTU1Ljk2ODc1LDEzLjc1NjI1IDE1NS4xOTM3NSwxNC4wNDY4NzUgMTU0LjkwMzEyNSwxNC43MjUgTDE0Ny4xNTMxMjUsMzMuNDIxODc1IEMxNDYuODYyNSwzNC4xIDE0Ny4yNSwzNC43NzgxMjUgMTQ3LjkyODEyNSwzNS4wNjg3NSBDMTQ4LjYwNjI1LDM1LjM1OTM3NSAxNDkuMzgxMjUsMzUuMDY4NzUgMTQ5LjY3MTg3NSwzNC4zOTA2MjUgTDE1Ny40MjE4NzUsMTUuNjkzNzUgQzE1Ny42MTU2MjUsMTUuMTEyNSAxNTcuMzI1LDE0LjMzNzUgMTU2LjY0Njg3NSwxNC4wNDY4NzUgTDE1Ni42NDY4NzUsMTQuMDQ2ODc1IFoiIGZpbGw9IiNGRkZGRkYiLz4KICAgICAgICAgICAgICAgIDxwYXRoIGQ9Ik0xNjAuOTA5Mzc1LDI4Ljk2NTYyNSBDMTYwLjIzMTI1LDI4LjU3ODEyNSAxNTkuOTQwNjI1LDI3LjgwMzEyNSAxNjAuMjMxMjUsMjcuMTI1IEwxNjQuMywxOS4wODQzNzUgQzE2NC42ODc1LDE4LjQwNjI1IDE2NS40NjI1LDE4LjExNTYyNSAxNjYuMjM3NSwxOC41MDMxMjUgQzE2Ni45MTU2MjUsMTguODkwNjI1IDE2Ny4yMDYyNSwxOS42NjU2MjUgMTY2LjkxNTYyNSwyMC4zNDM3NSBMMTYyLjg0Njg3NSwyOC4zODQzNzUgQzE2Mi40NTkzNzUsMjkuMDYyNSAxNjEuNjg0Mzc1LDI5LjM1MzEyNSAxNjAuOTA5Mzc1LDI4Ljk2NTYyNSBMMTYwLjkwOTM3NSwyOC45NjU2MjUgWiIgZmlsbD0iI0YzRjNGMyIvPgogICAgICAgICAgICAgICAgPHBhdGggZD0iTTE2MC45MDkzNzUsMjkuMDYyNSBDMTYwLjEzNDM3NSwyOC42NzUgMTU5Ljg0Mzc1LDI3LjgwMzEyNSAxNjAuMjMxMjUsMjcuMDI4MTI1IEwxNjQuMywxOC45ODc1IEMxNjQuNjg3NSwxOC4yMTI1IDE2NS41NTkzNzUsMTcuOTIxODc1IDE2Ni4zMzQzNzUsMTguMzA5Mzc1IEMxNjcuMTA5Mzc1LDE4LjY5Njg3NSAxNjcuNCwxOS41Njg3NSAxNjcuMDEyNSwyMC4zNDM3NSBMMTYyLjk0Mzc1LDI4LjM4NDM3NSBDMTYyLjU1NjI1LDI5LjE1OTM3NSAxNjEuNjg0Mzc1LDI5LjQ1IDE2MC45MDkzNzUsMjkuMDYyNSBMMTYwLjkwOTM3NSwyOS4wNjI1IFogTTE2Ni4yMzc1LDE4LjUwMzEyNSBDMTY1LjU1OTM3NSwxOC4yMTI1IDE2NC43ODQzNzUsMTguNDA2MjUgMTY0LjQ5Mzc1LDE5LjA4NDM3NSBMMTYwLjQyNSwyNy4xMjUgQzE2MC4xMzQzNzUsMjcuNzA2MjUgMTYwLjQyNSwyOC40ODEyNSAxNjEuMDA2MjUsMjguODY4NzUgQzE2MS42ODQzNzUsMjkuMTU5Mzc1IDE2Mi40NTkzNzUsMjguOTY1NjI1IDE2Mi43NSwyOC4yODc1IEwxNjYuODE4NzUsMjAuMjQ2ODc1IEMxNjcuMTA5Mzc1LDE5LjY2NTYyNSAxNjYuODE4NzUsMTguODkwNjI1IDE2Ni4yMzc1LDE4LjUwMzEyNSBMMTY2LjIzNzUsMTguNTAzMTI1IFoiIGZpbGw9IiNGRkZGRkYiLz4KICAgICAgICAgICAgICAgIDxwYXRoIGQ9Ik0xNjIuODQ2ODc1LDQzLjMwMzEyNSBDMTYyLjE2ODc1LDQyLjgxODc1IDE2MS45NzUsNDEuOTQ2ODc1IDE2Mi40NTkzNzUsNDEuMzY1NjI1IEwxNzMuNjk2ODc1LDI0LjYwNjI1IEMxNzQuMDg0Mzc1LDIzLjkyODEyNSAxNzQuOTU2MjUsMjMuODMxMjUgMTc1LjYzNDM3NSwyNC4yMTg3NSBDMTc2LjMxMjUsMjQuNzAzMTI1IDE3Ni41MDYyNSwyNS41NzUgMTc2LjAyMTg3NSwyNi4xNTYyNSBMMTY0Ljc4NDM3NSw0Mi45MTU2MjUgQzE2NC4zOTY4NzUsNDMuNTkzNzUgMTYzLjUyNSw0My43ODc1IDE2Mi44NDY4NzUsNDMuMzAzMTI1IEwxNjIuODQ2ODc1LDQzLjMwMzEyNSBaIiBmaWxsPSIjRjNGM0YzIi8+CiAgICAgICAgICAgICAgICA8cGF0aCBkPSJNMTYyLjg0Njg3NSw0My40IEMxNjIuMTY4NzUsNDIuOTE1NjI1IDE2MS45NzUsNDEuOTQ2ODc1IDE2Mi4zNjI1LDQxLjI2ODc1IEwxNzMuNiwyNC41MDkzNzUgQzE3NC4wODQzNzUsMjMuODMxMjUgMTc0Ljk1NjI1LDIzLjYzNzUgMTc1LjczMTI1LDI0LjEyMTg3NSBDMTc2LjQwOTM3NSwyNC42MDYyNSAxNzYuNjAzMTI1LDI1LjU3NSAxNzYuMjE1NjI1LDI2LjI1MzEyNSBMMTY0Ljk3ODEyNSw0My4wMTI1IEMxNjQuNDkzNzUsNDMuNjkwNjI1IDE2My41MjUsNDMuODg0Mzc1IDE2Mi44NDY4NzUsNDMuNCBMMTYyLjg0Njg3NSw0My40IFogTTE3NS42MzQzNzUsMjQuMzE1NjI1IEMxNzUuMDUzMTI1LDIzLjkyODEyNSAxNzQuMTgxMjUsMjQuMDI1IDE3My43OTM3NSwyNC42MDYyNSBMMTYyLjU1NjI1LDQxLjM2NTYyNSBDMTYyLjE2ODc1LDQxLjk0Njg3NSAxNjIuMzYyNSw0Mi43MjE4NzUgMTYyLjk0Mzc1LDQzLjEwOTM3NSBDMTYzLjUyNSw0My40OTY4NzUgMTY0LjM5Njg3NSw0My40IDE2NC43ODQzNzUsNDIuODE4NzUgTDE3Ni4wMjE4NzUsMjYuMTU2MjUgQzE3Ni40MDkzNzUsMjUuNTc1IDE3Ni4yMTU2MjUsMjQuNzAzMTI1IDE3NS42MzQzNzUsMjQuMzE1NjI1IEwxNzUuNjM0Mzc1LDI0LjMxNTYyNSBaIiBmaWxsPSIjRkZGRkZGIi8+CiAgICAgICAgICAgICAgICA8cGF0aCBkPSJNMTc2Ljk5MDYyNSwzOS43MTg3NSBDMTc2LjQwOTM3NSwzOS4yMzQzNzUgMTc2LjIxNTYyNSwzOC4zNjI1IDE3Ni43LDM3Ljc4MTI1IEwxODIuMzE4NzUsMzAuNzA5Mzc1IEMxODIuODAzMTI1LDMwLjEyODEyNSAxODMuNjc1LDMwLjAzMTI1IDE4NC4yNTYyNSwzMC41MTU2MjUgQzE4NC44Mzc1LDMxIDE4NS4wMzEyNSwzMS44NzE4NzUgMTg0LjU0Njg3NSwzMi40NTMxMjUgTDE3OC45MjgxMjUsMzkuNTI1IEMxNzguNDQzNzUsNDAuMTA2MjUgMTc3LjU3MTg3NSw0MC4yMDMxMjUgMTc2Ljk5MDYyNSwzOS43MTg3NSBMMTc2Ljk5MDYyNSwzOS43MTg3NSBaIiBmaWxsPSIjRjNGM0YzIi8+CiAgICAgICAgICAgICAgICA8cGF0aCBkPSJNMTc2Ljg5Mzc1LDM5LjgxNTYyNSBDMTc2LjIxNTYyNSwzOS4zMzEyNSAxNzYuMTE4NzUsMzguMzYyNSAxNzYuNjAzMTI1LDM3LjY4NDM3NSBMMTgyLjIyMTg3NSwzMC42MTI1IEMxODIuNzA2MjUsMjkuOTM0Mzc1IDE4My42NzUsMjkuODM3NSAxODQuMzUzMTI1LDMwLjQxODc1IEMxODUuMDMxMjUsMzAuOTAzMTI1IDE4NS4xMjgxMjUsMzEuODcxODc1IDE4NC42NDM3NSwzMi41NSBMMTc5LjAyNSwzOS42MjE4NzUgQzE3OC41NDA2MjUsNDAuMyAxNzcuNTcxODc1LDQwLjM5Njg3NSAxNzYuODkzNzUsMzkuODE1NjI1IEwxNzYuODkzNzUsMzkuODE1NjI1IFogTTE4NC4xNTkzNzUsMzAuNjEyNSBDMTgzLjU3ODEyNSwzMC4xMjgxMjUgMTgyLjgwMzEyNSwzMC4yMjUgMTgyLjMxODc1LDMwLjgwNjI1IEwxNzYuNywzNy44NzgxMjUgQzE3Ni4zMTI1LDM4LjQ1OTM3NSAxNzYuNDA5Mzc1LDM5LjIzNDM3NSAxNzYuOTkwNjI1LDM5LjcxODc1IEMxNzcuNTcxODc1LDQwLjIwMzEyNSAxNzguMzQ2ODc1LDQwLjEwNjI1IDE3OC44MzEyNSwzOS41MjUgTDE4NC40NSwzMi40NTMxMjUgQzE4NC44Mzc1LDMxLjg3MTg3NSAxODQuNzQwNjI1LDMxIDE4NC4xNTkzNzUsMzAuNjEyNSBMMTg0LjE1OTM3NSwzMC42MTI1IFoiIGZpbGw9IiNGRkZGRkYiLz4KICAgICAgICAgICAgICAgIDxwYXRoIGQ9Ik0xNzYuMDIxODc1LDU0LjI1IEMxNzUuNDQwNjI1LDUzLjY2ODc1IDE3NS40NDA2MjUsNTIuNzk2ODc1IDE3Ni4wMjE4NzUsNTIuMzEyNSBMMTkwLjM1OTM3NSwzOC4wNzE4NzUgQzE5MC45NDA2MjUsMzcuNDkwNjI1IDE5MS44MTI1LDM3LjU4NzUgMTkyLjI5Njg3NSwzOC4wNzE4NzUgQzE5Mi43ODEyNSwzOC41NTYyNSAxOTIuODc4MTI1LDM5LjUyNSAxOTIuMjk2ODc1LDQwLjAwOTM3NSBMMTc4LjA1NjI1LDU0LjI1IEMxNzcuNDc1LDU0LjgzMTI1IDE3Ni42MDMxMjUsNTQuODMxMjUgMTc2LjAyMTg3NSw1NC4yNSBMMTc2LjAyMTg3NSw1NC4yNSBaIiBmaWxsPSIjRjNGM0YzIi8+CiAgICAgICAgICAgICAgICA8cGF0aCBkPSJNMTc1LjkyNSw1NC4zNDY4NzUgQzE3NS4zNDM3NSw1My43NjU2MjUgMTc1LjM0Mzc1LDUyLjc5Njg3NSAxNzUuOTI1LDUyLjIxNTYyNSBMMTkwLjI2MjUsMzcuOTc1IEMxOTAuODQzNzUsMzcuMzkzNzUgMTkxLjgxMjUsMzcuMzkzNzUgMTkyLjM5Mzc1LDM3Ljk3NSBDMTkyLjk3NSwzOC41NTYyNSAxOTIuOTc1LDM5LjUyNSAxOTIuMzkzNzUsNDAuMTA2MjUgTDE3OC4wNTYyNSw1NC4zNDY4NzUgQzE3Ny40NzUsNTQuOTI4MTI1IDE3Ni41MDYyNSw1NC45MjgxMjUgMTc1LjkyNSw1NC4zNDY4NzUgTDE3NS45MjUsNTQuMzQ2ODc1IFogTTE5Mi4yOTY4NzUsMzguMDcxODc1IEMxOTEuODEyNSwzNy41ODc1IDE5MC45NDA2MjUsMzcuNTg3NSAxOTAuNDU2MjUsMzguMDcxODc1IEwxNzYuMTE4NzUsNTIuMzEyNSBDMTc1LjYzNDM3NSw1Mi43OTY4NzUgMTc1LjYzNDM3NSw1My42Njg3NSAxNzYuMTE4NzUsNTQuMTUzMTI1IEMxNzYuNjAzMTI1LDU0LjYzNzUgMTc3LjQ3NSw1NC42Mzc1IDE3Ny45NTkzNzUsNTQuMTUzMTI1IEwxOTIuMjk2ODc1LDM5LjkxMjUgQzE5Mi43ODEyNSwzOS40MjgxMjUgMTkyLjc4MTI1LDM4LjY1MzEyNSAxOTIuMjk2ODc1LDM4LjA3MTg3NSBMMTkyLjI5Njg3NSwzOC4wNzE4NzUgWiIgZmlsbD0iI0ZGRkZGRiIvPgogICAgICAgICAgICAgICAgPHBhdGggZD0iTTE5MC41NTMxMjUsNTMuNDc1IEMxOTAuMDY4NzUsNTIuODkzNzUgMTkwLjA2ODc1LDUyLjAyMTg3NSAxOTAuNjUsNTEuNTM3NSBMMTk3LjUyODEyNSw0NS43MjUgQzE5OC4xMDkzNzUsNDUuMjQwNjI1IDE5OC45ODEyNSw0NS4zMzc1IDE5OS40NjU2MjUsNDUuOTE4NzUgQzE5OS45NSw0Ni41IDE5OS45NSw0Ny4zNzE4NzUgMTk5LjM2ODc1LDQ3Ljg1NjI1IEwxOTIuNDkwNjI1LDUzLjY2ODc1IEMxOTEuOTA5Mzc1LDU0LjE1MzEyNSAxOTEuMDM3NSw1NC4wNTYyNSAxOTAuNTUzMTI1LDUzLjQ3NSBMMTkwLjU1MzEyNSw1My40NzUgWiIgZmlsbD0iI0YzRjNGMyIvPgogICAgICAgICAgICAgICAgPHBhdGggZD0iTTE5MC40NTYyNSw1My41NzE4NzUgQzE4OS44NzUsNTIuODkzNzUgMTg5Ljk3MTg3NSw1MS45MjUgMTkwLjU1MzEyNSw1MS40NDA2MjUgTDE5Ny40MzEyNSw0NS42MjgxMjUgQzE5OC4wMTI1LDQ1LjA0Njg3NSAxOTguOTgxMjUsNDUuMTQzNzUgMTk5LjU2MjUsNDUuODIxODc1IEMyMDAuMTQzNzUsNDYuNSAyMDAuMDQ2ODc1LDQ3LjQ2ODc1IDE5OS40NjU2MjUsNDcuOTUzMTI1IEwxOTIuNTg3NSw1My43NjU2MjUgQzE5Mi4wMDYyNSw1NC4zNDY4NzUgMTkxLjAzNzUsNTQuMjUgMTkwLjQ1NjI1LDUzLjU3MTg3NSBMMTkwLjQ1NjI1LDUzLjU3MTg3NSBaIE0xOTkuMzY4NzUsNDUuOTE4NzUgQzE5OC44ODQzNzUsNDUuMzM3NSAxOTguMTA5Mzc1LDQ1LjMzNzUgMTk3LjUyODEyNSw0NS43MjUgTDE5MC42NSw1MS41Mzc1IEMxOTAuMTY1NjI1LDUyLjAyMTg3NSAxOTAuMDY4NzUsNTIuNzk2ODc1IDE5MC41NTMxMjUsNTMuMzc4MTI1IEMxOTEuMDM3NSw1My45NTkzNzUgMTkxLjgxMjUsNTMuOTU5Mzc1IDE5Mi4zOTM3NSw1My41NzE4NzUgTDE5OS4yNzE4NzUsNDcuNzU5Mzc1IEMxOTkuODUzMTI1LDQ3LjI3NSAxOTkuODUzMTI1LDQ2LjUgMTk5LjM2ODc1LDQ1LjkxODc1IEwxOTkuMzY4NzUsNDUuOTE4NzUgWiIgZmlsbD0iI0ZGRkZGRiIvPgogICAgICAgICAgICAgICAgPHBhdGggZD0iTTE4Ni42NzgxMjUsNjcuNDI1IEMxODYuMTkzNzUsNjYuNzQ2ODc1IDE4Ni4zODc1LDY1Ljg3NSAxODcuMDY1NjI1LDY1LjQ4NzUgTDIwMy45MjE4NzUsNTQuMjUgQzIwNC42LDUzLjg2MjUgMjA1LjQ3MTg3NSw1NC4wNTYyNSAyMDUuODU5Mzc1LDU0LjYzNzUgQzIwNi4zNDM3NSw1NS4zMTU2MjUgMjA2LjE1LDU2LjE4NzUgMjA1LjQ3MTg3NSw1Ni41NzUgTDE4OC42MTU2MjUsNjcuODEyNSBDMTg4LjAzNDM3NSw2OC4yIDE4Ny4xNjI1LDY4LjAwNjI1IDE4Ni42NzgxMjUsNjcuNDI1IEwxODYuNjc4MTI1LDY3LjQyNSBaIiBmaWxsPSIjRjNGM0YzIi8+CiAgICAgICAgICAgICAgICA8cGF0aCBkPSJNMTg2LjU4MTI1LDY3LjQyNSBDMTg2LjA5Njg3NSw2Ni43NDY4NzUgMTg2LjI5MDYyNSw2NS43NzgxMjUgMTg2Ljk2ODc1LDY1LjI5Mzc1IEwyMDMuODI1LDU0LjA1NjI1IEMyMDQuNTAzMTI1LDUzLjU3MTg3NSAyMDUuNDcxODc1LDUzLjc2NTYyNSAyMDUuOTU2MjUsNTQuNTQwNjI1IEMyMDYuNDQwNjI1LDU1LjIxODc1IDIwNi4yNDY4NzUsNTYuMTg3NSAyMDUuNTY4NzUsNTYuNjcxODc1IEwxODguNzEyNSw2Ny45MDkzNzUgQzE4OC4wMzQzNzUsNjguMzkzNzUgMTg3LjA2NTYyNSw2OC4yIDE4Ni41ODEyNSw2Ny40MjUgTDE4Ni41ODEyNSw2Ny40MjUgWiBNMjA1Ljc2MjUsNTQuNzM0Mzc1IEMyMDUuMzc1LDU0LjE1MzEyNSAyMDQuNiw1My45NTkzNzUgMjA0LjAxODc1LDU0LjM0Njg3NSBMMTg3LjE2MjUsNjUuNTg0Mzc1IEMxODYuNTgxMjUsNjUuOTcxODc1IDE4Ni4zODc1LDY2Ljc0Njg3NSAxODYuODcxODc1LDY3LjQyNSBDMTg3LjI1OTM3NSw2OC4wMDYyNSAxODguMDM0Mzc1LDY4LjIgMTg4LjYxNTYyNSw2Ny44MTI1IEwyMDUuNDcxODc1LDU2LjU3NSBDMjA2LjA1MzEyNSw1Ni4wOTA2MjUgMjA2LjE1LDU1LjMxNTYyNSAyMDUuNzYyNSw1NC43MzQzNzUgTDIwNS43NjI1LDU0LjczNDM3NSBaIiBmaWxsPSIjRkZGRkZGIi8+CiAgICAgICAgICAgICAgICA8cGF0aCBkPSJNMjAxLjExMjUsNjkuNDU5Mzc1IEMyMDAuNzI1LDY4Ljc4MTI1IDIwMC45MTg3NSw2Ny45MDkzNzUgMjAxLjU5Njg3NSw2Ny41MjE4NzUgTDIwOS40NDM3NSw2My4wNjU2MjUgQzIxMC4xMjE4NzUsNjIuNjc4MTI1IDIxMC45OTM3NSw2Mi45Njg3NSAyMTEuMzgxMjUsNjMuNjQ2ODc1IEMyMTEuNzY4NzUsNjQuMzI1IDIxMS41NzUsNjUuMTk2ODc1IDIxMC44OTY4NzUsNjUuNTg0Mzc1IEwyMDMuMDUsNzAuMDQwNjI1IEMyMDIuMzcxODc1LDcwLjQyODEyNSAyMDEuNSw3MC4xMzc1IDIwMS4xMTI1LDY5LjQ1OTM3NSBMMjAxLjExMjUsNjkuNDU5Mzc1IFoiIGZpbGw9IiNGM0YzRjMiLz4KICAgICAgICAgICAgICAgIDxwYXRoIGQ9Ik0yMDEuMDE1NjI1LDY5LjU1NjI1IEMyMDAuNjI4MTI1LDY4Ljc4MTI1IDIwMC44MjE4NzUsNjcuOTA5Mzc1IDIwMS41LDY3LjUyMTg3NSBMMjA5LjM0Njg3NSw2My4wNjU2MjUgQzIxMC4wMjUsNjIuNjc4MTI1IDIxMC45OTM3NSw2Mi45Njg3NSAyMTEuMzgxMjUsNjMuNjQ2ODc1IEMyMTEuNzY4NzUsNjQuNDIxODc1IDIxMS41NzUsNjUuMjkzNzUgMjEwLjg5Njg3NSw2NS42ODEyNSBMMjAzLjA1LDcwLjEzNzUgQzIwMi4zNzE4NzUsNzAuNTI1IDIwMS40MDMxMjUsNzAuMjM0Mzc1IDIwMS4wMTU2MjUsNjkuNTU2MjUgTDIwMS4wMTU2MjUsNjkuNTU2MjUgWiBNMjExLjI4NDM3NSw2My43NDM3NSBDMjEwLjg5Njg3NSw2My4wNjU2MjUgMjEwLjEyMTg3NSw2Mi44NzE4NzUgMjA5LjU0MDYyNSw2My4yNTkzNzUgTDIwMS42OTM3NSw2Ny43MTU2MjUgQzIwMS4xMTI1LDY4LjEwMzEyNSAyMDAuOTE4NzUsNjguODc4MTI1IDIwMS4yMDkzNzUsNjkuNDU5Mzc1IEMyMDEuNTk2ODc1LDcwLjEzNzUgMjAyLjM3MTg3NSw3MC4zMzEyNSAyMDIuOTUzMTI1LDY5Ljk0Mzc1IEwyMTAuOCw2NS40ODc1IEMyMTEuMzgxMjUsNjUuMTk2ODc1IDIxMS41NzUsNjQuNDIxODc1IDIxMS4yODQzNzUsNjMuNzQzNzUgTDIxMS4yODQzNzUsNjMuNzQzNzUgWiIgZmlsbD0iI0ZGRkZGRiIvPgogICAgICAgICAgICAgICAgPHBhdGggZD0iTTE5NC42MjE4NzUsODIuMzQzNzUgQzE5NC4zMzEyNSw4MS41Njg3NSAxOTQuNjIxODc1LDgwLjc5Mzc1IDE5NS4zOTY4NzUsODAuNTAzMTI1IEwyMTQuMDkzNzUsNzIuNzUzMTI1IEMyMTQuNzcxODc1LDcyLjQ2MjUgMjE1LjY0Mzc1LDcyLjg1IDIxNS45MzQzNzUsNzMuNTI4MTI1IEMyMTYuMjI1LDc0LjMwMzEyNSAyMTUuOTM0Mzc1LDc1LjA3ODEyNSAyMTUuMTU5Mzc1LDc1LjM2ODc1IEwxOTYuNDYyNSw4My4xMTg3NSBDMTk1Ljc4NDM3NSw4My40MDkzNzUgMTk0LjkxMjUsODMuMTE4NzUgMTk0LjYyMTg3NSw4Mi4zNDM3NSBMMTk0LjYyMTg3NSw4Mi4zNDM3NSBaIiBmaWxsPSIjRjNGM0YzIi8+CiAgICAgICAgICAgICAgICA8cGF0aCBkPSJNMTk0LjUyNSw4Mi40NDA2MjUgQzE5NC4yMzQzNzUsODEuNjY1NjI1IDE5NC41MjUsODAuNzkzNzUgMTk1LjMsODAuNDA2MjUgTDIxMy45OTY4NzUsNzIuNjU2MjUgQzIxNC43NzE4NzUsNzIuMzY1NjI1IDIxNS42NDM3NSw3Mi43NTMxMjUgMjE1LjkzNDM3NSw3My41MjgxMjUgQzIxNi4yMjUsNzQuMzAzMTI1IDIxNS45MzQzNzUsNzUuMTc1IDIxNS4xNTkzNzUsNzUuNTYyNSBMMTk2LjQ2MjUsODMuMzEyNSBDMTk1LjY4NzUsODMuNjAzMTI1IDE5NC44MTU2MjUsODMuMjE1NjI1IDE5NC41MjUsODIuNDQwNjI1IEwxOTQuNTI1LDgyLjQ0MDYyNSBaIE0yMTUuNzQwNjI1LDczLjYyNSBDMjE1LjQ1LDcyLjk0Njg3NSAyMTQuNjc1LDcyLjY1NjI1IDIxNC4wOTM3NSw3Mi44NSBMMTk1LjM5Njg3NSw4MC42IEMxOTQuNzE4NzUsODAuODkwNjI1IDE5NC40MjgxMjUsODEuNjY1NjI1IDE5NC43MTg3NSw4Mi4zNDM3NSBDMTk1LjAwOTM3NSw4My4wMjE4NzUgMTk1Ljc4NDM3NSw4My4zMTI1IDE5Ni4zNjU2MjUsODMuMTE4NzUgTDIxNS4wNjI1LDc1LjM2ODc1IEMyMTUuNzQwNjI1LDc1LjA3ODEyNSAyMTYuMDMxMjUsNzQuMzAzMTI1IDIxNS43NDA2MjUsNzMuNjI1IEwyMTUuNzQwNjI1LDczLjYyNSBaIiBmaWxsPSIjRkZGRkZGIi8+CiAgICAgICAgICAgICAgICA8cGF0aCBkPSJNMjA4LjI4MTI1LDg3LjE4NzUgQzIwNy45OTA2MjUsODYuNDEyNSAyMDguMzc4MTI1LDg1LjYzNzUgMjA5LjE1MzEyNSw4NS4zNDY4NzUgTDIxNy42NzgxMjUsODIuNTM3NSBDMjE4LjM1NjI1LDgyLjI0Njg3NSAyMTkuMjI4MTI1LDgyLjczMTI1IDIxOS40MjE4NzUsODMuNDA5Mzc1IEMyMTkuNzEyNSw4NC4xODQzNzUgMjE5LjMyNSw4NC45NTkzNzUgMjE4LjU1LDg1LjI1IEwyMTAuMDI1LDg4LjA1OTM3NSBDMjA5LjM0Njg3NSw4OC4zNSAyMDguNTcxODc1LDg3Ljk2MjUgMjA4LjI4MTI1LDg3LjE4NzUgTDIwOC4yODEyNSw4Ny4xODc1IFoiIGZpbGw9IiNGM0YzRjMiLz4KICAgICAgICAgICAgICAgIDxwYXRoIGQ9Ik0yMDguMTg0Mzc1LDg3LjI4NDM3NSBDMjA3Ljg5Mzc1LDg2LjUwOTM3NSAyMDguMjgxMjUsODUuNjM3NSAyMDkuMTUzMTI1LDg1LjM0Njg3NSBMMjE3LjY3ODEyNSw4Mi41Mzc1IEMyMTguNDUzMTI1LDgyLjI0Njg3NSAyMTkuMzI1LDgyLjczMTI1IDIxOS42MTU2MjUsODMuNTA2MjUgQzIxOS45MDYyNSw4NC4yODEyNSAyMTkuNTE4NzUsODUuMTUzMTI1IDIxOC42NDY4NzUsODUuNDQzNzUgTDIxMC4xMjE4NzUsODguMjUzMTI1IEMyMDkuMzQ2ODc1LDg4LjQ0Njg3NSAyMDguNDc1LDg4LjA1OTM3NSAyMDguMTg0Mzc1LDg3LjI4NDM3NSBMMjA4LjE4NDM3NSw4Ny4yODQzNzUgWiBNMjE5LjQyMTg3NSw4My42MDMxMjUgQzIxOS4yMjgxMjUsODIuOTI1IDIxOC40NTMxMjUsODIuNTM3NSAyMTcuNzc1LDgyLjczMTI1IEwyMDkuMjUsODUuNTQwNjI1IEMyMDguNTcxODc1LDg1LjczNDM3NSAyMDguMjgxMjUsODYuNTA5Mzc1IDIwOC40NzUsODcuMTg3NSBDMjA4LjY2ODc1LDg3Ljg2NTYyNSAyMDkuNDQzNzUsODguMjUzMTI1IDIxMC4xMjE4NzUsODguMDU5Mzc1IEwyMTguNjQ2ODc1LDg1LjI1IEMyMTkuMzI1LDg0Ljk1OTM3NSAyMTkuNjE1NjI1LDg0LjI4MTI1IDIxOS40MjE4NzUsODMuNjAzMTI1IEwyMTkuNDIxODc1LDgzLjYwMzEyNSBaIiBmaWxsPSIjRkZGRkZGIi8+CiAgICAgICAgICAgICAgICA8cGF0aCBkPSJNMTk5LjU2MjUsOTguNzE1NjI1IEMxOTkuMzY4NzUsOTcuOTQwNjI1IDE5OS44NTMxMjUsOTcuMTY1NjI1IDIwMC42MjgxMjUsOTcuMDY4NzUgTDIyMC40ODc1LDkzLjE5Mzc1IEMyMjEuMjYyNSw5MyAyMjEuOTQwNjI1LDkzLjU4MTI1IDIyMi4xMzQzNzUsOTQuMzU2MjUgQzIyMi4zMjgxMjUsOTUuMTMxMjUgMjIxLjg0Mzc1LDk1LjkwNjI1IDIyMS4wNjg3NSw5Ni4wMDMxMjUgTDIwMS4yMDkzNzUsOTkuODc4MTI1IEMyMDAuNDM0Mzc1LDk5Ljk3NSAxOTkuNjU5Mzc1LDk5LjQ5MDYyNSAxOTkuNTYyNSw5OC43MTU2MjUgTDE5OS41NjI1LDk4LjcxNTYyNSBaIiBmaWxsPSIjRjNGM0YzIi8+CiAgICAgICAgICAgICAgICA8cGF0aCBkPSJNMTk5LjM2ODc1LDk4LjcxNTYyNSBDMTk5LjE3NSw5Ny44NDM3NSAxOTkuNzU2MjUsOTcuMDY4NzUgMjAwLjUzMTI1LDk2Ljg3NSBMMjIwLjM5MDYyNSw5MyBDMjIxLjE2NTYyNSw5Mi44MDYyNSAyMjEuOTQwNjI1LDkzLjM4NzUgMjIyLjEzNDM3NSw5NC4yNTkzNzUgQzIyMi4zMjgxMjUsOTUuMTMxMjUgMjIxLjc0Njg3NSw5NS45MDYyNSAyMjAuOTcxODc1LDk2LjEgTDIwMS4xMTI1LDk5Ljk3NSBDMjAwLjMzNzUsMTAwLjE2ODc1IDE5OS41NjI1LDk5LjU4NzUgMTk5LjM2ODc1LDk4LjcxNTYyNSBMMTk5LjM2ODc1LDk4LjcxNTYyNSBaIE0yMjEuOTQwNjI1LDk0LjM1NjI1IEMyMjEuODQzNzUsOTMuNjc4MTI1IDIyMS4xNjU2MjUsOTMuMTkzNzUgMjIwLjQ4NzUsOTMuMjkwNjI1IEwyMDAuNjI4MTI1LDk3LjE2NTYyNSBDMTk5Ljk1LDk3LjI2MjUgMTk5LjQ2NTYyNSw5OC4wMzc1IDE5OS42NTkzNzUsOTguNzE1NjI1IEMxOTkuNzU2MjUsOTkuMzkzNzUgMjAwLjQzNDM3NSw5OS44NzgxMjUgMjAxLjExMjUsOTkuNzgxMjUgTDIyMC45NzE4NzUsOTUuOTA2MjUgQzIyMS42NSw5NS43MTI1IDIyMi4xMzQzNzUsOTUuMDM0Mzc1IDIyMS45NDA2MjUsOTQuMzU2MjUgTDIyMS45NDA2MjUsOTQuMzU2MjUgWiIgZmlsbD0iI0ZGRkZGRiIvPgogICAgICAgICAgICAgICAgPHBhdGggZD0iTTIxMS45NjI1LDEwNi4xNzUgQzIxMS44NjU2MjUsMTA1LjQgMjEyLjM1LDEwNC43MjE4NzUgMjEzLjEyNSwxMDQuNjI1IEwyMjIuMDM3NSwxMDMuNTU5Mzc1IEMyMjIuODEyNSwxMDMuNDYyNSAyMjMuNDkwNjI1LDEwNC4wNDM3NSAyMjMuNTg3NSwxMDQuODE4NzUgQzIyMy42ODQzNzUsMTA1LjU5Mzc1IDIyMy4yLDEwNi4yNzE4NzUgMjIyLjQyNSwxMDYuMzY4NzUgTDIxMy41MTI1LDEwNy40MzQzNzUgQzIxMi44MzQzNzUsMTA3LjUzMTI1IDIxMi4wNTkzNzUsMTA2Ljk1IDIxMS45NjI1LDEwNi4xNzUgTDIxMS45NjI1LDEwNi4xNzUgWiIgZmlsbD0iI0YzRjNGMyIvPgogICAgICAgICAgICAgICAgPHBhdGggZD0iTTIxMS44NjU2MjUsMTA2LjE3NSBDMjExLjc2ODc1LDEwNS4zMDMxMjUgMjEyLjM1LDEwNC41MjgxMjUgMjEzLjEyNSwxMDQuNDMxMjUgTDIyMi4wMzc1LDEwMy4zNjU2MjUgQzIyMi44MTI1LDEwMy4yNjg3NSAyMjMuNTg3NSwxMDMuODUgMjIzLjY4NDM3NSwxMDQuNzIxODc1IEMyMjMuNzgxMjUsMTA1LjU5Mzc1IDIyMy4yLDEwNi4zNjg3NSAyMjIuNDI1LDEwNi40NjU2MjUgTDIxMy41MTI1LDEwNy41MzEyNSBDMjEyLjczNzUsMTA3LjYyODEyNSAyMTEuOTYyNSwxMDcuMDQ2ODc1IDIxMS44NjU2MjUsMTA2LjE3NSBMMjExLjg2NTYyNSwxMDYuMTc1IFogTTIyMy41ODc1LDEwNC44MTg3NSBDMjIzLjQ5MDYyNSwxMDQuMTQwNjI1IDIyMi44MTI1LDEwMy41NTkzNzUgMjIyLjEzNDM3NSwxMDMuNjU2MjUgTDIxMy4yMjE4NzUsMTA0LjcyMTg3NSBDMjEyLjU0Mzc1LDEwNC44MTg3NSAyMTIuMDU5Mzc1LDEwNS40OTY4NzUgMjEyLjE1NjI1LDEwNi4xNzUgQzIxMi4yNTMxMjUsMTA2Ljg1MzEyNSAyMTIuOTMxMjUsMTA3LjQzNDM3NSAyMTMuNjA5Mzc1LDEwNy4zMzc1IEwyMjIuNTIxODc1LDEwNi4yNzE4NzUgQzIyMy4yLDEwNi4xNzUgMjIzLjY4NDM3NSwxMDUuNDk2ODc1IDIyMy41ODc1LDEwNC44MTg3NSBMMjIzLjU4NzUsMTA0LjgxODc1IFoiIGZpbGw9IiNGRkZGRkYiLz4KICAgICAgICAgICAgICAgIDxwYXRoIGQ9Ik0yMDEuMTEyNSwxMTUuNTcxODc1IEMyMDEuMTEyNSwxMTQuNzk2ODc1IDIwMS42OTM3NSwxMTQuMTE4NzUgMjAyLjQ2ODc1LDExNC4xMTg3NSBMMjIyLjcxNTYyNSwxMTQuMTE4NzUgQzIyMy40OTA2MjUsMTE0LjExODc1IDIyNC4wNzE4NzUsMTE0Ljc5Njg3NSAyMjQuMDcxODc1LDExNS41NzE4NzUgQzIyNC4wNzE4NzUsMTE2LjM0Njg3NSAyMjMuNDkwNjI1LDExNy4wMjUgMjIyLjcxNTYyNSwxMTcuMDI1IEwyMDIuNDY4NzUsMTE3LjAyNSBDMjAxLjY5Mzc1LDExNy4wMjUgMjAxLjExMjUsMTE2LjM0Njg3NSAyMDEuMTEyNSwxMTUuNTcxODc1IEwyMDEuMTEyNSwxMTUuNTcxODc1IFoiIGZpbGw9IiNGM0YzRjMiLz4KICAgICAgICAgICAgICAgIDxwYXRoIGQ9Ik0yMDEuMDE1NjI1LDExNS41NzE4NzUgQzIwMS4wMTU2MjUsMTE0LjcgMjAxLjY5Mzc1LDExNC4wMjE4NzUgMjAyLjQ2ODc1LDExNC4wMjE4NzUgTDIyMi43MTU2MjUsMTE0LjAyMTg3NSBDMjIzLjQ5MDYyNSwxMTQuMDIxODc1IDIyNC4xNjg3NSwxMTQuNyAyMjQuMTY4NzUsMTE1LjU3MTg3NSBDMjI0LjE2ODc1LDExNi40NDM3NSAyMjMuNDkwNjI1LDExNy4xMjE4NzUgMjIyLjcxNTYyNSwxMTcuMTIxODc1IEwyMDIuNDY4NzUsMTE3LjEyMTg3NSBDMjAxLjY5Mzc1LDExNy4xMjE4NzUgMjAxLjAxNTYyNSwxMTYuNDQzNzUgMjAxLjAxNTYyNSwxMTUuNTcxODc1IEwyMDEuMDE1NjI1LDExNS41NzE4NzUgWiBNMjIzLjk3NSwxMTUuNjY4NzUgQzIyMy45NzUsMTE0Ljk5MDYyNSAyMjMuMzkzNzUsMTE0LjMxMjUgMjIyLjcxNTYyNSwxMTQuMzEyNSBMMjAyLjQ2ODc1LDExNC4zMTI1IEMyMDEuNzkwNjI1LDExNC4zMTI1IDIwMS4yMDkzNzUsMTE0Ljg5Mzc1IDIwMS4yMDkzNzUsMTE1LjY2ODc1IEMyMDEuMjA5Mzc1LDExNi4zNDY4NzUgMjAxLjc5MDYyNSwxMTcuMDI1IDIwMi40Njg3NSwxMTcuMDI1IEwyMjIuNzE1NjI1LDExNy4wMjUgQzIyMy4zOTM3NSwxMTYuOTI4MTI1IDIyMy45NzUsMTE2LjM0Njg3NSAyMjMuOTc1LDExNS42Njg3NSBMMjIzLjk3NSwxMTUuNjY4NzUgWiIgZmlsbD0iI0ZGRkZGRiIvPgogICAgICAgICAgICAgICAgPHBhdGggZD0iTTIxMS44NjU2MjUsMTI1LjM1NjI1IEMyMTEuOTYyNSwxMjQuNTgxMjUgMjEyLjU0Mzc1LDEyNCAyMTMuMzE4NzUsMTI0IEwyMjIuMzI4MTI1LDEyNC42NzgxMjUgQzIyMy4xMDMxMjUsMTI0Ljc3NSAyMjMuNjg0Mzc1LDEyNS40NTMxMjUgMjIzLjU4NzUsMTI2LjIyODEyNSBDMjIzLjQ5MDYyNSwxMjcuMDAzMTI1IDIyMi45MDkzNzUsMTI3LjU4NDM3NSAyMjIuMTM0Mzc1LDEyNy41ODQzNzUgTDIxMy4xMjUsMTI2LjkwNjI1IEMyMTIuNDQ2ODc1LDEyNi44MDkzNzUgMjExLjg2NTYyNSwxMjYuMTMxMjUgMjExLjg2NTYyNSwxMjUuMzU2MjUgTDIxMS44NjU2MjUsMTI1LjM1NjI1IFoiIGZpbGw9IiNGM0YzRjMiLz4KICAgICAgICAgICAgICAgIDxwYXRoIGQ9Ik0yMTEuNzY4NzUsMTI1LjM1NjI1IEMyMTEuODY1NjI1LDEyNC40ODQzNzUgMjEyLjU0Mzc1LDEyMy45MDMxMjUgMjEzLjMxODc1LDEyMy45MDMxMjUgTDIyMi4zMjgxMjUsMTI0LjU4MTI1IEMyMjMuMTAzMTI1LDEyNC42NzgxMjUgMjIzLjc4MTI1LDEyNS4zNTYyNSAyMjMuNjg0Mzc1LDEyNi4yMjgxMjUgQzIyMy41ODc1LDEyNy4xIDIyMi45MDkzNzUsMTI3LjY4MTI1IDIyMi4xMzQzNzUsMTI3LjY4MTI1IEwyMTMuMTI1LDEyNy4wMDMxMjUgQzIxMi4zNSwxMjYuOTA2MjUgMjExLjc2ODc1LDEyNi4xMzEyNSAyMTEuNzY4NzUsMTI1LjM1NjI1IEwyMTEuNzY4NzUsMTI1LjM1NjI1IFogTTIyMy41ODc1LDEyNi4yMjgxMjUgQzIyMy42ODQzNzUsMTI1LjU1IDIyMy4xMDMxMjUsMTI0Ljg3MTg3NSAyMjIuNDI1LDEyNC44NzE4NzUgTDIxMy40MTU2MjUsMTI0LjE5Mzc1IEMyMTIuNzM3NSwxMjQuMTkzNzUgMjEyLjE1NjI1LDEyNC42NzgxMjUgMjEyLjA1OTM3NSwxMjUuNDUzMTI1IEMyMTEuOTYyNSwxMjYuMTMxMjUgMjEyLjU0Mzc1LDEyNi44MDkzNzUgMjEzLjIyMTg3NSwxMjYuODA5Mzc1IEwyMjIuMjMxMjUsMTI3LjQ4NzUgQzIyMi45MDkzNzUsMTI3LjQ4NzUgMjIzLjQ5MDYyNSwxMjYuOTA2MjUgMjIzLjU4NzUsMTI2LjIyODEyNSBMMjIzLjU4NzUsMTI2LjIyODEyNSBaIiBmaWxsPSIjRkZGRkZGIi8+CiAgICAgICAgICAgICAgICA8cGF0aCBkPSJNMTk5LjM2ODc1LDEzMi40MjgxMjUgQzE5OS41NjI1LDEzMS42NTMxMjUgMjAwLjI0MDYyNSwxMzEuMTY4NzUgMjAxLjAxNTYyNSwxMzEuMjY1NjI1IEwyMjAuODc1LDEzNS4yMzc1IEMyMjEuNjUsMTM1LjQzMTI1IDIyMi4xMzQzNzUsMTM2LjEwOTM3NSAyMjEuOTQwNjI1LDEzNi44ODQzNzUgQzIyMS43NDY4NzUsMTM3LjY1OTM3NSAyMjEuMDY4NzUsMTM4LjE0Mzc1IDIyMC4yOTM3NSwxMzguMDQ2ODc1IEwyMDAuNDM0Mzc1LDEzNC4wNzUgQzE5OS43NTYyNSwxMzMuOTc4MTI1IDE5OS4yNzE4NzUsMTMzLjIwMzEyNSAxOTkuMzY4NzUsMTMyLjQyODEyNSBMMTk5LjM2ODc1LDEzMi40MjgxMjUgWiIgZmlsbD0iI0YzRjNGMyIvPgogICAgICAgICAgICAgICAgPHBhdGggZD0iTTE5OS4yNzE4NzUsMTMyLjQyODEyNSBDMTk5LjQ2NTYyNSwxMzEuNTU2MjUgMjAwLjI0MDYyNSwxMzEuMDcxODc1IDIwMS4wMTU2MjUsMTMxLjE2ODc1IEwyMjAuODc1LDEzNS4xNDA2MjUgQzIyMS42NSwxMzUuMzM0Mzc1IDIyMi4yMzEyNSwxMzYuMTA5Mzc1IDIyMi4wMzc1LDEzNi45ODEyNSBDMjIxLjg0Mzc1LDEzNy44NTMxMjUgMjIxLjA2ODc1LDEzOC4zMzc1IDIyMC4yOTM3NSwxMzguMjQwNjI1IEwyMDAuNDM0Mzc1LDEzNC4yNjg3NSBDMTk5LjY1OTM3NSwxMzQuMDc1IDE5OS4xNzUsMTMzLjMgMTk5LjI3MTg3NSwxMzIuNDI4MTI1IEwxOTkuMjcxODc1LDEzMi40MjgxMjUgWiBNMjIxLjg0Mzc1LDEzNi45ODEyNSBDMjIxLjk0MDYyNSwxMzYuMzAzMTI1IDIyMS41NTMxMjUsMTM1LjYyNSAyMjAuODc1LDEzNS40MzEyNSBMMjAxLjAxNTYyNSwxMzEuNDU5Mzc1IEMyMDAuMzM3NSwxMzEuMzYyNSAxOTkuNjU5Mzc1LDEzMS43NSAxOTkuNDY1NjI1LDEzMi41MjUgQzE5OS4zNjg3NSwxMzMuMjAzMTI1IDE5OS43NTYyNSwxMzMuODgxMjUgMjAwLjQzNDM3NSwxMzQuMDc1IEwyMjAuMjkzNzUsMTM4LjA0Njg3NSBDMjIxLjA2ODc1LDEzOC4xNDM3NSAyMjEuNjUsMTM3LjY1OTM3NSAyMjEuODQzNzUsMTM2Ljk4MTI1IEwyMjEuODQzNzUsMTM2Ljk4MTI1IFoiIGZpbGw9IiNGRkZGRkYiLz4KICAgICAgICAgICAgICAgIDxwYXRoIGQ9Ik0yMDguMDg3NSwxNDQuMDUzMTI1IEMyMDguMjgxMjUsMTQzLjI3ODEyNSAyMDkuMDU2MjUsMTQyLjc5Mzc1IDIwOS44MzEyNSwxNDIuOTg3NSBMMjE4LjU1LDE0NS40MDkzNzUgQzIxOS4zMjUsMTQ1LjYwMzEyNSAyMTkuNzEyNSwxNDYuMzc4MTI1IDIxOS41MTg3NSwxNDcuMTUzMTI1IEMyMTkuMzI1LDE0Ny45MjgxMjUgMjE4LjU1LDE0OC40MTI1IDIxNy43NzUsMTQ4LjIxODc1IEwyMDkuMDU2MjUsMTQ1Ljc5Njg3NSBDMjA4LjI4MTI1LDE0NS42MDMxMjUgMjA3Ljg5Mzc1LDE0NC44MjgxMjUgMjA4LjA4NzUsMTQ0LjA1MzEyNSBMMjA4LjA4NzUsMTQ0LjA1MzEyNSBaIiBmaWxsPSIjRjNGM0YzIi8+CiAgICAgICAgICAgICAgICA8cGF0aCBkPSJNMjA3Ljk5MDYyNSwxNDQuMDUzMTI1IEMyMDguMTg0Mzc1LDE0My4yNzgxMjUgMjA5LjA1NjI1LDE0Mi42OTY4NzUgMjA5LjgzMTI1LDE0Mi45ODc1IEwyMTguNTUsMTQ1LjQwOTM3NSBDMjE5LjMyNSwxNDUuNjAzMTI1IDIxOS44MDkzNzUsMTQ2LjQ3NSAyMTkuNjE1NjI1LDE0Ny4yNSBDMjE5LjQyMTg3NSwxNDguMDI1IDIxOC41NSwxNDguNjA2MjUgMjE3Ljc3NSwxNDguMzE1NjI1IEwyMDkuMDU2MjUsMTQ1Ljg5Mzc1IEMyMDguMjgxMjUsMTQ1LjcgMjA3Ljc5Njg3NSwxNDQuOTI1IDIwNy45OTA2MjUsMTQ0LjA1MzEyNSBMMjA3Ljk5MDYyNSwxNDQuMDUzMTI1IFogTTIxOS4zMjUsMTQ3LjI1IEMyMTkuNTE4NzUsMTQ2LjU3MTg3NSAyMTkuMTMxMjUsMTQ1Ljc5Njg3NSAyMTguNDUzMTI1LDE0NS42MDMxMjUgTDIwOS43MzQzNzUsMTQzLjE4MTI1IEMyMDkuMDU2MjUsMTQyLjk4NzUgMjA4LjM3ODEyNSwxNDMuMzc1IDIwOC4xODQzNzUsMTQ0LjE1IEMyMDcuOTkwNjI1LDE0NC44MjgxMjUgMjA4LjM3ODEyNSwxNDUuNjAzMTI1IDIwOS4wNTYyNSwxNDUuNzk2ODc1IEwyMTcuNzc1LDE0OC4yMTg3NSBDMjE4LjQ1MzEyNSwxNDguMzE1NjI1IDIxOS4xMzEyNSwxNDcuOTI4MTI1IDIxOS4zMjUsMTQ3LjI1IEwyMTkuMzI1LDE0Ny4yNSBaIiBmaWxsPSIjRkZGRkZGIi8+CiAgICAgICAgICAgICAgICA8cGF0aCBkPSJNMTk0LjQyODEyNSwxNDguNzAzMTI1IEMxOTQuNzE4NzUsMTQ3LjkyODEyNSAxOTUuNTkwNjI1LDE0Ny42Mzc1IDE5Ni4yNjg3NSwxNDcuOTI4MTI1IEwyMTQuOTY1NjI1LDE1NS42NzgxMjUgQzIxNS42NDM3NSwxNTUuOTY4NzUgMjE2LjAzMTI1LDE1Ni44NDA2MjUgMjE1Ljc0MDYyNSwxNTcuNTE4NzUgQzIxNS40NSwxNTguMjkzNzUgMjE0LjU3ODEyNSwxNTguNTg0Mzc1IDIxMy45LDE1OC4yOTM3NSBMMTk1LjIwMzEyNSwxNTAuNTQzNzUgQzE5NC40MjgxMjUsMTUwLjI1MzEyNSAxOTQuMTM3NSwxNDkuMzgxMjUgMTk0LjQyODEyNSwxNDguNzAzMTI1IEwxOTQuNDI4MTI1LDE0OC43MDMxMjUgWiIgZmlsbD0iI0YzRjNGMyIvPgogICAgICAgICAgICAgICAgPHBhdGggZD0iTTE5NC4zMzEyNSwxNDguNjA2MjUgQzE5NC42MjE4NzUsMTQ3LjgzMTI1IDE5NS40OTM3NSwxNDcuNDQzNzUgMTk2LjI2ODc1LDE0Ny43MzQzNzUgTDIxNC45NjU2MjUsMTU1LjQ4NDM3NSBDMjE1Ljc0MDYyNSwxNTUuNzc1IDIxNi4wMzEyNSwxNTYuNjQ2ODc1IDIxNS43NDA2MjUsMTU3LjUxODc1IEMyMTUuNDUsMTU4LjI5Mzc1IDIxNC41NzgxMjUsMTU4LjY4MTI1IDIxMy44MDMxMjUsMTU4LjM5MDYyNSBMMTk1LjEwNjI1LDE1MC42NDA2MjUgQzE5NC4zMzEyNSwxNTAuMjUzMTI1IDE5NC4wNDA2MjUsMTQ5LjM4MTI1IDE5NC4zMzEyNSwxNDguNjA2MjUgTDE5NC4zMzEyNSwxNDguNjA2MjUgWiBNMjE1LjU0Njg3NSwxNTcuNDIxODc1IEMyMTUuODM3NSwxNTYuNzQzNzUgMjE1LjU0Njg3NSwxNTUuOTY4NzUgMjE0Ljg2ODc1LDE1NS42NzgxMjUgTDE5Ni4xNzE4NzUsMTQ3LjkyODEyNSBDMTk1LjQ5Mzc1LDE0Ny42Mzc1IDE5NC44MTU2MjUsMTQ4LjAyNSAxOTQuNTI1LDE0OC43MDMxMjUgQzE5NC4yMzQzNzUsMTQ5LjM4MTI1IDE5NC41MjUsMTUwLjE1NjI1IDE5NS4yMDMxMjUsMTUwLjQ0Njg3NSBMMjEzLjksMTU4LjE5Njg3NSBDMjE0LjU3ODEyNSwxNTguMzkwNjI1IDIxNS4zNTMxMjUsMTU4LjEgMjE1LjU0Njg3NSwxNTcuNDIxODc1IEwyMTUuNTQ2ODc1LDE1Ny40MjE4NzUgWiIgZmlsbD0iI0ZGRkZGRiIvPgogICAgICAgICAgICAgICAgPHBhdGggZD0iTTIwMC43MjUsMTYxLjc4MTI1IEMyMDEuMTEyNSwxNjEuMTAzMTI1IDIwMS44ODc1LDE2MC44MTI1IDIwMi41NjU2MjUsMTYxLjEwMzEyNSBMMjEwLjYwNjI1LDE2NS4xNzE4NzUgQzIxMS4yODQzNzUsMTY1LjQ2MjUgMjExLjU3NSwxNjYuMzM0Mzc1IDIxMS4xODc1LDE2Ny4xMDkzNzUgQzIxMC44LDE2Ny43ODc1IDIxMC4wMjUsMTY4LjA3ODEyNSAyMDkuMzQ2ODc1LDE2Ny43ODc1IEwyMDEuMzA2MjUsMTYzLjcxODc1IEMyMDAuNjI4MTI1LDE2My4zMzEyNSAyMDAuMzM3NSwxNjIuNDU5Mzc1IDIwMC43MjUsMTYxLjc4MTI1IEwyMDAuNzI1LDE2MS43ODEyNSBaIiBmaWxsPSIjRjNGM0YzIi8+CiAgICAgICAgICAgICAgICA8cGF0aCBkPSJNMjAwLjYyODEyNSwxNjEuNjg0Mzc1IEMyMDEuMDE1NjI1LDE2MC45MDkzNzUgMjAxLjg4NzUsMTYwLjYxODc1IDIwMi42NjI1LDE2MS4wMDYyNSBMMjEwLjcwMzEyNSwxNjUuMDc1IEMyMTEuNDc4MTI1LDE2NS40NjI1IDIxMS43Njg3NSwxNjYuMzM0Mzc1IDIxMS4zODEyNSwxNjcuMTA5Mzc1IEMyMTAuOTkzNzUsMTY3Ljg4NDM3NSAyMTAuMTIxODc1LDE2OC4xNzUgMjA5LjM0Njg3NSwxNjcuNzg3NSBMMjAxLjMwNjI1LDE2My43MTg3NSBDMjAwLjUzMTI1LDE2My40MjgxMjUgMjAwLjI0MDYyNSwxNjIuNDU5Mzc1IDIwMC42MjgxMjUsMTYxLjY4NDM3NSBMMjAwLjYyODEyNSwxNjEuNjg0Mzc1IFogTTIxMS4wOTA2MjUsMTY3LjAxMjUgQzIxMS4zODEyNSwxNjYuMzM0Mzc1IDIxMS4xODc1LDE2NS41NTkzNzUgMjEwLjUwOTM3NSwxNjUuMjY4NzUgTDIwMi40Njg3NSwxNjEuMiBDMjAxLjg4NzUsMTYwLjkwOTM3NSAyMDEuMTEyNSwxNjEuMiAyMDAuNzI1LDE2MS43ODEyNSBDMjAwLjQzNDM3NSwxNjIuNDU5Mzc1IDIwMC42MjgxMjUsMTYzLjIzNDM3NSAyMDEuMzA2MjUsMTYzLjUyNSBMMjA5LjM0Njg3NSwxNjcuNTkzNzUgQzIxMC4wMjUsMTY3Ljg4NDM3NSAyMTAuOCwxNjcuNjkwNjI1IDIxMS4wOTA2MjUsMTY3LjAxMjUgTDIxMS4wOTA2MjUsMTY3LjAxMjUgWiIgZmlsbD0iI0ZGRkZGRiIvPgogICAgICAgICAgICAgICAgPHBhdGggZD0iTTE4Ni40ODQzNzUsMTYzLjYyMTg3NSBDMTg2Ljk2ODc1LDE2Mi45NDM3NSAxODcuNzQzNzUsMTYyLjc1IDE4OC40MjE4NzUsMTYzLjIzNDM3NSBMMjA1LjI3ODEyNSwxNzQuNDcxODc1IEMyMDUuOTU2MjUsMTc0Ljg1OTM3NSAyMDYuMDUzMTI1LDE3NS43MzEyNSAyMDUuNjY1NjI1LDE3Ni40MDkzNzUgQzIwNS4xODEyNSwxNzcuMDg3NSAyMDQuNDA2MjUsMTc3LjI4MTI1IDIwMy43MjgxMjUsMTc2Ljc5Njg3NSBMMTg2Ljg3MTg3NSwxNjUuNTU5Mzc1IEMxODYuMTkzNzUsMTY1LjA3NSAxODYsMTY0LjIwMzEyNSAxODYuNDg0Mzc1LDE2My42MjE4NzUgTDE4Ni40ODQzNzUsMTYzLjYyMTg3NSBaIiBmaWxsPSIjRjNGM0YzIi8+CiAgICAgICAgICAgICAgICA8cGF0aCBkPSJNMTg2LjM4NzUsMTYzLjUyNSBDMTg2Ljg3MTg3NSwxNjIuODQ2ODc1IDE4Ny44NDA2MjUsMTYyLjY1MzEyNSAxODguNTE4NzUsMTYzLjA0MDYyNSBMMjA1LjM3NSwxNzQuMjc4MTI1IEMyMDYuMDUzMTI1LDE3NC43NjI1IDIwNi4yNDY4NzUsMTc1LjYzNDM3NSAyMDUuNzYyNSwxNzYuNDA5Mzc1IEMyMDUuMjc4MTI1LDE3Ny4wODc1IDIwNC4zMDkzNzUsMTc3LjI4MTI1IDIwMy42MzEyNSwxNzYuODkzNzUgTDE4Ni43NzUsMTY1LjY1NjI1IEMxODYsMTY1LjE3MTg3NSAxODUuOTAzMTI1LDE2NC4yMDMxMjUgMTg2LjM4NzUsMTYzLjUyNSBMMTg2LjM4NzUsMTYzLjUyNSBaIE0yMDUuNDcxODc1LDE3Ni4zMTI1IEMyMDUuODU5Mzc1LDE3NS43MzEyNSAyMDUuNzYyNSwxNzQuODU5Mzc1IDIwNS4xODEyNSwxNzQuNDcxODc1IEwxODguMzI1LDE2My4yMzQzNzUgQzE4Ny43NDM3NSwxNjIuODQ2ODc1IDE4Ni45Njg3NSwxNjMuMDQwNjI1IDE4Ni41ODEyNSwxNjMuNjIxODc1IEMxODYuMTkzNzUsMTY0LjIwMzEyNSAxODYuMjkwNjI1LDE2NS4wNzUgMTg2Ljg3MTg3NSwxNjUuNDYyNSBMMjAzLjcyODEyNSwxNzYuNyBDMjA0LjMwOTM3NSwxNzcuMDg3NSAyMDUuMDg0Mzc1LDE3Ni44OTM3NSAyMDUuNDcxODc1LDE3Ni4zMTI1IEwyMDUuNDcxODc1LDE3Ni4zMTI1IFoiIGZpbGw9IiNGRkZGRkYiLz4KICAgICAgICAgICAgICAgIDxwYXRoIGQ9Ik0xOTAuMDY4NzUsMTc3LjY2ODc1IEMxOTAuNTUzMTI1LDE3Ny4wODc1IDE5MS40MjUsMTc2Ljg5Mzc1IDE5Mi4wMDYyNSwxNzcuMzc4MTI1IEwxOTkuMDc4MTI1LDE4Mi45IEMxOTkuNjU5Mzc1LDE4My4zODQzNzUgMTk5Ljc1NjI1LDE4NC4yNTYyNSAxOTkuMjcxODc1LDE4NC44Mzc1IEMxOTguNzg3NSwxODUuNDE4NzUgMTk3LjkxNTYyNSwxODUuNjEyNSAxOTcuMzM0Mzc1LDE4NS4xMjgxMjUgTDE5MC4yNjI1LDE3OS42MDYyNSBDMTg5LjY4MTI1LDE3OS4xMjE4NzUgMTg5LjU4NDM3NSwxNzguMjUgMTkwLjA2ODc1LDE3Ny42Njg3NSBMMTkwLjA2ODc1LDE3Ny42Njg3NSBaIiBmaWxsPSIjRjNGM0YzIi8+CiAgICAgICAgICAgICAgICA8cGF0aCBkPSJNMTg5Ljk3MTg3NSwxNzcuNTcxODc1IEMxOTAuNDU2MjUsMTc2Ljg5Mzc1IDE5MS40MjUsMTc2Ljc5Njg3NSAxOTIuMTAzMTI1LDE3Ny4yODEyNSBMMTk5LjE3NSwxODIuODAzMTI1IEMxOTkuODUzMTI1LDE4My4yODc1IDE5OS45NSwxODQuMjU2MjUgMTk5LjQ2NTYyNSwxODQuOTM0Mzc1IEMxOTguOTgxMjUsMTg1LjYxMjUgMTk4LjAxMjUsMTg1LjcwOTM3NSAxOTcuMzM0Mzc1LDE4NS4yMjUgTDE5MC4yNjI1LDE3OS43MDMxMjUgQzE4OS41ODQzNzUsMTc5LjIxODc1IDE4OS40ODc1LDE3OC4yNSAxODkuOTcxODc1LDE3Ny41NzE4NzUgTDE4OS45NzE4NzUsMTc3LjU3MTg3NSBaIE0xOTkuMjcxODc1LDE4NC44Mzc1IEMxOTkuNzU2MjUsMTg0LjI1NjI1IDE5OS42NTkzNzUsMTgzLjQ4MTI1IDE5OS4wNzgxMjUsMTgyLjk5Njg3NSBMMTkyLjAwNjI1LDE3Ny40NzUgQzE5MS40MjUsMTc3LjA4NzUgMTkwLjY1LDE3Ny4xODQzNzUgMTkwLjE2NTYyNSwxNzcuNzY1NjI1IEMxODkuNjgxMjUsMTc4LjM0Njg3NSAxODkuNzc4MTI1LDE3OS4xMjE4NzUgMTkwLjM1OTM3NSwxNzkuNjA2MjUgTDE5Ny40MzEyNSwxODUuMTI4MTI1IEMxOTguMDEyNSwxODUuNTE1NjI1IDE5OC43ODc1LDE4NS40MTg3NSAxOTkuMjcxODc1LDE4NC44Mzc1IEwxOTkuMjcxODc1LDE4NC44Mzc1IFoiIGZpbGw9IiNGRkZGRkYiLz4KICAgICAgICAgICAgICAgIDxwYXRoIGQ9Ik0xNzUuNjM0Mzc1LDE3Ni43IEMxNzYuMjE1NjI1LDE3Ni4xMTg3NSAxNzcuMDg3NSwxNzYuMTE4NzUgMTc3LjU3MTg3NSwxNzYuNyBMMTkxLjkwOTM3NSwxOTAuOTQwNjI1IEMxOTIuNDkwNjI1LDE5MS41MjE4NzUgMTkyLjM5Mzc1LDE5Mi4zOTM3NSAxOTEuOTA5Mzc1LDE5Mi44NzgxMjUgQzE5MS4zMjgxMjUsMTkzLjQ1OTM3NSAxOTAuNDU2MjUsMTkzLjQ1OTM3NSAxODkuOTcxODc1LDE5Mi44NzgxMjUgTDE3NS42MzQzNzUsMTc4LjYzNzUgQzE3NS4xNSwxNzguMTUzMTI1IDE3NS4xNSwxNzcuMTg0Mzc1IDE3NS42MzQzNzUsMTc2LjcgTDE3NS42MzQzNzUsMTc2LjcgWiIgZmlsbD0iI0YzRjNGMyIvPgogICAgICAgICAgICAgICAgPHBhdGggZD0iTTE3NS42MzQzNzUsMTc2LjYwMzEyNSBDMTc2LjIxNTYyNSwxNzYuMDIxODc1IDE3Ny4xODQzNzUsMTc2LjAyMTg3NSAxNzcuNzY1NjI1LDE3Ni42MDMxMjUgTDE5Mi4xMDMxMjUsMTkwLjg0Mzc1IEMxOTIuNjg0Mzc1LDE5MS40MjUgMTkyLjY4NDM3NSwxOTIuMzkzNzUgMTkyLjEwMzEyNSwxOTIuOTc1IEMxOTEuNTIxODc1LDE5My41NTYyNSAxOTAuNTUzMTI1LDE5My41NTYyNSAxODkuOTcxODc1LDE5Mi45NzUgTDE3NS42MzQzNzUsMTc4LjczNDM3NSBDMTc0Ljk1NjI1LDE3OC4xNTMxMjUgMTc0Ljk1NjI1LDE3Ny4xODQzNzUgMTc1LjYzNDM3NSwxNzYuNjAzMTI1IEwxNzUuNjM0Mzc1LDE3Ni42MDMxMjUgWiBNMTkxLjkwOTM3NSwxOTIuNzgxMjUgQzE5Mi4zOTM3NSwxOTIuMjk2ODc1IDE5Mi4zOTM3NSwxOTEuNDI1IDE5MS45MDkzNzUsMTkwLjk0MDYyNSBMMTc3LjU3MTg3NSwxNzYuNyBDMTc3LjA4NzUsMTc2LjIxNTYyNSAxNzYuMjE1NjI1LDE3Ni4yMTU2MjUgMTc1LjczMTI1LDE3Ni43IEMxNzUuMjQ2ODc1LDE3Ny4xODQzNzUgMTc1LjI0Njg3NSwxNzguMDU2MjUgMTc1LjczMTI1LDE3OC41NDA2MjUgTDE5MC4wNjg3NSwxOTIuNzgxMjUgQzE5MC41NTMxMjUsMTkzLjM2MjUgMTkxLjMyODEyNSwxOTMuMzYyNSAxOTEuOTA5Mzc1LDE5Mi43ODEyNSBMMTkxLjkwOTM3NSwxOTIuNzgxMjUgWiIgZmlsbD0iI0ZGRkZGRiIvPgogICAgICAgICAgICAgICAgPHBhdGggZD0iTTE3Ni41MDYyNSwxOTEuMTM0Mzc1IEMxNzcuMDg3NSwxOTAuNjUgMTc3Ljk1OTM3NSwxOTAuNjUgMTc4LjQ0Mzc1LDE5MS4yMzEyNSBMMTg0LjM1MzEyNSwxOTguMDEyNSBDMTg0LjgzNzUsMTk4LjU5Mzc1IDE4NC43NDA2MjUsMTk5LjQ2NTYyNSAxODQuMTU5Mzc1LDE5OS45NSBDMTgzLjU3ODEyNSwyMDAuNDM0Mzc1IDE4Mi43MDYyNSwyMDAuNDM0Mzc1IDE4Mi4yMjE4NzUsMTk5Ljg1MzEyNSBMMTc2LjMxMjUsMTkzLjA3MTg3NSBDMTc1LjgyODEyNSwxOTIuNTg3NSAxNzUuOTI1LDE5MS43MTU2MjUgMTc2LjUwNjI1LDE5MS4xMzQzNzUgTDE3Ni41MDYyNSwxOTEuMTM0Mzc1IFoiIGZpbGw9IiNGM0YzRjMiLz4KICAgICAgICAgICAgICAgIDxwYXRoIGQ9Ik0xNzYuNDA5Mzc1LDE5MS4xMzQzNzUgQzE3Ny4wODc1LDE5MC41NTMxMjUgMTc3Ljk1OTM3NSwxOTAuNjUgMTc4LjU0MDYyNSwxOTEuMjMxMjUgTDE4NC40NSwxOTguMDEyNSBDMTg1LjAzMTI1LDE5OC41OTM3NSAxODQuOTM0Mzc1LDE5OS41NjI1IDE4NC4yNTYyNSwyMDAuMTQzNzUgQzE4My41NzgxMjUsMjAwLjcyNSAxODIuNzA2MjUsMjAwLjYyODEyNSAxODIuMTI1LDIwMC4wNDY4NzUgTDE3Ni4yMTU2MjUsMTkzLjI2NTYyNSBDMTc1LjczMTI1LDE5Mi41ODc1IDE3NS43MzEyNSwxOTEuNjE4NzUgMTc2LjQwOTM3NSwxOTEuMTM0Mzc1IEwxNzYuNDA5Mzc1LDE5MS4xMzQzNzUgWiBNMTg0LjE1OTM3NSwxOTkuOTUgQzE4NC43NDA2MjUsMTk5LjQ2NTYyNSAxODQuNzQwNjI1LDE5OC42OTA2MjUgMTg0LjM1MzEyNSwxOTguMTA5Mzc1IEwxNzguNDQzNzUsMTkxLjMyODEyNSBDMTc3Ljk1OTM3NSwxOTAuODQzNzUgMTc3LjE4NDM3NSwxOTAuNzQ2ODc1IDE3Ni42MDMxMjUsMTkxLjIzMTI1IEMxNzYuMDIxODc1LDE5MS43MTU2MjUgMTc2LjAyMTg3NSwxOTIuNDkwNjI1IDE3Ni40MDkzNzUsMTkzLjA3MTg3NSBMMTgyLjMxODc1LDE5OS44NTMxMjUgQzE4Mi44MDMxMjUsMjAwLjQzNDM3NSAxODMuNTc4MTI1LDIwMC40MzQzNzUgMTg0LjE1OTM3NSwxOTkuOTUgTDE4NC4xNTkzNzUsMTk5Ljk1IFoiIGZpbGw9IiNGRkZGRkYiLz4KICAgICAgICAgICAgICAgIDxwYXRoIGQ9Ik0xNjIuNTU2MjUsMTg3LjQ1MzEyNSBDMTYzLjIzNDM3NSwxODYuOTY4NzUgMTY0LjEwNjI1LDE4Ny4xNjI1IDE2NC40OTM3NSwxODcuODQwNjI1IEwxNzUuNzMxMjUsMjA0LjYgQzE3Ni4xMTg3NSwyMDUuMjc4MTI1IDE3NS45MjUsMjA2LjE1IDE3NS4zNDM3NSwyMDYuNTM3NSBDMTc0LjY2NTYyNSwyMDcuMDIxODc1IDE3My43OTM3NSwyMDYuODI4MTI1IDE3My40MDYyNSwyMDYuMTUgTDE2Mi4xNjg3NSwxODkuMzkwNjI1IEMxNjEuNzgxMjUsMTg4LjcxMjUgMTYxLjk3NSwxODcuODQwNjI1IDE2Mi41NTYyNSwxODcuNDUzMTI1IEwxNjIuNTU2MjUsMTg3LjQ1MzEyNSBaIiBmaWxsPSIjRjNGM0YzIi8+CiAgICAgICAgICAgICAgICA8cGF0aCBkPSJNMTYyLjU1NjI1LDE4Ny4zNTYyNSBDMTYzLjIzNDM3NSwxODYuODcxODc1IDE2NC4yMDMxMjUsMTg3LjA2NTYyNSAxNjQuNjg3NSwxODcuNzQzNzUgTDE3NS45MjUsMjA0LjUwMzEyNSBDMTc2LjQwOTM3NSwyMDUuMTgxMjUgMTc2LjIxNTYyNSwyMDYuMTUgMTc1LjQ0MDYyNSwyMDYuNjM0Mzc1IEMxNzQuNzYyNSwyMDcuMTE4NzUgMTczLjc5Mzc1LDIwNi45MjUgMTczLjMwOTM3NSwyMDYuMjQ2ODc1IEwxNjIuMDcxODc1LDE4OS40ODc1IEMxNjEuNTg3NSwxODguNzEyNSAxNjEuNzgxMjUsMTg3Ljg0MDYyNSAxNjIuNTU2MjUsMTg3LjM1NjI1IEwxNjIuNTU2MjUsMTg3LjM1NjI1IFogTTE3NS4zNDM3NSwyMDYuNDQwNjI1IEMxNzUuOTI1LDIwNi4wNTMxMjUgMTc2LjExODc1LDIwNS4yNzgxMjUgMTc1LjczMTI1LDIwNC42OTY4NzUgTDE2NC40OTM3NSwxODcuOTM3NSBDMTY0LjEwNjI1LDE4Ny4zNTYyNSAxNjMuMzMxMjUsMTg3LjI1OTM3NSAxNjIuNjUzMTI1LDE4Ny42NDY4NzUgQzE2Mi4wNzE4NzUsMTg4LjAzNDM3NSAxNjEuODc4MTI1LDE4OC44MDkzNzUgMTYyLjI2NTYyNSwxODkuMzkwNjI1IEwxNzMuNTAzMTI1LDIwNi4xNSBDMTczLjg5MDYyNSwyMDYuNjM0Mzc1IDE3NC43NjI1LDIwNi44MjgxMjUgMTc1LjM0Mzc1LDIwNi40NDA2MjUgTDE3NS4zNDM3NSwyMDYuNDQwNjI1IFoiIGZpbGw9IiNGRkZGRkYiLz4KICAgICAgICAgICAgICAgIDxwYXRoIGQ9Ik0xNjAuNTIxODc1LDIwMS43OTA2MjUgQzE2MS4yLDIwMS40MDMxMjUgMTYyLjA3MTg3NSwyMDEuNTk2ODc1IDE2Mi40NTkzNzUsMjAyLjI3NSBMMTY2LjkxNTYyNSwyMTAuMTIxODc1IEMxNjcuMzAzMTI1LDIxMC44IDE2Ny4wMTI1LDIxMS42NzE4NzUgMTY2LjMzNDM3NSwyMTIuMDU5Mzc1IEMxNjUuNjU2MjUsMjEyLjQ0Njg3NSAxNjQuNzg0Mzc1LDIxMi4yNTMxMjUgMTY0LjM5Njg3NSwyMTEuNTc1IEwxNTkuOTQwNjI1LDIwMy43MjgxMjUgQzE1OS42NSwyMDMuMDUgMTU5Ljg0Mzc1LDIwMi4xNzgxMjUgMTYwLjUyMTg3NSwyMDEuNzkwNjI1IEwxNjAuNTIxODc1LDIwMS43OTA2MjUgWiIgZmlsbD0iI0YzRjNGMyIvPgogICAgICAgICAgICAgICAgPHBhdGggZD0iTTE2MC41MjE4NzUsMjAxLjY5Mzc1IEMxNjEuMjk2ODc1LDIwMS4zMDYyNSAxNjIuMTY4NzUsMjAxLjUgMTYyLjU1NjI1LDIwMi4xNzgxMjUgTDE2Ny4wMTI1LDIxMC4wMjUgQzE2Ny40LDIxMC43MDMxMjUgMTY3LjIwNjI1LDIxMS42NzE4NzUgMTY2LjQzMTI1LDIxMi4wNTkzNzUgQzE2NS42NTYyNSwyMTIuNDQ2ODc1IDE2NC43ODQzNzUsMjEyLjI1MzEyNSAxNjQuMzk2ODc1LDIxMS41NzUgTDE1OS45NDA2MjUsMjAzLjcyODEyNSBDMTU5LjU1MzEyNSwyMDMuMDUgMTU5Ljc0Njg3NSwyMDIuMTc4MTI1IDE2MC41MjE4NzUsMjAxLjY5Mzc1IEwxNjAuNTIxODc1LDIwMS42OTM3NSBaIE0xNjYuMzM0Mzc1LDIxMS45NjI1IEMxNjYuOTE1NjI1LDIxMS41NzUgMTY3LjIwNjI1LDIxMC44IDE2Ni44MTg3NSwyMTAuMjE4NzUgTDE2Mi4zNjI1LDIwMi4zNzE4NzUgQzE2MS45NzUsMjAxLjc5MDYyNSAxNjEuMiwyMDEuNTk2ODc1IDE2MC42MTg3NSwyMDEuODg3NSBDMTYwLjAzNzUsMjAyLjI3NSAxNTkuNzQ2ODc1LDIwMy4wNSAxNjAuMTM0Mzc1LDIwMy42MzEyNSBMMTY0LjU5MDYyNSwyMTEuNDc4MTI1IEMxNjQuODgxMjUsMjEyLjA1OTM3NSAxNjUuNzUzMTI1LDIxMi4zNSAxNjYuMzM0Mzc1LDIxMS45NjI1IEwxNjYuMzM0Mzc1LDIxMS45NjI1IFoiIGZpbGw9IiNGRkZGRkYiLz4KICAgICAgICAgICAgICAgIDxwYXRoIGQ9Ik0xNDcuNjM3NSwxOTUuMzk2ODc1IEMxNDguNDEyNSwxOTUuMTA2MjUgMTQ5LjE4NzUsMTk1LjM5Njg3NSAxNDkuNDc4MTI1LDE5Ni4wNzUgTDE1Ny4zMjUsMjE0Ljc3MTg3NSBDMTU3LjYxNTYyNSwyMTUuNDUgMTU3LjIyODEyNSwyMTYuMzIxODc1IDE1Ni41NSwyMTYuNjEyNSBDMTU1Ljg3MTg3NSwyMTYuOTAzMTI1IDE1NSwyMTYuNjEyNSAxNTQuNzA5Mzc1LDIxNS45MzQzNzUgTDE0Ni44NjI1LDE5Ny4yMzc1IEMxNDYuNTcxODc1LDE5Ni41NTkzNzUgMTQ2Ljk1OTM3NSwxOTUuNjg3NSAxNDcuNjM3NSwxOTUuMzk2ODc1IEwxNDcuNjM3NSwxOTUuMzk2ODc1IFoiIGZpbGw9IiNGM0YzRjMiLz4KICAgICAgICAgICAgICAgIDxwYXRoIGQ9Ik0xNDcuNjM3NSwxOTUuMyBDMTQ4LjQxMjUsMTk1LjAwOTM3NSAxNDkuMjg0Mzc1LDE5NS4zIDE0OS42NzE4NzUsMTk2LjA3NSBMMTU3LjUxODc1LDIxNC43NzE4NzUgQzE1Ny44MDkzNzUsMjE1LjU0Njg3NSAxNTcuNDIxODc1LDIxNi40MTg3NSAxNTYuNjQ2ODc1LDIxNi43MDkzNzUgQzE1NS44NzE4NzUsMjE3IDE1NSwyMTYuNzA5Mzc1IDE1NC42MTI1LDIxNS45MzQzNzUgTDE0Ni43NjU2MjUsMTk3LjIzNzUgQzE0Ni40NzUsMTk2LjU1OTM3NSAxNDYuODYyNSwxOTUuNjg3NSAxNDcuNjM3NSwxOTUuMyBMMTQ3LjYzNzUsMTk1LjMgWiBNMTU2LjQ1MzEyNSwyMTYuNTE1NjI1IEMxNTcuMTMxMjUsMjE2LjIyNSAxNTcuNDIxODc1LDIxNS40NSAxNTcuMTMxMjUsMjE0Ljg2ODc1IEwxNDkuMjg0Mzc1LDE5Ni4xNzE4NzUgQzE0OC45OTM3NSwxOTUuNDkzNzUgMTQ4LjIxODc1LDE5NS4yMDMxMjUgMTQ3LjU0MDYyNSwxOTUuNDkzNzUgQzE0Ni44NjI1LDE5NS43ODQzNzUgMTQ2LjU3MTg3NSwxOTYuNTU5Mzc1IDE0Ni44NjI1LDE5Ny4xNDA2MjUgTDE1NC43MDkzNzUsMjE1LjgzNzUgQzE1NS4wOTY4NzUsMjE2LjUxNTYyNSAxNTUuNzc1LDIxNi44MDYyNSAxNTYuNDUzMTI1LDIxNi41MTU2MjUgTDE1Ni40NTMxMjUsMjE2LjUxNTYyNSBaIiBmaWxsPSIjRkZGRkZGIi8+CiAgICAgICAgICAgICAgICA8cGF0aCBkPSJNMTQyLjg5MDYyNSwyMDkuMTUzMTI1IEMxNDMuNjY1NjI1LDIwOC44NjI1IDE0NC40NDA2MjUsMjA5LjI1IDE0NC43MzEyNSwyMTAuMDI1IEwxNDcuNTQwNjI1LDIxOC41NSBDMTQ3LjgzMTI1LDIxOS4yMjgxMjUgMTQ3LjM0Njg3NSwyMjAuMSAxNDYuNjY4NzUsMjIwLjI5Mzc1IEMxNDUuODkzNzUsMjIwLjU4NDM3NSAxNDUuMTE4NzUsMjIwLjE5Njg3NSAxNDQuODI4MTI1LDIxOS40MjE4NzUgTDE0Mi4wMTg3NSwyMTAuODk2ODc1IEMxNDEuNzI4MTI1LDIxMC4yMTg3NSAxNDIuMTE1NjI1LDIwOS40NDM3NSAxNDIuODkwNjI1LDIwOS4xNTMxMjUgTDE0Mi44OTA2MjUsMjA5LjE1MzEyNSBaIiBmaWxsPSIjRjNGM0YzIi8+CiAgICAgICAgICAgICAgICA8cGF0aCBkPSJNMTQyLjc5Mzc1LDIwOS4wNTYyNSBDMTQzLjU2ODc1LDIwOC43NjU2MjUgMTQ0LjQ0MDYyNSwyMDkuMTUzMTI1IDE0NC43MzEyNSwyMDkuOTI4MTI1IEwxNDcuNTQwNjI1LDIxOC40NTMxMjUgQzE0Ny44MzEyNSwyMTkuMjI4MTI1IDE0Ny4zNDY4NzUsMjIwLjEgMTQ2LjU3MTg3NSwyMjAuMzkwNjI1IEMxNDUuNzk2ODc1LDIyMC42ODEyNSAxNDQuOTI1LDIyMC4yOTM3NSAxNDQuNjM0Mzc1LDIxOS41MTg3NSBMMTQxLjgyNSwyMTAuOTkzNzUgQzE0MS42MzEyNSwyMTAuMjE4NzUgMTQyLjAxODc1LDIwOS4zNDY4NzUgMTQyLjc5Mzc1LDIwOS4wNTYyNSBMMTQyLjc5Mzc1LDIwOS4wNTYyNSBaIE0xNDYuNTcxODc1LDIyMC4xOTY4NzUgQzE0Ny4yNSwyMjAuMDAzMTI1IDE0Ny42Mzc1LDIxOS4yMjgxMjUgMTQ3LjQ0Mzc1LDIxOC41NSBMMTQ0LjYzNDM3NSwyMTAuMDI1IEMxNDQuNDQwNjI1LDIwOS4zNDY4NzUgMTQzLjY2NTYyNSwyMDkuMDU2MjUgMTQyLjk4NzUsMjA5LjI1IEMxNDIuMzA5Mzc1LDIwOS40NDM3NSAxNDEuOTIxODc1LDIxMC4yMTg3NSAxNDIuMTE1NjI1LDIxMC44OTY4NzUgTDE0NC45MjUsMjE5LjQyMTg3NSBDMTQ1LjExODc1LDIyMC4xIDE0NS44OTM3NSwyMjAuNDg3NSAxNDYuNTcxODc1LDIyMC4xOTY4NzUgTDE0Ni41NzE4NzUsMjIwLjE5Njg3NSBaIiBmaWxsPSIjRkZGRkZGIi8+CiAgICAgICAgICAgICAgICA8cGF0aCBkPSJNMTMxLjQ1OTM3NSwyMDAuMzM3NSBDMTMyLjIzNDM3NSwyMDAuMTQzNzUgMTMzLjAwOTM3NSwyMDAuNjI4MTI1IDEzMy4xMDYyNSwyMDEuNDAzMTI1IEwxMzcuMTc1LDIyMS4yNjI1IEMxMzcuMzY4NzUsMjIyLjAzNzUgMTM2Ljc4NzUsMjIyLjcxNTYyNSAxMzYuMDEyNSwyMjIuOTA5Mzc1IEMxMzUuMjM3NSwyMjMuMTAzMTI1IDEzNC40NjI1LDIyMi42MTg3NSAxMzQuMzY1NjI1LDIyMS44NDM3NSBMMTMwLjI5Njg3NSwyMDEuOTg0Mzc1IEMxMzAuMiwyMDEuMzA2MjUgMTMwLjY4NDM3NSwyMDAuNTMxMjUgMTMxLjQ1OTM3NSwyMDAuMzM3NSBMMTMxLjQ1OTM3NSwyMDAuMzM3NSBaIiBmaWxsPSIjRjNGM0YzIi8+CiAgICAgICAgICAgICAgICA8cGF0aCBkPSJNMTMxLjQ1OTM3NSwyMDAuMjQwNjI1IEMxMzIuMzMxMjUsMjAwLjA0Njg3NSAxMzMuMTA2MjUsMjAwLjYyODEyNSAxMzMuMywyMDEuNDAzMTI1IEwxMzcuMzY4NzUsMjIxLjI2MjUgQzEzNy41NjI1LDIyMi4wMzc1IDEzNi45ODEyNSwyMjIuOTA5Mzc1IDEzNi4yMDYyNSwyMjMuMDA2MjUgQzEzNS4zMzQzNzUsMjIzLjIgMTM0LjU1OTM3NSwyMjIuNjE4NzUgMTM0LjM2NTYyNSwyMjEuODQzNzUgTDEzMC4yOTY4NzUsMjAxLjk4NDM3NSBDMTMwLjEwMzEyNSwyMDEuMjA5Mzc1IDEzMC41ODc1LDIwMC40MzQzNzUgMTMxLjQ1OTM3NSwyMDAuMjQwNjI1IEwxMzEuNDU5Mzc1LDIwMC4yNDA2MjUgWiBNMTM2LjAxMjUsMjIyLjgxMjUgQzEzNi42OTA2MjUsMjIyLjcxNTYyNSAxMzcuMTc1LDIyMi4wMzc1IDEzNy4wNzgxMjUsMjIxLjI2MjUgTDEzMy4wMDkzNzUsMjAxLjQwMzEyNSBDMTMyLjkxMjUsMjAwLjcyNSAxMzIuMTM3NSwyMDAuMjQwNjI1IDEzMS40NTkzNzUsMjAwLjQzNDM3NSBDMTMwLjc4MTI1LDIwMC41MzEyNSAxMzAuMjk2ODc1LDIwMS4yMDkzNzUgMTMwLjM5Mzc1LDIwMS45ODQzNzUgTDEzNC40NjI1LDIyMS44NDM3NSBDMTM0LjY1NjI1LDIyMi41MjE4NzUgMTM1LjMzNDM3NSwyMjIuOTA5Mzc1IDEzNi4wMTI1LDIyMi44MTI1IEwxMzYuMDEyNSwyMjIuODEyNSBaIiBmaWxsPSIjRkZGRkZGIi8+CiAgICAgICAgICAgICAgICA8cGF0aCBkPSJNMTI0LjA5Njg3NSwyMTIuOTMxMjUgQzEyNC44NzE4NzUsMjEyLjgzNDM3NSAxMjUuNTUsMjEzLjMxODc1IDEyNS43NDM3NSwyMTQuMDkzNzUgTDEyNi45MDYyNSwyMjMuMDA2MjUgQzEyNy4wMDMxMjUsMjIzLjc4MTI1IDEyNi40MjE4NzUsMjI0LjQ1OTM3NSAxMjUuNjQ2ODc1LDIyNC41NTYyNSBDMTI0Ljg3MTg3NSwyMjQuNjUzMTI1IDEyNC4xOTM3NSwyMjQuMTY4NzUgMTI0LDIyMy4zOTM3NSBMMTIyLjgzNzUsMjE0LjQ4MTI1IEMxMjIuNzQwNjI1LDIxMy43MDYyNSAxMjMuMzIxODc1LDIxMy4wMjgxMjUgMTI0LjA5Njg3NSwyMTIuOTMxMjUgTDEyNC4wOTY4NzUsMjEyLjkzMTI1IFoiIGZpbGw9IiNGM0YzRjMiLz4KICAgICAgICAgICAgICAgIDxwYXRoIGQ9Ik0xMjQuMDk2ODc1LDIxMi44MzQzNzUgQzEyNC45Njg3NSwyMTIuNzM3NSAxMjUuNzQzNzUsMjEzLjMxODc1IDEyNS44NDA2MjUsMjE0LjA5Mzc1IEwxMjcuMDAzMTI1LDIyMy4wMDYyNSBDMTI3LjEsMjIzLjc4MTI1IDEyNi41MTg3NSwyMjQuNTU2MjUgMTI1LjY0Njg3NSwyMjQuNjUzMTI1IEMxMjQuNzc1LDIyNC43NSAxMjQsMjI0LjE2ODc1IDEyMy45MDMxMjUsMjIzLjM5Mzc1IEwxMjIuNzQwNjI1LDIxNC40ODEyNSBDMTIyLjY0Mzc1LDIxMy43MDYyNSAxMjMuMjI1LDIxMi45MzEyNSAxMjQuMDk2ODc1LDIxMi44MzQzNzUgTDEyNC4wOTY4NzUsMjEyLjgzNDM3NSBaIE0xMjUuNTUsMjI0LjQ1OTM3NSBDMTI2LjIyODEyNSwyMjQuMzYyNSAxMjYuODA5Mzc1LDIyMy42ODQzNzUgMTI2LjcxMjUsMjIzLjAwNjI1IEwxMjUuNTUsMjE0LjA5Mzc1IEMxMjUuNDUzMTI1LDIxMy40MTU2MjUgMTI0Ljc3NSwyMTIuOTMxMjUgMTI0LjA5Njg3NSwyMTMuMDI4MTI1IEMxMjMuNDE4NzUsMjEzLjEyNSAxMjIuODM3NSwyMTMuODAzMTI1IDEyMi45MzQzNzUsMjE0LjQ4MTI1IEwxMjQuMDk2ODc1LDIyMy4zOTM3NSBDMTI0LjE5Mzc1LDIyNC4wNzE4NzUgMTI0Ljg3MTg3NSwyMjQuNTU2MjUgMTI1LjU1LDIyNC40NTkzNzUgTDEyNS41NSwyMjQuNDU5Mzc1IFoiIGZpbGw9IiNGRkZGRkYiLz4KICAgICAgICAgICAgICAgIDxwYXRoIGQ9Ik0xMTQuMTE4NzUsMjAyLjA4MTI1IEMxMTQuODkzNzUsMjAyLjA4MTI1IDExNS41NzE4NzUsMjAyLjY2MjUgMTE1LjU3MTg3NSwyMDMuNDM3NSBMMTE1LjU3MTg3NSwyMjMuNjg0Mzc1IEMxMTUuNTcxODc1LDIyNC40NTkzNzUgMTE0Ljg5Mzc1LDIyNS4wNDA2MjUgMTE0LjExODc1LDIyNS4wNDA2MjUgQzExMy4zNDM3NSwyMjUuMDQwNjI1IDExMi42NjU2MjUsMjI0LjQ1OTM3NSAxMTIuNjY1NjI1LDIyMy42ODQzNzUgTDExMi42NjU2MjUsMjAzLjQzNzUgQzExMi43NjI1LDIwMi42NjI1IDExMy4zNDM3NSwyMDIuMDgxMjUgMTE0LjExODc1LDIwMi4wODEyNSBMMTE0LjExODc1LDIwMi4wODEyNSBaIiBmaWxsPSIjRjNGM0YzIi8+CiAgICAgICAgICAgICAgICA8cGF0aCBkPSJNMTE0LjExODc1LDIwMS45ODQzNzUgQzExNC45OTA2MjUsMjAxLjk4NDM3NSAxMTUuNjY4NzUsMjAyLjY2MjUgMTE1LjY2ODc1LDIwMy40Mzc1IEwxMTUuNjY4NzUsMjIzLjY4NDM3NSBDMTE1LjY2ODc1LDIyNC40NTkzNzUgMTE0Ljk5MDYyNSwyMjUuMTM3NSAxMTQuMTE4NzUsMjI1LjEzNzUgQzExMy4yNDY4NzUsMjI1LjEzNzUgMTEyLjU2ODc1LDIyNC40NTkzNzUgMTEyLjU2ODc1LDIyMy42ODQzNzUgTDExMi41Njg3NSwyMDMuNDM3NSBDMTEyLjU2ODc1LDIwMi42NjI1IDExMy4zNDM3NSwyMDEuOTg0Mzc1IDExNC4xMTg3NSwyMDEuOTg0Mzc1IEwxMTQuMTE4NzUsMjAxLjk4NDM3NSBaIE0xMTQuMTE4NzUsMjI0Ljk0Mzc1IEMxMTQuNzk2ODc1LDIyNC45NDM3NSAxMTUuNDc1LDIyNC4zNjI1IDExNS40NzUsMjIzLjY4NDM3NSBMMTE1LjQ3NSwyMDMuNDM3NSBDMTE1LjQ3NSwyMDIuNzU5Mzc1IDExNC44OTM3NSwyMDIuMTc4MTI1IDExNC4xMTg3NSwyMDIuMTc4MTI1IEMxMTMuNDQwNjI1LDIwMi4xNzgxMjUgMTEyLjc2MjUsMjAyLjc1OTM3NSAxMTIuNzYyNSwyMDMuNDM3NSBMMTEyLjc2MjUsMjIzLjY4NDM3NSBDMTEyLjg1OTM3NSwyMjQuMzYyNSAxMTMuNDQwNjI1LDIyNC45NDM3NSAxMTQuMTE4NzUsMjI0Ljk0Mzc1IEwxMTQuMTE4NzUsMjI0Ljk0Mzc1IFoiIGZpbGw9IiNGRkZGRkYiLz4KICAgICAgICAgICAgICAgIDxwYXRoIGQ9Ik0xMDQuNDMxMjUsMjEyLjkzMTI1IEMxMDUuMjA2MjUsMjEzLjAyODEyNSAxMDUuNzg3NSwyMTMuNjA5Mzc1IDEwNS43ODc1LDIxNC4zODQzNzUgTDEwNS4xMDkzNzUsMjIzLjM5Mzc1IEMxMDUuMDEyNSwyMjQuMTY4NzUgMTA0LjMzNDM3NSwyMjQuNzUgMTAzLjU1OTM3NSwyMjQuNjUzMTI1IEMxMDIuNzg0Mzc1LDIyNC41NTYyNSAxMDIuMjAzMTI1LDIyMy45NzUgMTAyLjIwMzEyNSwyMjMuMiBMMTAyLjg4MTI1LDIxNC4xOTA2MjUgQzEwMi45NzgxMjUsMjEzLjQxNTYyNSAxMDMuNjU2MjUsMjEyLjgzNDM3NSAxMDQuNDMxMjUsMjEyLjkzMTI1IEwxMDQuNDMxMjUsMjEyLjkzMTI1IFoiIGZpbGw9IiNGM0YzRjMiLz4KICAgICAgICAgICAgICAgIDxwYXRoIGQ9Ik0xMDQuNDMxMjUsMjEyLjgzNDM3NSBDMTA1LjMwMzEyNSwyMTIuOTMxMjUgMTA1Ljg4NDM3NSwyMTMuNjA5Mzc1IDEwNS44ODQzNzUsMjE0LjM4NDM3NSBMMTA1LjIwNjI1LDIyMy4zOTM3NSBDMTA1LjEwOTM3NSwyMjQuMTY4NzUgMTA0LjQzMTI1LDIyNC44NDY4NzUgMTAzLjU1OTM3NSwyMjQuNzUgQzEwMi42ODc1LDIyNC42NTMxMjUgMTAyLjEwNjI1LDIyMy45NzUgMTAyLjEwNjI1LDIyMy4yIEwxMDIuNzg0Mzc1LDIxNC4xOTA2MjUgQzEwMi44ODEyNSwyMTMuMzE4NzUgMTAzLjU1OTM3NSwyMTIuNzM3NSAxMDQuNDMxMjUsMjEyLjgzNDM3NSBMMTA0LjQzMTI1LDIxMi44MzQzNzUgWiBNMTAzLjU1OTM3NSwyMjQuNTU2MjUgQzEwNC4yMzc1LDIyNC41NTYyNSAxMDQuOTE1NjI1LDIyNC4wNzE4NzUgMTA0LjkxNTYyNSwyMjMuMzkzNzUgTDEwNS41OTM3NSwyMTQuMzg0Mzc1IEMxMDUuNTkzNzUsMjEzLjcwNjI1IDEwNS4xMDkzNzUsMjEzLjEyNSAxMDQuMzM0Mzc1LDIxMy4wMjgxMjUgQzEwMy42NTYyNSwyMTMuMDI4MTI1IDEwMi45NzgxMjUsMjEzLjUxMjUgMTAyLjk3ODEyNSwyMTQuMTkwNjI1IEwxMDIuMywyMjMuMiBDMTAyLjMsMjIzLjg3ODEyNSAxMDIuODgxMjUsMjI0LjQ1OTM3NSAxMDMuNTU5Mzc1LDIyNC41NTYyNSBMMTAzLjU1OTM3NSwyMjQuNTU2MjUgWiIgZmlsbD0iI0ZGRkZGRiIvPgogICAgICAgICAgICAgICAgPHBhdGggZD0iTTk3LjE2NTYyNSwyMDAuMzM3NSBDOTcuOTQwNjI1LDIwMC41MzEyNSA5OC40MjUsMjAxLjIwOTM3NSA5OC4zMjgxMjUsMjAxLjk4NDM3NSBMOTQuMzU2MjUsMjIxLjg0Mzc1IEM5NC4xNjI1LDIyMi42MTg3NSA5My40ODQzNzUsMjIzLjEwMzEyNSA5Mi43MDkzNzUsMjIyLjkwOTM3NSBDOTEuOTM0Mzc1LDIyMi43MTU2MjUgOTEuNDUsMjIyLjAzNzUgOTEuNTQ2ODc1LDIyMS4yNjI1IEw5NS41MTg3NSwyMDEuNDAzMTI1IEM5NS42MTU2MjUsMjAwLjcyNSA5Ni4zOTA2MjUsMjAwLjI0MDYyNSA5Ny4xNjU2MjUsMjAwLjMzNzUgTDk3LjE2NTYyNSwyMDAuMzM3NSBaIiBmaWxsPSIjRjNGM0YzIi8+CiAgICAgICAgICAgICAgICA8cGF0aCBkPSJNOTcuMTY1NjI1LDIwMC4yNDA2MjUgQzk4LjAzNzUsMjAwLjQzNDM3NSA5OC41MjE4NzUsMjAxLjIwOTM3NSA5OC40MjUsMjAxLjk4NDM3NSBMOTQuNDUzMTI1LDIyMS44NDM3NSBDOTQuMjU5Mzc1LDIyMi42MTg3NSA5My40ODQzNzUsMjIzLjIgOTIuNjEyNSwyMjMuMDA2MjUgQzkxLjc0MDYyNSwyMjIuODEyNSA5MS4yNTYyNSwyMjIuMDM3NSA5MS4zNTMxMjUsMjIxLjI2MjUgTDk1LjMyNSwyMDEuNDAzMTI1IEM5NS41MTg3NSwyMDAuNjI4MTI1IDk2LjI5Mzc1LDIwMC4xNDM3NSA5Ny4xNjU2MjUsMjAwLjI0MDYyNSBMOTcuMTY1NjI1LDIwMC4yNDA2MjUgWiBNOTIuNjEyNSwyMjIuODEyNSBDOTMuMjkwNjI1LDIyMi45MDkzNzUgOTMuOTY4NzUsMjIyLjUyMTg3NSA5NC4xNjI1LDIyMS44NDM3NSBMOTguMTM0Mzc1LDIwMS45ODQzNzUgQzk4LjIzMTI1LDIwMS4zMDYyNSA5Ny44NDM3NSwyMDAuNjI4MTI1IDk3LjA2ODc1LDIwMC40MzQzNzUgQzk2LjM5MDYyNSwyMDAuMzM3NSA5NS43MTI1LDIwMC43MjUgOTUuNTE4NzUsMjAxLjQwMzEyNSBMOTEuNTQ2ODc1LDIyMS4yNjI1IEM5MS40NSwyMjIuMDM3NSA5MS45MzQzNzUsMjIyLjYxODc1IDkyLjYxMjUsMjIyLjgxMjUgTDkyLjYxMjUsMjIyLjgxMjUgWiIgZmlsbD0iI0ZGRkZGRiIvPgogICAgICAgICAgICAgICAgPHBhdGggZD0iTTg1LjU0MDYyNSwyMDkuMDU2MjUgQzg2LjMxNTYyNSwyMDkuMjUgODYuOCwyMTAuMDI1IDg2LjYwNjI1LDIxMC44IEw4NC4xODQzNzUsMjE5LjUxODc1IEM4My45OTA2MjUsMjIwLjI5Mzc1IDgzLjIxNTYyNSwyMjAuNjgxMjUgODIuNDQwNjI1LDIyMC40ODc1IEM4MS42NjU2MjUsMjIwLjI5Mzc1IDgxLjE4MTI1LDIxOS41MTg3NSA4MS4zNzUsMjE4Ljc0Mzc1IEw4My43OTY4NzUsMjEwLjAyNSBDODMuOTkwNjI1LDIwOS4yNSA4NC43NjU2MjUsMjA4Ljg2MjUgODUuNTQwNjI1LDIwOS4wNTYyNSBMODUuNTQwNjI1LDIwOS4wNTYyNSBaIiBmaWxsPSIjRjNGM0YzIi8+CiAgICAgICAgICAgICAgICA8cGF0aCBkPSJNODUuNTQwNjI1LDIwOC45NTkzNzUgQzg2LjMxNTYyNSwyMDkuMTUzMTI1IDg2Ljg5Njg3NSwyMTAuMDI1IDg2LjYwNjI1LDIxMC44IEw4NC4xODQzNzUsMjE5LjUxODc1IEM4My45OTA2MjUsMjIwLjI5Mzc1IDgzLjExODc1LDIyMC43NzgxMjUgODIuMzQzNzUsMjIwLjU4NDM3NSBDODEuNTY4NzUsMjIwLjM5MDYyNSA4MC45ODc1LDIxOS41MTg3NSA4MS4yNzgxMjUsMjE4Ljc0Mzc1IEw4My43LDIxMC4wMjUgQzgzLjg5Mzc1LDIwOS4yNSA4NC42Njg3NSwyMDguNzY1NjI1IDg1LjU0MDYyNSwyMDguOTU5Mzc1IEw4NS41NDA2MjUsMjA4Ljk1OTM3NSBaIE04Mi4zNDM3NSwyMjAuMjkzNzUgQzgzLjAyMTg3NSwyMjAuNDg3NSA4My43OTY4NzUsMjIwLjEgODMuOTkwNjI1LDIxOS40MjE4NzUgTDg2LjQxMjUsMjEwLjcwMzEyNSBDODYuNjA2MjUsMjEwLjAyNSA4Ni4yMTg3NSwyMDkuMzQ2ODc1IDg1LjQ0Mzc1LDIwOS4xNTMxMjUgQzg0Ljc2NTYyNSwyMDguOTU5Mzc1IDgzLjk5MDYyNSwyMDkuMzQ2ODc1IDgzLjc5Njg3NSwyMTAuMDI1IEw4MS4zNzUsMjE4Ljc0Mzc1IEM4MS4yNzgxMjUsMjE5LjQyMTg3NSA4MS42NjU2MjUsMjIwLjEgODIuMzQzNzUsMjIwLjI5Mzc1IEw4Mi4zNDM3NSwyMjAuMjkzNzUgWiIgZmlsbD0iI0ZGRkZGRiIvPgogICAgICAgICAgICAgICAgPHBhdGggZD0iTTgwLjc5Mzc1LDE5NS4zOTY4NzUgQzgxLjU2ODc1LDE5NS42ODc1IDgxLjg1OTM3NSwxOTYuNTU5Mzc1IDgxLjU2ODc1LDE5Ny4yMzc1IEw3My44MTg3NSwyMTUuOTM0Mzc1IEM3My41MjgxMjUsMjE2LjYxMjUgNzIuNjU2MjUsMjE3IDcxLjk3ODEyNSwyMTYuNjEyNSBDNzEuMywyMTYuMjI1IDcwLjkxMjUsMjE1LjQ1IDcxLjIwMzEyNSwyMTQuNzcxODc1IEw3OC45NTMxMjUsMTk2LjA3NSBDNzkuMjQzNzUsMTk1LjM5Njg3NSA4MC4xMTU2MjUsMTk1LjAwOTM3NSA4MC43OTM3NSwxOTUuMzk2ODc1IEw4MC43OTM3NSwxOTUuMzk2ODc1IFoiIGZpbGw9IiNGM0YzRjMiLz4KICAgICAgICAgICAgICAgIDxwYXRoIGQ9Ik04MC43OTM3NSwxOTUuMyBDODEuNTY4NzUsMTk1LjU5MDYyNSA4MS45NTYyNSwxOTYuNDYyNSA4MS42NjU2MjUsMTk3LjIzNzUgTDczLjkxNTYyNSwyMTUuOTM0Mzc1IEM3My42MjUsMjE2LjcwOTM3NSA3Mi43NTMxMjUsMjE3IDcxLjg4MTI1LDIxNi43MDkzNzUgQzcxLjEwNjI1LDIxNi40MTg3NSA3MC43MTg3NSwyMTUuNTQ2ODc1IDcxLjAwOTM3NSwyMTQuNzcxODc1IEw3OC43NTkzNzUsMTk2LjA3NSBDNzkuMTQ2ODc1LDE5NS4zIDgwLjAxODc1LDE5NC45MTI1IDgwLjc5Mzc1LDE5NS4zIEw4MC43OTM3NSwxOTUuMyBaIE03MS45NzgxMjUsMjE2LjUxNTYyNSBDNzIuNjU2MjUsMjE2LjgwNjI1IDczLjQzMTI1LDIxNi41MTU2MjUgNzMuNzIxODc1LDIxNS44Mzc1IEw4MS40NzE4NzUsMTk3LjE0MDYyNSBDODEuNzYyNSwxOTYuNDYyNSA4MS4zNzUsMTk1Ljc4NDM3NSA4MC42OTY4NzUsMTk1LjQ5Mzc1IEM4MC4wMTg3NSwxOTUuMjAzMTI1IDc5LjI0Mzc1LDE5NS40OTM3NSA3OC45NTMxMjUsMTk2LjE3MTg3NSBMNzEuMjAzMTI1LDIxNC44Njg3NSBDNzEuMDA5Mzc1LDIxNS40NSA3MS4zLDIxNi4yMjUgNzEuOTc4MTI1LDIxNi41MTU2MjUgTDcxLjk3ODEyNSwyMTYuNTE1NjI1IFoiIGZpbGw9IiNGRkZGRkYiLz4KICAgICAgICAgICAgICAgIDxwYXRoIGQ9Ik02Ny43MTU2MjUsMjAxLjU5Njg3NSBDNjguMzkzNzUsMjAxLjk4NDM3NSA2OC42ODQzNzUsMjAyLjc1OTM3NSA2OC4zOTM3NSwyMDMuNDM3NSBMNjQuMzI1LDIxMS40NzgxMjUgQzYzLjkzNzUsMjEyLjE1NjI1IDYzLjE2MjUsMjEyLjQ0Njg3NSA2Mi4zODc1LDIxMi4wNTkzNzUgQzYxLjcwOTM3NSwyMTEuNjcxODc1IDYxLjQxODc1LDIxMC44OTY4NzUgNjEuNzA5Mzc1LDIxMC4yMTg3NSBMNjUuNzc4MTI1LDIwMi4xNzgxMjUgQzY2LjE2NTYyNSwyMDEuNSA2Ni45NDA2MjUsMjAxLjIwOTM3NSA2Ny43MTU2MjUsMjAxLjU5Njg3NSBMNjcuNzE1NjI1LDIwMS41OTY4NzUgWiIgZmlsbD0iI0YzRjNGMyIvPgogICAgICAgICAgICAgICAgPHBhdGggZD0iTTY3LjcxNTYyNSwyMDEuNSBDNjguNDkwNjI1LDIwMS44ODc1IDY4Ljc4MTI1LDIwMi43NTkzNzUgNjguMzkzNzUsMjAzLjUzNDM3NSBMNjQuMzI1LDIxMS41NzUgQzYzLjkzNzUsMjEyLjM1IDYzLjA2NTYyNSwyMTIuNjQwNjI1IDYyLjI5MDYyNSwyMTIuMjUzMTI1IEM2MS41MTU2MjUsMjExLjg2NTYyNSA2MS4yMjUsMjEwLjk5Mzc1IDYxLjYxMjUsMjEwLjIxODc1IEw2NS42ODEyNSwyMDIuMTc4MTI1IEM2Ni4wNjg3NSwyMDEuNDAzMTI1IDY2Ljk0MDYyNSwyMDEuMTEyNSA2Ny43MTU2MjUsMjAxLjUgTDY3LjcxNTYyNSwyMDEuNSBaIE02Mi4zODc1LDIxMi4wNTkzNzUgQzYzLjA2NTYyNSwyMTIuMzUgNjMuODQwNjI1LDIxMi4xNTYyNSA2NC4xMzEyNSwyMTEuNDc4MTI1IEw2OC4yLDIwMy40Mzc1IEM2OC40OTA2MjUsMjAyLjg1NjI1IDY4LjIsMjAyLjA4MTI1IDY3LjYxODc1LDIwMS42OTM3NSBDNjYuOTQwNjI1LDIwMS40MDMxMjUgNjYuMTY1NjI1LDIwMS41OTY4NzUgNjUuODc1LDIwMi4yNzUgTDYxLjgwNjI1LDIxMC4zMTU2MjUgQzYxLjUxNTYyNSwyMTAuODk2ODc1IDYxLjgwNjI1LDIxMS42NzE4NzUgNjIuMzg3NSwyMTIuMDU5Mzc1IEw2Mi4zODc1LDIxMi4wNTkzNzUgWiIgZmlsbD0iI0ZGRkZGRiIvPgogICAgICAgICAgICAgICAgPHBhdGggZD0iTTY1Ljc3ODEyNSwxODcuMjU5Mzc1IEM2Ni40NTYyNSwxODcuNzQzNzUgNjYuNjUsMTg4LjYxNTYyNSA2Ni4xNjU2MjUsMTg5LjE5Njg3NSBMNTQuOTI4MTI1LDIwNS45NTYyNSBDNTQuNTQwNjI1LDIwNi42MzQzNzUgNTMuNjY4NzUsMjA2LjczMTI1IDUyLjk5MDYyNSwyMDYuMzQzNzUgQzUyLjMxMjUsMjA1Ljg1OTM3NSA1Mi4xMTg3NSwyMDQuOTg3NSA1Mi42MDMxMjUsMjA0LjQwNjI1IEw2My44NDA2MjUsMTg3LjY0Njg3NSBDNjQuMjI4MTI1LDE4Ni45Njg3NSA2NS4xLDE4Ni43NzUgNjUuNzc4MTI1LDE4Ny4yNTkzNzUgTDY1Ljc3ODEyNSwxODcuMjU5Mzc1IFoiIGZpbGw9IiNGM0YzRjMiLz4KICAgICAgICAgICAgICAgIDxwYXRoIGQ9Ik02NS43NzgxMjUsMTg3LjE2MjUgQzY2LjQ1NjI1LDE4Ny42NDY4NzUgNjYuNjUsMTg4LjYxNTYyNSA2Ni4yNjI1LDE4OS4yOTM3NSBMNTUuMDI1LDIwNi4wNTMxMjUgQzU0LjU0MDYyNSwyMDYuNzMxMjUgNTMuNjY4NzUsMjA2LjkyNSA1Mi44OTM3NSwyMDYuNDQwNjI1IEM1Mi4yMTU2MjUsMjA1Ljk1NjI1IDUyLjAyMTg3NSwyMDQuOTg3NSA1Mi40MDkzNzUsMjA0LjMwOTM3NSBMNjMuNjQ2ODc1LDE4Ny41NSBDNjQuMTMxMjUsMTg2Ljg3MTg3NSA2NS4xLDE4Ni42NzgxMjUgNjUuNzc4MTI1LDE4Ny4xNjI1IEw2NS43NzgxMjUsMTg3LjE2MjUgWiBNNTIuOTkwNjI1LDIwNi4yNDY4NzUgQzUzLjU3MTg3NSwyMDYuNjM0Mzc1IDU0LjQ0Mzc1LDIwNi41Mzc1IDU0LjgzMTI1LDIwNS45NTYyNSBMNjYuMDY4NzUsMTg5LjE5Njg3NSBDNjYuNDU2MjUsMTg4LjYxNTYyNSA2Ni4yNjI1LDE4Ny44NDA2MjUgNjUuNjgxMjUsMTg3LjQ1MzEyNSBDNjUuMSwxODcuMDY1NjI1IDY0LjIyODEyNSwxODcuMTYyNSA2My44NDA2MjUsMTg3Ljc0Mzc1IEw1Mi42MDMxMjUsMjA0LjQwNjI1IEM1Mi4yMTU2MjUsMjA0Ljk4NzUgNTIuNDA5Mzc1LDIwNS44NTkzNzUgNTIuOTkwNjI1LDIwNi4yNDY4NzUgTDUyLjk5MDYyNSwyMDYuMjQ2ODc1IFoiIGZpbGw9IiNGRkZGRkYiLz4KICAgICAgICAgICAgICAgIDxwYXRoIGQ9Ik01MS42MzQzNzUsMTkwLjg0Mzc1IEM1Mi4yMTU2MjUsMTkxLjMyODEyNSA1Mi40MDkzNzUsMTkyLjIgNTEuOTI1LDE5Mi43ODEyNSBMNDYuMzA2MjUsMTk5Ljg1MzEyNSBDNDUuODIxODc1LDIwMC40MzQzNzUgNDQuOTUsMjAwLjUzMTI1IDQ0LjM2ODc1LDIwMC4wNDY4NzUgQzQzLjc4NzUsMTk5LjU2MjUgNDMuNTkzNzUsMTk4LjY5MDYyNSA0NC4wNzgxMjUsMTk4LjEwOTM3NSBMNDkuNjk2ODc1LDE5MS4wMzc1IEM1MC4xODEyNSwxOTAuNDU2MjUgNTEuMDUzMTI1LDE5MC4zNTkzNzUgNTEuNjM0Mzc1LDE5MC44NDM3NSBMNTEuNjM0Mzc1LDE5MC44NDM3NSBaIiBmaWxsPSIjRjNGM0YzIi8+CiAgICAgICAgICAgICAgICA8cGF0aCBkPSJNNTEuNzMxMjUsMTkwLjc0Njg3NSBDNTIuNDA5Mzc1LDE5MS4yMzEyNSA1Mi41MDYyNSwxOTIuMiA1Mi4wMjE4NzUsMTkyLjg3ODEyNSBMNDYuNDAzMTI1LDE5OS45NSBDNDUuOTE4NzUsMjAwLjYyODEyNSA0NC45NSwyMDAuNzI1IDQ0LjI3MTg3NSwyMDAuMTQzNzUgQzQzLjU5Mzc1LDE5OS42NTkzNzUgNDMuNDk2ODc1LDE5OC42OTA2MjUgNDMuOTgxMjUsMTk4LjAxMjUgTDQ5LjYsMTkwLjk0MDYyNSBDNTAuMDg0Mzc1LDE5MC4yNjI1IDUxLjA1MzEyNSwxOTAuMTY1NjI1IDUxLjczMTI1LDE5MC43NDY4NzUgTDUxLjczMTI1LDE5MC43NDY4NzUgWiBNNDQuNDY1NjI1LDE5OS45NSBDNDUuMDQ2ODc1LDIwMC40MzQzNzUgNDUuODIxODc1LDIwMC4zMzc1IDQ2LjMwNjI1LDE5OS43NTYyNSBMNTEuOTI1LDE5Mi42ODQzNzUgQzUyLjMxMjUsMTkyLjEwMzEyNSA1Mi4yMTU2MjUsMTkxLjMyODEyNSA1MS42MzQzNzUsMTkwLjg0Mzc1IEM1MS4wNTMxMjUsMTkwLjM1OTM3NSA1MC4yNzgxMjUsMTkwLjQ1NjI1IDQ5Ljc5Mzc1LDE5MS4wMzc1IEw0NC4xNzUsMTk4LjEwOTM3NSBDNDMuNzg3NSwxOTguNjkwNjI1IDQzLjg4NDM3NSwxOTkuNTYyNSA0NC40NjU2MjUsMTk5Ljk1IEw0NC40NjU2MjUsMTk5Ljk1IFoiIGZpbGw9IiNGRkZGRkYiLz4KICAgICAgICAgICAgICAgIDxwYXRoIGQ9Ik01Mi42MDMxMjUsMTc2LjMxMjUgQzUzLjE4NDM3NSwxNzYuODkzNzUgNTMuMTg0Mzc1LDE3Ny43NjU2MjUgNTIuNjAzMTI1LDE3OC4yNSBMMzguMjY1NjI1LDE5Mi40OTA2MjUgQzM3LjY4NDM3NSwxOTMuMDcxODc1IDM2LjgxMjUsMTkyLjk3NSAzNi4zMjgxMjUsMTkyLjQ5MDYyNSBDMzUuODQzNzUsMTkyLjAwNjI1IDM1Ljc0Njg3NSwxOTEuMDM3NSAzNi4zMjgxMjUsMTkwLjU1MzEyNSBMNTAuNTY4NzUsMTc2LjMxMjUgQzUxLjE1LDE3NS43MzEyNSA1Mi4wMjE4NzUsMTc1LjczMTI1IDUyLjYwMzEyNSwxNzYuMzEyNSBMNTIuNjAzMTI1LDE3Ni4zMTI1IFoiIGZpbGw9IiNGM0YzRjMiLz4KICAgICAgICAgICAgICAgIDxwYXRoIGQ9Ik01Mi43LDE3Ni4yMTU2MjUgQzUzLjI4MTI1LDE3Ni43OTY4NzUgNTMuMjgxMjUsMTc3Ljc2NTYyNSA1Mi43LDE3OC4zNDY4NzUgTDM4LjM2MjUsMTkyLjU4NzUgQzM3Ljc4MTI1LDE5My4xNjg3NSAzNi44MTI1LDE5My4xNjg3NSAzNi4yMzEyNSwxOTIuNTg3NSBDMzUuNjUsMTkyLjAwNjI1IDM1LjY1LDE5MS4wMzc1IDM2LjIzMTI1LDE5MC40NTYyNSBMNTAuNTY4NzUsMTc2LjIxNTYyNSBDNTEuMTUsMTc1LjYzNDM3NSA1Mi4xMTg3NSwxNzUuNjM0Mzc1IDUyLjcsMTc2LjIxNTYyNSBMNTIuNywxNzYuMjE1NjI1IFogTTM2LjMyODEyNSwxOTIuNDkwNjI1IEMzNi44MTI1LDE5Mi45NzUgMzcuNjg0Mzc1LDE5Mi45NzUgMzguMTY4NzUsMTkyLjQ5MDYyNSBMNTIuNTA2MjUsMTc4LjI1IEM1Mi45OTA2MjUsMTc3Ljc2NTYyNSA1Mi45OTA2MjUsMTc2Ljg5Mzc1IDUyLjUwNjI1LDE3Ni40MDkzNzUgQzUyLjAyMTg3NSwxNzUuOTI1IDUxLjE1LDE3NS45MjUgNTAuNjY1NjI1LDE3Ni40MDkzNzUgTDM2LjMyODEyNSwxOTAuNjUgQzM1Ljg0Mzc1LDE5MS4xMzQzNzUgMzUuODQzNzUsMTkxLjkwOTM3NSAzNi4zMjgxMjUsMTkyLjQ5MDYyNSBMMzYuMzI4MTI1LDE5Mi40OTA2MjUgWiIgZmlsbD0iI0ZGRkZGRiIvPgogICAgICAgICAgICAgICAgPHBhdGggZD0iTTM4LjA3MTg3NSwxNzcuMDg3NSBDMzguNTU2MjUsMTc3LjY2ODc1IDM4LjU1NjI1LDE3OC41NDA2MjUgMzcuOTc1LDE3OS4wMjUgTDMxLjA5Njg3NSwxODQuODM3NSBDMzAuNTE1NjI1LDE4NS4zMjE4NzUgMjkuNjQzNzUsMTg1LjIyNSAyOS4xNTkzNzUsMTg0LjY0Mzc1IEMyOC42NzUsMTg0LjA2MjUgMjguNjc1LDE4My4xOTA2MjUgMjkuMjU2MjUsMTgyLjcwNjI1IEwzNi4xMzQzNzUsMTc2Ljg5Mzc1IEMzNi43MTU2MjUsMTc2LjQwOTM3NSAzNy41ODc1LDE3Ni41MDYyNSAzOC4wNzE4NzUsMTc3LjA4NzUgTDM4LjA3MTg3NSwxNzcuMDg3NSBaIiBmaWxsPSIjRjNGM0YzIi8+CiAgICAgICAgICAgICAgICA8cGF0aCBkPSJNMzguMTY4NzUsMTc2Ljk5MDYyNSBDMzguNzUsMTc3LjY2ODc1IDM4LjY1MzEyNSwxNzguNjM3NSAzOC4wNzE4NzUsMTc5LjEyMTg3NSBMMzEuMTkzNzUsMTg0LjkzNDM3NSBDMzAuNjEyNSwxODUuNTE1NjI1IDI5LjY0Mzc1LDE4NS40MTg3NSAyOS4wNjI1LDE4NC43NDA2MjUgQzI4LjQ4MTI1LDE4NC4wNjI1IDI4LjU3ODEyNSwxODMuMDkzNzUgMjkuMTU5Mzc1LDE4Mi42MDkzNzUgTDM2LjAzNzUsMTc2Ljc5Njg3NSBDMzYuNjE4NzUsMTc2LjIxNTYyNSAzNy41ODc1LDE3Ni4zMTI1IDM4LjE2ODc1LDE3Ni45OTA2MjUgTDM4LjE2ODc1LDE3Ni45OTA2MjUgWiBNMjkuMjU2MjUsMTg0LjY0Mzc1IEMyOS43NDA2MjUsMTg1LjIyNSAzMC41MTU2MjUsMTg1LjIyNSAzMS4wOTY4NzUsMTg0LjgzNzUgTDM3Ljk3NSwxNzkuMDI1IEMzOC40NTkzNzUsMTc4LjU0MDYyNSAzOC41NTYyNSwxNzcuNzY1NjI1IDM4LjA3MTg3NSwxNzcuMTg0Mzc1IEMzNy41ODc1LDE3Ni42MDMxMjUgMzYuODEyNSwxNzYuNjAzMTI1IDM2LjIzMTI1LDE3Ni45OTA2MjUgTDI5LjM1MzEyNSwxODIuODAzMTI1IEMyOC43NzE4NzUsMTgzLjI4NzUgMjguNzcxODc1LDE4NC4wNjI1IDI5LjI1NjI1LDE4NC42NDM3NSBMMjkuMjU2MjUsMTg0LjY0Mzc1IFoiIGZpbGw9IiNGRkZGRkYiLz4KICAgICAgICAgICAgICAgIDxwYXRoIGQ9Ik00MS45NDY4NzUsMTYzLjEzNzUgQzQyLjQzMTI1LDE2My44MTU2MjUgNDIuMjM3NSwxNjQuNjg3NSA0MS41NTkzNzUsMTY1LjA3NSBMMjQuNzAzMTI1LDE3Ni4zMTI1IEMyNC4wMjUsMTc2LjcgMjMuMTUzMTI1LDE3Ni41MDYyNSAyMi43NjU2MjUsMTc1LjkyNSBDMjIuMjgxMjUsMTc1LjI0Njg3NSAyMi40NzUsMTc0LjM3NSAyMy4xNTMxMjUsMTczLjk4NzUgTDQwLjAwOTM3NSwxNjIuNzUgQzQwLjU5MDYyNSwxNjIuMzYyNSA0MS40NjI1LDE2Mi41NTYyNSA0MS45NDY4NzUsMTYzLjEzNzUgTDQxLjk0Njg3NSwxNjMuMTM3NSBaIiBmaWxsPSIjRjNGM0YzIi8+CiAgICAgICAgICAgICAgICA8cGF0aCBkPSJNNDIuMDQzNzUsMTYzLjEzNzUgQzQyLjUyODEyNSwxNjMuODE1NjI1IDQyLjMzNDM3NSwxNjQuNzg0Mzc1IDQxLjY1NjI1LDE2NS4yNjg3NSBMMjQuOCwxNzYuNTA2MjUgQzI0LjEyMTg3NSwxNzYuOTkwNjI1IDIzLjE1MzEyNSwxNzYuNzk2ODc1IDIyLjY2ODc1LDE3Ni4wMjE4NzUgQzIyLjE4NDM3NSwxNzUuMzQzNzUgMjIuMzc4MTI1LDE3NC4zNzUgMjMuMDU2MjUsMTczLjg5MDYyNSBMMzkuOTEyNSwxNjIuNjUzMTI1IEM0MC41OTA2MjUsMTYyLjE2ODc1IDQxLjU1OTM3NSwxNjIuMzYyNSA0Mi4wNDM3NSwxNjMuMTM3NSBMNDIuMDQzNzUsMTYzLjEzNzUgWiBNMjIuODYyNSwxNzUuODI4MTI1IEMyMy4yNSwxNzYuNDA5Mzc1IDI0LjAyNSwxNzYuNjAzMTI1IDI0LjYwNjI1LDE3Ni4yMTU2MjUgTDQxLjQ2MjUsMTY0Ljk3ODEyNSBDNDIuMDQzNzUsMTY0LjU5MDYyNSA0Mi4yMzc1LDE2My44MTU2MjUgNDEuNzUzMTI1LDE2My4xMzc1IEM0MS4zNjU2MjUsMTYyLjU1NjI1IDQwLjU5MDYyNSwxNjIuMzYyNSA0MC4wMDkzNzUsMTYyLjc1IEwyMy4xNTMxMjUsMTczLjk4NzUgQzIyLjU3MTg3NSwxNzQuNDcxODc1IDIyLjQ3NSwxNzUuMjQ2ODc1IDIyLjg2MjUsMTc1LjgyODEyNSBMMjIuODYyNSwxNzUuODI4MTI1IFoiIGZpbGw9IiNGRkZGRkYiLz4KICAgICAgICAgICAgICAgIDxwYXRoIGQ9Ik0yNy41MTI1LDE2MS4xMDMxMjUgQzI3LjksMTYxLjc4MTI1IDI3LjcwNjI1LDE2Mi42NTMxMjUgMjcuMDI4MTI1LDE2My4wNDA2MjUgTDE5LjE4MTI1LDE2Ny40OTY4NzUgQzE4LjUwMzEyNSwxNjcuODg0Mzc1IDE3LjYzMTI1LDE2Ny41OTM3NSAxNy4yNDM3NSwxNjYuOTE1NjI1IEMxNi44NTYyNSwxNjYuMjM3NSAxNy4wNSwxNjUuMzY1NjI1IDE3LjcyODEyNSwxNjQuOTc4MTI1IEwyNS41NzUsMTYwLjUyMTg3NSBDMjYuMjUzMTI1LDE2MC4xMzQzNzUgMjcuMTI1LDE2MC40MjUgMjcuNTEyNSwxNjEuMTAzMTI1IEwyNy41MTI1LDE2MS4xMDMxMjUgWiIgZmlsbD0iI0YzRjNGMyIvPgogICAgICAgICAgICAgICAgPHBhdGggZD0iTTI3LjYwOTM3NSwxNjEuMDA2MjUgQzI3Ljk5Njg3NSwxNjEuNzgxMjUgMjcuODAzMTI1LDE2Mi42NTMxMjUgMjcuMTI1LDE2My4wNDA2MjUgTDE5LjI3ODEyNSwxNjcuNDk2ODc1IEMxOC42LDE2Ny44ODQzNzUgMTcuNjMxMjUsMTY3LjU5Mzc1IDE3LjI0Mzc1LDE2Ni45MTU2MjUgQzE2Ljg1NjI1LDE2Ni4xNDA2MjUgMTcuMDUsMTY1LjI2ODc1IDE3LjcyODEyNSwxNjQuODgxMjUgTDI1LjU3NSwxNjAuNDI1IEMyNi4yNTMxMjUsMTYwLjAzNzUgMjcuMjIxODc1LDE2MC4zMjgxMjUgMjcuNjA5Mzc1LDE2MS4wMDYyNSBMMjcuNjA5Mzc1LDE2MS4wMDYyNSBaIE0xNy4zNDA2MjUsMTY2LjgxODc1IEMxNy43MjgxMjUsMTY3LjQ5Njg3NSAxOC41MDMxMjUsMTY3LjY5MDYyNSAxOS4wODQzNzUsMTY3LjMwMzEyNSBMMjYuOTMxMjUsMTYyLjg0Njg3NSBDMjcuNTEyNSwxNjIuNDU5Mzc1IDI3LjcwNjI1LDE2MS42ODQzNzUgMjcuNDE1NjI1LDE2MS4xMDMxMjUgQzI3LjAyODEyNSwxNjAuNDI1IDI2LjI1MzEyNSwxNjAuMjMxMjUgMjUuNjcxODc1LDE2MC42MTg3NSBMMTcuODI1LDE2NS4wNzUgQzE3LjI0Mzc1LDE2NS4zNjU2MjUgMTcuMDUsMTY2LjE0MDYyNSAxNy4zNDA2MjUsMTY2LjgxODc1IEwxNy4zNDA2MjUsMTY2LjgxODc1IFoiIGZpbGw9IiNGRkZGRkYiLz4KICAgICAgICAgICAgICAgIDxwYXRoIGQ9Ik0zNC4wMDMxMjUsMTQ4LjIxODc1IEMzNC4yOTM3NSwxNDguOTkzNzUgMzQuMDAzMTI1LDE0OS43Njg3NSAzMy4yMjgxMjUsMTUwLjA1OTM3NSBMMTQuNTMxMjUsMTU3LjgwOTM3NSBDMTMuODUzMTI1LDE1OC4xIDEyLjk4MTI1LDE1Ny43MTI1IDEyLjY5MDYyNSwxNTcuMDM0Mzc1IEMxMi40LDE1Ni4yNTkzNzUgMTIuNjkwNjI1LDE1NS40ODQzNzUgMTMuNDY1NjI1LDE1NS4xOTM3NSBMMzIuMTYyNSwxNDcuNDQzNzUgQzMyLjg0MDYyNSwxNDcuMTUzMTI1IDMzLjcxMjUsMTQ3LjQ0Mzc1IDM0LjAwMzEyNSwxNDguMjE4NzUgTDM0LjAwMzEyNSwxNDguMjE4NzUgWiIgZmlsbD0iI0YzRjNGMyIvPgogICAgICAgICAgICAgICAgPHBhdGggZD0iTTM0LjEsMTQ4LjEyMTg3NSBDMzQuMzkwNjI1LDE0OC44OTY4NzUgMzQuMSwxNDkuNzY4NzUgMzMuMzI1LDE1MC4xNTYyNSBMMTQuNjI4MTI1LDE1Ny45MDYyNSBDMTMuODUzMTI1LDE1OC4xOTY4NzUgMTIuOTgxMjUsMTU3LjgwOTM3NSAxMi42OTA2MjUsMTU3LjAzNDM3NSBDMTIuNCwxNTYuMjU5Mzc1IDEyLjY5MDYyNSwxNTUuMzg3NSAxMy40NjU2MjUsMTU1IEwzMi4xNjI1LDE0Ny4yNSBDMzIuOTM3NSwxNDYuOTU5Mzc1IDMzLjgwOTM3NSwxNDcuMzQ2ODc1IDM0LjEsMTQ4LjEyMTg3NSBMMzQuMSwxNDguMTIxODc1IFogTTEyLjg4NDM3NSwxNTYuOTM3NSBDMTMuMTc1LDE1Ny42MTU2MjUgMTMuOTUsMTU3LjkwNjI1IDE0LjUzMTI1LDE1Ny43MTI1IEwzMy4yMjgxMjUsMTQ5Ljk2MjUgQzMzLjkwNjI1LDE0OS42NzE4NzUgMzQuMTk2ODc1LDE0OC44OTY4NzUgMzMuOTA2MjUsMTQ4LjIxODc1IEMzMy42MTU2MjUsMTQ3LjU0MDYyNSAzMi44NDA2MjUsMTQ3LjI1IDMyLjI1OTM3NSwxNDcuNDQzNzUgTDEzLjU2MjUsMTU1LjE5Mzc1IEMxMi44ODQzNzUsMTU1LjQ4NDM3NSAxMi41OTM3NSwxNTYuMjU5Mzc1IDEyLjg4NDM3NSwxNTYuOTM3NSBMMTIuODg0Mzc1LDE1Ni45Mzc1IFoiIGZpbGw9IiNGRkZGRkYiLz4KICAgICAgICAgICAgICAgIDxwYXRoIGQ9Ik0yMC4zNDM3NSwxNDMuMzc1IEMyMC42MzQzNzUsMTQ0LjE1IDIwLjI0Njg3NSwxNDQuOTI1IDE5LjQ3MTg3NSwxNDUuMjE1NjI1IEwxMC45NDY4NzUsMTQ4LjAyNSBDMTAuMjY4NzUsMTQ4LjMxNTYyNSA5LjM5Njg3NSwxNDcuODMxMjUgOS4yMDMxMjUsMTQ3LjE1MzEyNSBDOC45MTI1LDE0Ni4zNzgxMjUgOS4zLDE0NS42MDMxMjUgMTAuMDc1LDE0NS4zMTI1IEwxOC42LDE0Mi41MDMxMjUgQzE5LjI3ODEyNSwxNDIuMjEyNSAyMC4wNTMxMjUsMTQyLjYgMjAuMzQzNzUsMTQzLjM3NSBMMjAuMzQzNzUsMTQzLjM3NSBaIiBmaWxsPSIjRjNGM0YzIi8+CiAgICAgICAgICAgICAgICA8cGF0aCBkPSJNMjAuNDQwNjI1LDE0My4yNzgxMjUgQzIwLjczMTI1LDE0NC4wNTMxMjUgMjAuMzQzNzUsMTQ0LjkyNSAxOS40NzE4NzUsMTQ1LjIxNTYyNSBMMTAuOTQ2ODc1LDE0OC4wMjUgQzEwLjE3MTg3NSwxNDguMzE1NjI1IDkuMywxNDcuODMxMjUgOS4wMDkzNzUsMTQ3LjA1NjI1IEM4LjcxODc1LDE0Ni4yODEyNSA5LjEwNjI1LDE0NS40MDkzNzUgOS45NzgxMjUsMTQ1LjExODc1IEwxOC41MDMxMjUsMTQyLjMwOTM3NSBDMTkuMjc4MTI1LDE0Mi4xMTU2MjUgMjAuMTUsMTQyLjUwMzEyNSAyMC40NDA2MjUsMTQzLjI3ODEyNSBMMjAuNDQwNjI1LDE0My4yNzgxMjUgWiBNOS4yMDMxMjUsMTQ2Ljk1OTM3NSBDOS4zOTY4NzUsMTQ3LjYzNzUgMTAuMTcxODc1LDE0OC4wMjUgMTAuODUsMTQ3LjgzMTI1IEwxOS4zNzUsMTQ1LjAyMTg3NSBDMjAuMDUzMTI1LDE0NC44MjgxMjUgMjAuMzQzNzUsMTQ0LjA1MzEyNSAyMC4xNSwxNDMuMzc1IEMxOS45NTYyNSwxNDIuNjk2ODc1IDE5LjE4MTI1LDE0Mi4zMDkzNzUgMTguNTAzMTI1LDE0Mi41MDMxMjUgTDkuOTc4MTI1LDE0NS4zMTI1IEM5LjMsMTQ1LjYwMzEyNSA5LjAwOTM3NSwxNDYuMjgxMjUgOS4yMDMxMjUsMTQ2Ljk1OTM3NSBMOS4yMDMxMjUsMTQ2Ljk1OTM3NSBaIiBmaWxsPSIjRkZGRkZGIi8+CiAgICAgICAgICAgICAgICA8cGF0aCBkPSJNMjkuMDYyNSwxMzEuODQ2ODc1IEMyOS4yNTYyNSwxMzIuNjIxODc1IDI4Ljc3MTg3NSwxMzMuMzk2ODc1IDI3Ljk5Njg3NSwxMzMuNDkzNzUgTDguMTM3NSwxMzcuMzY4NzUgQzcuMzYyNSwxMzcuNTYyNSA2LjY4NDM3NSwxMzYuOTgxMjUgNi40OTA2MjUsMTM2LjIwNjI1IEM2LjI5Njg3NSwxMzUuNDMxMjUgNi43ODEyNSwxMzQuNjU2MjUgNy41NTYyNSwxMzQuNTU5Mzc1IEwyNy40MTU2MjUsMTMwLjY4NDM3NSBDMjguMTkwNjI1LDEzMC41ODc1IDI4Ljk2NTYyNSwxMzEuMDcxODc1IDI5LjA2MjUsMTMxLjg0Njg3NSBMMjkuMDYyNSwxMzEuODQ2ODc1IFoiIGZpbGw9IiNGM0YzRjMiLz4KICAgICAgICAgICAgICAgIDxwYXRoIGQ9Ik0yOS4yNTYyNSwxMzEuODQ2ODc1IEMyOS40NSwxMzIuNzE4NzUgMjguODY4NzUsMTMzLjQ5Mzc1IDI4LjA5Mzc1LDEzMy42ODc1IEw4LjIzNDM3NSwxMzcuNTYyNSBDNy40NTkzNzUsMTM3Ljc1NjI1IDYuNjg0Mzc1LDEzNy4xNzUgNi40OTA2MjUsMTM2LjMwMzEyNSBDNi4yOTY4NzUsMTM1LjQzMTI1IDYuODc4MTI1LDEzNC42NTYyNSA3LjY1MzEyNSwxMzQuNDYyNSBMMjcuNTEyNSwxMzAuNTg3NSBDMjguMjg3NSwxMzAuMzkzNzUgMjkuMDYyNSwxMzAuOTc1IDI5LjI1NjI1LDEzMS44NDY4NzUgTDI5LjI1NjI1LDEzMS44NDY4NzUgWiBNNi42ODQzNzUsMTM2LjIwNjI1IEM2Ljc4MTI1LDEzNi44ODQzNzUgNy40NTkzNzUsMTM3LjM2ODc1IDguMTM3NSwxMzcuMjcxODc1IEwyNy45OTY4NzUsMTMzLjM5Njg3NSBDMjguNjc1LDEzMy4zIDI5LjE1OTM3NSwxMzIuNTI1IDI4Ljk2NTYyNSwxMzEuODQ2ODc1IEMyOC44Njg3NSwxMzEuMTY4NzUgMjguMTkwNjI1LDEzMC42ODQzNzUgMjcuNTEyNSwxMzAuNzgxMjUgTDcuNjUzMTI1LDEzNC42NTYyNSBDNi45NzUsMTM0Ljg1IDYuNDkwNjI1LDEzNS41MjgxMjUgNi42ODQzNzUsMTM2LjIwNjI1IEw2LjY4NDM3NSwxMzYuMjA2MjUgWiIgZmlsbD0iI0ZGRkZGRiIvPgogICAgICAgICAgICAgICAgPHBhdGggZD0iTTE2LjY2MjUsMTI0LjM4NzUgQzE2Ljc1OTM3NSwxMjUuMTYyNSAxNi4yNzUsMTI1Ljg0MDYyNSAxNS41LDEyNS45Mzc1IEw2LjU4NzUsMTI3LjAwMzEyNSBDNS44MTI1LDEyNy4xIDUuMTM0Mzc1LDEyNi41MTg3NSA1LjAzNzUsMTI1Ljc0Mzc1IEM0Ljk0MDYyNSwxMjQuOTY4NzUgNS40MjUsMTI0LjI5MDYyNSA2LjIsMTI0LjE5Mzc1IEwxNS4xMTI1LDEyMy4xMjgxMjUgQzE1Ljc5MDYyNSwxMjMuMDMxMjUgMTYuNTY1NjI1LDEyMy42MTI1IDE2LjY2MjUsMTI0LjM4NzUgTDE2LjY2MjUsMTI0LjM4NzUgWiIgZmlsbD0iI0YzRjNGMyIvPgogICAgICAgICAgICAgICAgPHBhdGggZD0iTTE2Ljc1OTM3NSwxMjQuMzg3NSBDMTYuODU2MjUsMTI1LjI1OTM3NSAxNi4yNzUsMTI2LjAzNDM3NSAxNS41LDEyNi4xMzEyNSBMNi41ODc1LDEyNy4xOTY4NzUgQzUuODEyNSwxMjcuMjkzNzUgNS4wMzc1LDEyNi43MTI1IDQuOTQwNjI1LDEyNS44NDA2MjUgQzQuODQzNzUsMTI0Ljk2ODc1IDUuNDI1LDEyNC4xOTM3NSA2LjIsMTI0LjA5Njg3NSBMMTUuMTEyNSwxMjMuMDMxMjUgQzE1Ljg4NzUsMTIyLjkzNDM3NSAxNi42NjI1LDEyMy41MTU2MjUgMTYuNzU5Mzc1LDEyNC4zODc1IEwxNi43NTkzNzUsMTI0LjM4NzUgWiBNNS4wMzc1LDEyNS43NDM3NSBDNS4xMzQzNzUsMTI2LjQyMTg3NSA1LjgxMjUsMTI3LjAwMzEyNSA2LjQ5MDYyNSwxMjYuOTA2MjUgTDE1LjQwMzEyNSwxMjUuODQwNjI1IEMxNi4wODEyNSwxMjUuNzQzNzUgMTYuNTY1NjI1LDEyNS4wNjU2MjUgMTYuNDY4NzUsMTI0LjM4NzUgQzE2LjM3MTg3NSwxMjMuNzA5Mzc1IDE1LjY5Mzc1LDEyMy4xMjgxMjUgMTUuMDE1NjI1LDEyMy4yMjUgTDYuMTAzMTI1LDEyNC4yOTA2MjUgQzUuNDI1LDEyNC4zODc1IDQuOTQwNjI1LDEyNS4wNjU2MjUgNS4wMzc1LDEyNS43NDM3NSBMNS4wMzc1LDEyNS43NDM3NSBaIiBmaWxsPSIjRkZGRkZGIi8+CiAgICAgICAgICAgICAgICA8cGF0aCBkPSJNMjcuNTEyNSwxMTQuOTkwNjI1IEMyNy41MTI1LDExNS43NjU2MjUgMjYuOTMxMjUsMTE2LjQ0Mzc1IDI2LjE1NjI1LDExNi40NDM3NSBMNS45MDkzNzUsMTE2LjQ0Mzc1IEM1LjEzNDM3NSwxMTYuNDQzNzUgNC41NTMxMjUsMTE1Ljc2NTYyNSA0LjU1MzEyNSwxMTQuOTkwNjI1IEM0LjU1MzEyNSwxMTQuMjE1NjI1IDUuMTM0Mzc1LDExMy41Mzc1IDUuOTA5Mzc1LDExMy41Mzc1IEwyNi4xNTYyNSwxMTMuNTM3NSBDMjYuOTMxMjUsMTEzLjUzNzUgMjcuNTEyNSwxMTQuMjE1NjI1IDI3LjUxMjUsMTE0Ljk5MDYyNSBMMjcuNTEyNSwxMTQuOTkwNjI1IFoiIGZpbGw9IiNGM0YzRjMiLz4KICAgICAgICAgICAgICAgIDxwYXRoIGQ9Ik0yNy42MDkzNzUsMTE0Ljk5MDYyNSBDMjcuNjA5Mzc1LDExNS44NjI1IDI2LjkzMTI1LDExNi41NDA2MjUgMjYuMTU2MjUsMTE2LjU0MDYyNSBMNS45MDkzNzUsMTE2LjU0MDYyNSBDNS4xMzQzNzUsMTE2LjU0MDYyNSA0LjQ1NjI1LDExNS44NjI1IDQuNDU2MjUsMTE0Ljk5MDYyNSBDNC40NTYyNSwxMTQuMTE4NzUgNS4xMzQzNzUsMTEzLjQ0MDYyNSA1LjkwOTM3NSwxMTMuNDQwNjI1IEwyNi4xNTYyNSwxMTMuNDQwNjI1IEMyNi45MzEyNSwxMTMuNDQwNjI1IDI3LjYwOTM3NSwxMTQuMTE4NzUgMjcuNjA5Mzc1LDExNC45OTA2MjUgTDI3LjYwOTM3NSwxMTQuOTkwNjI1IFogTTQuNjUsMTE0Ljg5Mzc1IEM0LjY1LDExNS41NzE4NzUgNS4yMzEyNSwxMTYuMjUgNS45MDkzNzUsMTE2LjI1IEwyNi4xNTYyNSwxMTYuMjUgQzI2LjgzNDM3NSwxMTYuMjUgMjcuNDE1NjI1LDExNS42Njg3NSAyNy40MTU2MjUsMTE0Ljg5Mzc1IEMyNy40MTU2MjUsMTE0LjIxNTYyNSAyNi44MzQzNzUsMTEzLjUzNzUgMjYuMTU2MjUsMTEzLjUzNzUgTDUuOTA5Mzc1LDExMy41Mzc1IEM1LjIzMTI1LDExMy42MzQzNzUgNC42NSwxMTQuMjE1NjI1IDQuNjUsMTE0Ljg5Mzc1IEw0LjY1LDExNC44OTM3NSBaIiBmaWxsPSIjRkZGRkZGIi8+CiAgICAgICAgICAgICAgICA8cGF0aCBkPSJNMTYuNzU5Mzc1LDEwNS4yMDYyNSBDMTYuNjYyNSwxMDUuOTgxMjUgMTYuMDgxMjUsMTA2LjU2MjUgMTUuMzA2MjUsMTA2LjU2MjUgTDYuMjk2ODc1LDEwNS44ODQzNzUgQzUuNTIxODc1LDEwNS43ODc1IDQuOTQwNjI1LDEwNS4xMDkzNzUgNS4wMzc1LDEwNC4zMzQzNzUgQzUuMTM0Mzc1LDEwMy41NTkzNzUgNS43MTU2MjUsMTAyLjk3ODEyNSA2LjQ5MDYyNSwxMDIuOTc4MTI1IEwxNS41LDEwMy42NTYyNSBDMTYuMTc4MTI1LDEwMy43NTMxMjUgMTYuNzU5Mzc1LDEwNC40MzEyNSAxNi43NTkzNzUsMTA1LjIwNjI1IEwxNi43NTkzNzUsMTA1LjIwNjI1IFoiIGZpbGw9IiNFMkUyRTIiLz4KICAgICAgICAgICAgICAgIDxwYXRoIGQ9Ik0xNi44NTYyNSwxMDUuMjA2MjUgQzE2Ljc1OTM3NSwxMDYuMDc4MTI1IDE2LjA4MTI1LDEwNi42NTkzNzUgMTUuMzA2MjUsMTA2LjY1OTM3NSBMNi4yOTY4NzUsMTA1Ljk4MTI1IEM1LjUyMTg3NSwxMDUuODg0Mzc1IDQuODQzNzUsMTA1LjIwNjI1IDQuOTQwNjI1LDEwNC4zMzQzNzUgQzUuMDM3NSwxMDMuNDYyNSA1LjcxNTYyNSwxMDIuODgxMjUgNi40OTA2MjUsMTAyLjg4MTI1IEwxNS41LDEwMy41NTkzNzUgQzE2LjI3NSwxMDMuNjU2MjUgMTYuODU2MjUsMTA0LjQzMTI1IDE2Ljg1NjI1LDEwNS4yMDYyNSBMMTYuODU2MjUsMTA1LjIwNjI1IFogTTUuMDM3NSwxMDQuMzM0Mzc1IEM0Ljk0MDYyNSwxMDUuMDEyNSA1LjUyMTg3NSwxMDUuNjkwNjI1IDYuMiwxMDUuNjkwNjI1IEwxNS4yMDkzNzUsMTA2LjM2ODc1IEMxNS44ODc1LDEwNi4zNjg3NSAxNi40Njg3NSwxMDUuODg0Mzc1IDE2LjU2NTYyNSwxMDUuMTA5Mzc1IEMxNi42NjI1LDEwNC40MzEyNSAxNi4wODEyNSwxMDMuNzUzMTI1IDE1LjQwMzEyNSwxMDMuNzUzMTI1IEw2LjM5Mzc1LDEwMy4wNzUgQzUuNzE1NjI1LDEwMy4wNzUgNS4xMzQzNzUsMTAzLjY1NjI1IDUuMDM3NSwxMDQuMzM0Mzc1IEw1LjAzNzUsMTA0LjMzNDM3NSBaIiBmaWxsPSIjRkZGRkZGIi8+CiAgICAgICAgICAgICAgICA8cGF0aCBkPSJNMjkuMjU2MjUsOTguMTM0Mzc1IEMyOS4wNjI1LDk4LjkwOTM3NSAyOC4zODQzNzUsOTkuMzkzNzUgMjcuNjA5Mzc1LDk5LjI5Njg3NSBMNy43NSw5NS4yMjgxMjUgQzYuOTc1LDk1LjAzNDM3NSA2LjQ5MDYyNSw5NC4zNTYyNSA2LjY4NDM3NSw5My41ODEyNSBDNi44NzgxMjUsOTIuODA2MjUgNy41NTYyNSw5Mi4zMjE4NzUgOC4zMzEyNSw5Mi40MTg3NSBMMjguMTkwNjI1LDk2LjM5MDYyNSBDMjguODY4NzUsOTYuNTg0Mzc1IDI5LjM1MzEyNSw5Ny4zNTkzNzUgMjkuMjU2MjUsOTguMTM0Mzc1IEwyOS4yNTYyNSw5OC4xMzQzNzUgWiIgZmlsbD0iI0YzRjNGMyIvPgogICAgICAgICAgICAgICAgPHBhdGggZD0iTTI5LjM1MzEyNSw5OC4xMzQzNzUgQzI5LjE1OTM3NSw5OS4wMDYyNSAyOC4zODQzNzUsOTkuNDkwNjI1IDI3LjYwOTM3NSw5OS4zOTM3NSBMNy43NSw5NS40MjE4NzUgQzYuOTc1LDk1LjIyODEyNSA2LjM5Mzc1LDk0LjQ1MzEyNSA2LjU4NzUsOTMuNTgxMjUgQzYuNzgxMjUsOTIuNzA5Mzc1IDcuNTU2MjUsOTIuMjI1IDguMzMxMjUsOTIuMzIxODc1IEwyOC4xOTA2MjUsOTYuMjkzNzUgQzI4Ljk2NTYyNSw5Ni40ODc1IDI5LjQ1LDk3LjI2MjUgMjkuMzUzMTI1LDk4LjEzNDM3NSBMMjkuMzUzMTI1LDk4LjEzNDM3NSBaIE02Ljc4MTI1LDkzLjU4MTI1IEM2LjY4NDM3NSw5NC4yNTkzNzUgNy4wNzE4NzUsOTQuOTM3NSA3Ljc1LDk1LjEzMTI1IEwyNy42MDkzNzUsOTkuMTAzMTI1IEMyOC4yODc1LDk5LjIgMjguOTY1NjI1LDk4LjgxMjUgMjkuMTU5Mzc1LDk4LjAzNzUgQzI5LjI1NjI1LDk3LjM1OTM3NSAyOC44Njg3NSw5Ni42ODEyNSAyOC4xOTA2MjUsOTYuNDg3NSBMOC4zMzEyNSw5Mi41MTU2MjUgQzcuNTU2MjUsOTIuNDE4NzUgNi45NzUsOTIuOTAzMTI1IDYuNzgxMjUsOTMuNTgxMjUgTDYuNzgxMjUsOTMuNTgxMjUgWiIgZmlsbD0iI0ZGRkZGRiIvPgogICAgICAgICAgICAgICAgPHBhdGggZD0iTTIwLjUzNzUsODYuNTA5Mzc1IEMyMC4zNDM3NSw4Ny4yODQzNzUgMTkuNTY4NzUsODcuNzY4NzUgMTguNzkzNzUsODcuNTc1IEwxMC4wNzUsODUuMTUzMTI1IEM5LjMsODQuOTU5Mzc1IDguOTEyNSw4NC4xODQzNzUgOS4xMDYyNSw4My40MDkzNzUgQzkuMyw4Mi42MzQzNzUgMTAuMDc1LDgyLjE1IDEwLjg1LDgyLjM0Mzc1IEwxOS41Njg3NSw4NC43NjU2MjUgQzIwLjM0Mzc1LDg0Ljk1OTM3NSAyMC43MzEyNSw4NS43MzQzNzUgMjAuNTM3NSw4Ni41MDkzNzUgTDIwLjUzNzUsODYuNTA5Mzc1IFoiIGZpbGw9IiNGM0YzRjMiLz4KICAgICAgICAgICAgICAgIDxwYXRoIGQ9Ik0yMC42MzQzNzUsODYuNTA5Mzc1IEMyMC40NDA2MjUsODcuMjg0Mzc1IDE5LjU2ODc1LDg3Ljg2NTYyNSAxOC43OTM3NSw4Ny41NzUgTDEwLjA3NSw4NS4xNTMxMjUgQzkuMyw4NC45NTkzNzUgOC44MTU2MjUsODQuMDg3NSA5LjAwOTM3NSw4My4zMTI1IEM5LjIwMzEyNSw4Mi41Mzc1IDEwLjA3NSw4MS45NTYyNSAxMC44NSw4Mi4yNDY4NzUgTDE5LjU2ODc1LDg0LjY2ODc1IEMyMC4zNDM3NSw4NC44NjI1IDIwLjgyODEyNSw4NS42Mzc1IDIwLjYzNDM3NSw4Ni41MDkzNzUgTDIwLjYzNDM3NSw4Ni41MDkzNzUgWiBNOS4zLDgzLjMxMjUgQzkuMTA2MjUsODMuOTkwNjI1IDkuNDkzNzUsODQuNzY1NjI1IDEwLjE3MTg3NSw4NC45NTkzNzUgTDE4Ljg5MDYyNSw4Ny4zODEyNSBDMTkuNTY4NzUsODcuNTc1IDIwLjI0Njg3NSw4Ny4xODc1IDIwLjQ0MDYyNSw4Ni40MTI1IEMyMC42MzQzNzUsODUuNzM0Mzc1IDIwLjI0Njg3NSw4NC45NTkzNzUgMTkuNTY4NzUsODQuNzY1NjI1IEwxMC44NSw4Mi4zNDM3NSBDMTAuMTcxODc1LDgyLjI0Njg3NSA5LjQ5Mzc1LDgyLjYzNDM3NSA5LjMsODMuMzEyNSBMOS4zLDgzLjMxMjUgWiIgZmlsbD0iI0ZGRkZGRiIvPgogICAgICAgICAgICAgICAgPHBhdGggZD0iTTM0LjE5Njg3NSw4MS44NTkzNzUgQzMzLjkwNjI1LDgyLjYzNDM3NSAzMy4wMzQzNzUsODIuOTI1IDMyLjM1NjI1LDgyLjYzNDM3NSBMMTMuNjU5Mzc1LDc0Ljg4NDM3NSBDMTIuOTgxMjUsNzQuNTkzNzUgMTIuNTkzNzUsNzMuNzIxODc1IDEyLjg4NDM3NSw3My4wNDM3NSBDMTMuMTc1LDcyLjI2ODc1IDE0LjA0Njg3NSw3MS45NzgxMjUgMTQuNzI1LDcyLjI2ODc1IEwzMy40MjE4NzUsODAuMDE4NzUgQzM0LjE5Njg3NSw4MC4zMDkzNzUgMzQuNDg3NSw4MS4xODEyNSAzNC4xOTY4NzUsODEuODU5Mzc1IEwzNC4xOTY4NzUsODEuODU5Mzc1IFoiIGZpbGw9IiNGM0YzRjMiLz4KICAgICAgICAgICAgICAgIDxwYXRoIGQ9Ik0zNC4yOTM3NSw4MS45NTYyNSBDMzQuMDAzMTI1LDgyLjczMTI1IDMzLjEzMTI1LDgzLjExODc1IDMyLjM1NjI1LDgyLjgyODEyNSBMMTMuNjU5Mzc1LDc1LjA3ODEyNSBDMTIuODg0Mzc1LDc0Ljc4NzUgMTIuNTkzNzUsNzMuOTE1NjI1IDEyLjg4NDM3NSw3My4wNDM3NSBDMTMuMTc1LDcyLjI2ODc1IDE0LjA0Njg3NSw3MS44ODEyNSAxNC44MjE4NzUsNzIuMTcxODc1IEwzMy41MTg3NSw3OS45MjE4NzUgQzM0LjI5Mzc1LDgwLjMwOTM3NSAzNC41ODQzNzUsODEuMTgxMjUgMzQuMjkzNzUsODEuOTU2MjUgTDM0LjI5Mzc1LDgxLjk1NjI1IFogTTEzLjA3ODEyNSw3My4xNDA2MjUgQzEyLjc4NzUsNzMuODE4NzUgMTMuMDc4MTI1LDc0LjU5Mzc1IDEzLjc1NjI1LDc0Ljg4NDM3NSBMMzIuNDUzMTI1LDgyLjYzNDM3NSBDMzMuMTMxMjUsODIuOTI1IDMzLjgwOTM3NSw4Mi41Mzc1IDM0LjEsODEuODU5Mzc1IEMzNC4zOTA2MjUsODEuMTgxMjUgMzQuMSw4MC40MDYyNSAzMy40MjE4NzUsODAuMTE1NjI1IEwxNC43MjUsNzIuMzY1NjI1IEMxNC4wNDY4NzUsNzIuMTcxODc1IDEzLjI3MTg3NSw3Mi40NjI1IDEzLjA3ODEyNSw3My4xNDA2MjUgTDEzLjA3ODEyNSw3My4xNDA2MjUgWiIgZmlsbD0iI0ZGRkZGRiIvPgogICAgICAgICAgICAgICAgPHBhdGggZD0iTTI3LjksNjguNzgxMjUgQzI3LjUxMjUsNjkuNDU5Mzc1IDI2LjczNzUsNjkuNzUgMjYuMDU5Mzc1LDY5LjQ1OTM3NSBMMTguMDE4NzUsNjUuMzkwNjI1IEMxNy4zNDA2MjUsNjUuMSAxNy4wNSw2NC4yMjgxMjUgMTcuNDM3NSw2My40NTMxMjUgQzE3LjgyNSw2Mi43NzUgMTguNiw2Mi40ODQzNzUgMTkuMjc4MTI1LDYyLjc3NSBMMjcuMzE4NzUsNjYuODQzNzUgQzI3Ljk5Njg3NSw2Ny4yMzEyNSAyOC4yODc1LDY4LjEwMzEyNSAyNy45LDY4Ljc4MTI1IEwyNy45LDY4Ljc4MTI1IFoiIGZpbGw9IiNGM0YzRjMiLz4KICAgICAgICAgICAgICAgIDxwYXRoIGQ9Ik0yNy45OTY4NzUsNjguODc4MTI1IEMyNy42MDkzNzUsNjkuNjUzMTI1IDI2LjczNzUsNjkuOTQzNzUgMjUuOTYyNSw2OS41NTYyNSBMMTcuOTIxODc1LDY1LjQ4NzUgQzE3LjE0Njg3NSw2NS4xIDE2Ljg1NjI1LDY0LjIyODEyNSAxNy4yNDM3NSw2My40NTMxMjUgQzE3LjYzMTI1LDYyLjY3ODEyNSAxOC41MDMxMjUsNjIuMzg3NSAxOS4yNzgxMjUsNjIuNzc1IEwyNy4zMTg3NSw2Ni44NDM3NSBDMjguMDkzNzUsNjcuMTM0Mzc1IDI4LjM4NDM3NSw2OC4xMDMxMjUgMjcuOTk2ODc1LDY4Ljg3ODEyNSBMMjcuOTk2ODc1LDY4Ljg3ODEyNSBaIE0xNy41MzQzNzUsNjMuNTUgQzE3LjI0Mzc1LDY0LjIyODEyNSAxNy40Mzc1LDY1LjAwMzEyNSAxOC4xMTU2MjUsNjUuMjkzNzUgTDI2LjE1NjI1LDY5LjM2MjUgQzI2LjczNzUsNjkuNjUzMTI1IDI3LjUxMjUsNjkuMzYyNSAyNy45LDY4Ljc4MTI1IEMyOC4xOTA2MjUsNjguMTAzMTI1IDI3Ljk5Njg3NSw2Ny4zMjgxMjUgMjcuMzE4NzUsNjcuMDM3NSBMMTkuMTgxMjUsNjIuOTY4NzUgQzE4LjYsNjIuNjc4MTI1IDE3LjgyNSw2Mi44NzE4NzUgMTcuNTM0Mzc1LDYzLjU1IEwxNy41MzQzNzUsNjMuNTUgWiIgZmlsbD0iI0ZGRkZGRiIvPgogICAgICAgICAgICAgICAgPHBhdGggZD0iTTQyLjE0MDYyNSw2Ni45NDA2MjUgQzQxLjY1NjI1LDY3LjYxODc1IDQwLjg4MTI1LDY3LjgxMjUgNDAuMjAzMTI1LDY3LjMyODEyNSBMMjMuNDQzNzUsNTYuMTg3NSBDMjIuNzY1NjI1LDU1LjggMjIuNjY4NzUsNTQuOTI4MTI1IDIzLjA1NjI1LDU0LjI1IEMyMy40NDM3NSw1My41NzE4NzUgMjQuMzE1NjI1LDUzLjM3ODEyNSAyNC45OTM3NSw1My44NjI1IEw0MS44NSw2NS4xIEM0Mi40MzEyNSw2NS40ODc1IDQyLjYyNSw2Ni4zNTkzNzUgNDIuMTQwNjI1LDY2Ljk0MDYyNSBMNDIuMTQwNjI1LDY2Ljk0MDYyNSBaIiBmaWxsPSIjRjNGM0YzIi8+CiAgICAgICAgICAgICAgICA8cGF0aCBkPSJNNDIuMjM3NSw2Ny4wMzc1IEM0MS43NTMxMjUsNjcuNzE1NjI1IDQwLjc4NDM3NSw2Ny45MDkzNzUgNDAuMTA2MjUsNjcuNTIxODc1IEwyMy4zNDY4NzUsNTYuMjg0Mzc1IEMyMi42Njg3NSw1NS44IDIyLjQ3NSw1NC45MjgxMjUgMjIuOTU5Mzc1LDU0LjE1MzEyNSBDMjMuNDQzNzUsNTMuNDc1IDI0LjQxMjUsNTMuMjgxMjUgMjUuMDkwNjI1LDUzLjY2ODc1IEw0MS44NSw2NC45MDYyNSBDNDIuNjI1LDY1LjM5MDYyNSA0Mi43MjE4NzUsNjYuMzU5Mzc1IDQyLjIzNzUsNjcuMDM3NSBMNDIuMjM3NSw2Ny4wMzc1IFogTTIzLjE1MzEyNSw1NC4yNSBDMjIuNzY1NjI1LDU0LjgzMTI1IDIyLjg2MjUsNTUuNzAzMTI1IDIzLjQ0Mzc1LDU2LjA5MDYyNSBMNDAuMyw2Ny4zMjgxMjUgQzQwLjg4MTI1LDY3LjcxNTYyNSA0MS42NTYyNSw2Ny41MjE4NzUgNDIuMDQzNzUsNjYuOTQwNjI1IEM0Mi40MzEyNSw2Ni4zNTkzNzUgNDIuMzM0Mzc1LDY1LjQ4NzUgNDEuNzUzMTI1LDY1LjEgTDI0Ljg5Njg3NSw1My44NjI1IEMyNC4zMTU2MjUsNTMuNDc1IDIzLjU0MDYyNSw1My42Njg3NSAyMy4xNTMxMjUsNTQuMjUgTDIzLjE1MzEyNSw1NC4yNSBaIiBmaWxsPSIjRkZGRkZGIi8+CiAgICAgICAgICAgICAgICA8cGF0aCBkPSJNMzguNTU2MjUsNTIuODkzNzUgQzM4LjA3MTg3NSw1My40NzUgMzcuMiw1My42Njg3NSAzNi42MTg3NSw1My4xODQzNzUgTDI5LjU0Njg3NSw0Ny42NjI1IEMyOC45NjU2MjUsNDcuMTc4MTI1IDI4Ljg2ODc1LDQ2LjMwNjI1IDI5LjM1MzEyNSw0NS43MjUgQzI5LjgzNzUsNDUuMTQzNzUgMzAuNzA5Mzc1LDQ0Ljk1IDMxLjI5MDYyNSw0NS40MzQzNzUgTDM4LjM2MjUsNTAuOTU2MjUgQzM4Ljk0Mzc1LDUxLjQ0MDYyNSAzOS4wNDA2MjUsNTIuMzEyNSAzOC41NTYyNSw1Mi44OTM3NSBMMzguNTU2MjUsNTIuODkzNzUgWiIgZmlsbD0iI0YzRjNGMyIvPgogICAgICAgICAgICAgICAgPHBhdGggZD0iTTM4LjY1MzEyNSw1Mi45OTA2MjUgQzM4LjE2ODc1LDUzLjY2ODc1IDM3LjIsNTMuNzY1NjI1IDM2LjUyMTg3NSw1My4yODEyNSBMMjkuNDUsNDcuNzU5Mzc1IEMyOC43NzE4NzUsNDcuMjc1IDI4LjY3NSw0Ni4zMDYyNSAyOS4xNTkzNzUsNDUuNjI4MTI1IEMyOS42NDM3NSw0NC45NSAzMC42MTI1LDQ0Ljg1MzEyNSAzMS4yOTA2MjUsNDUuMzM3NSBMMzguMzYyNSw1MC44NTkzNzUgQzM5LjA0MDYyNSw1MS4zNDM3NSAzOS4xMzc1LDUyLjMxMjUgMzguNjUzMTI1LDUyLjk5MDYyNSBMMzguNjUzMTI1LDUyLjk5MDYyNSBaIE0yOS4zNTMxMjUsNDUuNzI1IEMyOC44Njg3NSw0Ni4zMDYyNSAyOC45NjU2MjUsNDcuMDgxMjUgMjkuNTQ2ODc1LDQ3LjU2NTYyNSBMMzYuNjE4NzUsNTMuMDg3NSBDMzcuMiw1My40NzUgMzcuOTc1LDUzLjM3ODEyNSAzOC40NTkzNzUsNTIuNzk2ODc1IEMzOC45NDM3NSw1Mi4yMTU2MjUgMzguODQ2ODc1LDUxLjQ0MDYyNSAzOC4yNjU2MjUsNTAuOTU2MjUgTDMxLjE5Mzc1LDQ1LjQzNDM3NSBDMzAuNjEyNSw0NS4wNDY4NzUgMjkuODM3NSw0NS4xNDM3NSAyOS4zNTMxMjUsNDUuNzI1IEwyOS4zNTMxMjUsNDUuNzI1IFoiIGZpbGw9IiNGRkZGRkYiLz4KICAgICAgICAgICAgICAgIDxwYXRoIGQ9Ik01Mi45OTA2MjUsNTMuODYyNSBDNTIuNDA5Mzc1LDU0LjQ0Mzc1IDUxLjUzNzUsNTQuNDQzNzUgNTEuMDUzMTI1LDUzLjg2MjUgTDM2LjYxODc1LDM5LjYyMTg3NSBDMzYuMDM3NSwzOS4wNDA2MjUgMzYuMTM0Mzc1LDM4LjE2ODc1IDM2LjYxODc1LDM3LjY4NDM3NSBDMzcuMiwzNy4xMDMxMjUgMzguMDcxODc1LDM3LjEwMzEyNSAzOC41NTYyNSwzNy42ODQzNzUgTDUyLjg5Mzc1LDUxLjkyNSBDNTMuNDc1LDUyLjQwOTM3NSA1My40NzUsNTMuMzc4MTI1IDUyLjk5MDYyNSw1My44NjI1IEw1Mi45OTA2MjUsNTMuODYyNSBaIiBmaWxsPSIjRjNGM0YzIi8+CiAgICAgICAgICAgICAgICA8cGF0aCBkPSJNNTIuOTkwNjI1LDUzLjk1OTM3NSBDNTIuNDA5Mzc1LDU0LjU0MDYyNSA1MS40NDA2MjUsNTQuNTQwNjI1IDUwLjg1OTM3NSw1My45NTkzNzUgTDM2LjUyMTg3NSwzOS43MTg3NSBDMzUuOTQwNjI1LDM5LjEzNzUgMzUuOTQwNjI1LDM4LjE2ODc1IDM2LjUyMTg3NSwzNy41ODc1IEMzNy4xMDMxMjUsMzcuMDA2MjUgMzguMDcxODc1LDM3LjAwNjI1IDM4LjY1MzEyNSwzNy41ODc1IEw1Mi45OTA2MjUsNTEuODI4MTI1IEM1My42Njg3NSw1Mi40MDkzNzUgNTMuNjY4NzUsNTMuMzc4MTI1IDUyLjk5MDYyNSw1My45NTkzNzUgTDUyLjk5MDYyNSw1My45NTkzNzUgWiBNMzYuNzE1NjI1LDM3Ljc4MTI1IEMzNi4yMzEyNSwzOC4yNjU2MjUgMzYuMjMxMjUsMzkuMTM3NSAzNi43MTU2MjUsMzkuNjIxODc1IEw1MS4wNTMxMjUsNTMuODYyNSBDNTEuNTM3NSw1NC4zNDY4NzUgNTIuNDA5Mzc1LDU0LjM0Njg3NSA1Mi44OTM3NSw1My44NjI1IEM1My4zNzgxMjUsNTMuMzc4MTI1IDUzLjM3ODEyNSw1Mi41MDYyNSA1Mi44OTM3NSw1Mi4wMjE4NzUgTDM4LjU1NjI1LDM3LjY4NDM3NSBDMzguMDcxODc1LDM3LjIgMzcuMjk2ODc1LDM3LjIgMzYuNzE1NjI1LDM3Ljc4MTI1IEwzNi43MTU2MjUsMzcuNzgxMjUgWiIgZmlsbD0iI0ZGRkZGRiIvPgogICAgICAgICAgICAgICAgPHBhdGggZD0iTTUyLjExODc1LDM5LjQyODEyNSBDNTEuNTM3NSwzOS45MTI1IDUwLjY2NTYyNSwzOS45MTI1IDUwLjE4MTI1LDM5LjMzMTI1IEw0NC4yNzE4NzUsMzIuNTUgQzQzLjc4NzUsMzEuOTY4NzUgNDMuODg0Mzc1LDMxLjA5Njg3NSA0NC40NjU2MjUsMzAuNjEyNSBDNDUuMDQ2ODc1LDMwLjEyODEyNSA0NS45MTg3NSwzMC4xMjgxMjUgNDYuNDAzMTI1LDMwLjcwOTM3NSBMNTIuMzEyNSwzNy40OTA2MjUgQzUyLjc5Njg3NSwzNy45NzUgNTIuNywzOC44NDY4NzUgNTIuMTE4NzUsMzkuNDI4MTI1IEw1Mi4xMTg3NSwzOS40MjgxMjUgWiIgZmlsbD0iI0YzRjNGMyIvPgogICAgICAgICAgICAgICAgPHBhdGggZD0iTTUyLjIxNTYyNSwzOS40MjgxMjUgQzUxLjUzNzUsNDAuMDA5Mzc1IDUwLjY2NTYyNSwzOS45MTI1IDUwLjA4NDM3NSwzOS4zMzEyNSBMNDQuMTc1LDMyLjU1IEM0My41OTM3NSwzMS45Njg3NSA0My42OTA2MjUsMzEgNDQuMzY4NzUsMzAuNDE4NzUgQzQ1LjA0Njg3NSwyOS44Mzc1IDQ1LjkxODc1LDI5LjkzNDM3NSA0Ni41LDMwLjUxNTYyNSBMNTIuNDA5Mzc1LDM3LjI5Njg3NSBDNTIuODkzNzUsMzcuOTc1IDUyLjg5Mzc1LDM4Ljk0Mzc1IDUyLjIxNTYyNSwzOS40MjgxMjUgTDUyLjIxNTYyNSwzOS40MjgxMjUgWiBNNDQuNDY1NjI1LDMwLjYxMjUgQzQzLjg4NDM3NSwzMS4wOTY4NzUgNDMuODg0Mzc1LDMxLjg3MTg3NSA0NC4yNzE4NzUsMzIuNDUzMTI1IEw1MC4xODEyNSwzOS4yMzQzNzUgQzUwLjY2NTYyNSwzOS43MTg3NSA1MS40NDA2MjUsMzkuODE1NjI1IDUyLjAyMTg3NSwzOS4zMzEyNSBDNTIuNjAzMTI1LDM4Ljg0Njg3NSA1Mi42MDMxMjUsMzguMDcxODc1IDUyLjIxNTYyNSwzNy40OTA2MjUgTDQ2LjMwNjI1LDMwLjcwOTM3NSBDNDUuODIxODc1LDMwLjEyODEyNSA0NS4wNDY4NzUsMzAuMTI4MTI1IDQ0LjQ2NTYyNSwzMC42MTI1IEw0NC40NjU2MjUsMzAuNjEyNSBaIiBmaWxsPSIjRkZGRkZGIi8+CiAgICAgICAgICAgICAgICA8cGF0aCBkPSJNNjYuMDY4NzUsNDMuMTA5Mzc1IEM2NS4zOTA2MjUsNDMuNTkzNzUgNjQuNTE4NzUsNDMuNCA2NC4xMzEyNSw0Mi43MjE4NzUgTDUyLjc5Njg3NSwyNS45NjI1IEM1Mi40MDkzNzUsMjUuMjg0Mzc1IDUyLjYwMzEyNSwyNC40MTI1IDUzLjE4NDM3NSwyNC4wMjUgQzUzLjg2MjUsMjMuNTQwNjI1IDU0LjczNDM3NSwyMy43MzQzNzUgNTUuMTIxODc1LDI0LjQxMjUgTDY2LjM1OTM3NSw0MS4xNzE4NzUgQzY2Ljg0Mzc1LDQxLjg1IDY2LjY1LDQyLjcyMTg3NSA2Ni4wNjg3NSw0My4xMDkzNzUgTDY2LjA2ODc1LDQzLjEwOTM3NSBaIiBmaWxsPSIjRjNGM0YzIi8+CiAgICAgICAgICAgICAgICA8cGF0aCBkPSJNNjYuMDY4NzUsNDMuMjA2MjUgQzY1LjM5MDYyNSw0My42OTA2MjUgNjQuNDIxODc1LDQzLjQ5Njg3NSA2My45Mzc1LDQyLjgxODc1IEw1Mi43LDI2LjA1OTM3NSBDNTIuMjE1NjI1LDI1LjM4MTI1IDUyLjQwOTM3NSwyNC40MTI1IDUzLjE4NDM3NSwyMy45MjgxMjUgQzUzLjg2MjUsMjMuNDQzNzUgNTQuODMxMjUsMjMuNjM3NSA1NS4zMTU2MjUsMjQuMzE1NjI1IEw2Ni41NTMxMjUsNDEuMDc1IEM2Ny4wMzc1LDQxLjg1IDY2Ljg0Mzc1LDQyLjcyMTg3NSA2Ni4wNjg3NSw0My4yMDYyNSBMNjYuMDY4NzUsNDMuMjA2MjUgWiBNNTMuMjgxMjUsMjQuMTIxODc1IEM1Mi43LDI0LjUwOTM3NSA1Mi41MDYyNSwyNS4yODQzNzUgNTIuODkzNzUsMjUuODY1NjI1IEw2NC4xMzEyNSw0Mi42MjUgQzY0LjUxODc1LDQzLjIwNjI1IDY1LjI5Mzc1LDQzLjMwMzEyNSA2NS45NzE4NzUsNDIuOTE1NjI1IEM2Ni41NTMxMjUsNDIuNTI4MTI1IDY2Ljc0Njg3NSw0MS43NTMxMjUgNjYuMzU5Mzc1LDQxLjE3MTg3NSBMNTUuMTIxODc1LDI0LjUwOTM3NSBDNTQuNzM0Mzc1LDIzLjkyODEyNSA1My44NjI1LDIzLjczNDM3NSA1My4yODEyNSwyNC4xMjE4NzUgTDUzLjI4MTI1LDI0LjEyMTg3NSBaIiBmaWxsPSIjRkZGRkZGIi8+CiAgICAgICAgICAgICAgICA8cGF0aCBkPSJNNjguMTAzMTI1LDI4Ljc3MTg3NSBDNjcuNDI1LDI5LjE1OTM3NSA2Ni41NTMxMjUsMjguOTY1NjI1IDY2LjE2NTYyNSwyOC4yODc1IEw2MS43MDkzNzUsMjAuNDQwNjI1IEM2MS4zMjE4NzUsMTkuNzYyNSA2MS42MTI1LDE4Ljg5MDYyNSA2Mi4yOTA2MjUsMTguNTAzMTI1IEM2Mi45Njg3NSwxOC4xMTU2MjUgNjMuODQwNjI1LDE4LjMwOTM3NSA2NC4yMjgxMjUsMTguOTg3NSBMNjguNjg0Mzc1LDI2LjgzNDM3NSBDNjguOTc1LDI3LjUxMjUgNjguNzgxMjUsMjguMzg0Mzc1IDY4LjEwMzEyNSwyOC43NzE4NzUgTDY4LjEwMzEyNSwyOC43NzE4NzUgWiIgZmlsbD0iI0YzRjNGMyIvPgogICAgICAgICAgICAgICAgPHBhdGggZD0iTTY4LjEwMzEyNSwyOC44Njg3NSBDNjcuMzI4MTI1LDI5LjI1NjI1IDY2LjQ1NjI1LDI5LjA2MjUgNjYuMDY4NzUsMjguMzg0Mzc1IEw2MS42MTI1LDIwLjUzNzUgQzYxLjIyNSwxOS44NTkzNzUgNjEuNDE4NzUsMTguODkwNjI1IDYyLjE5Mzc1LDE4LjUwMzEyNSBDNjIuOTY4NzUsMTguMTE1NjI1IDYzLjg0MDYyNSwxOC4zMDkzNzUgNjQuMjI4MTI1LDE4Ljk4NzUgTDY4LjY4NDM3NSwyNi44MzQzNzUgQzY5LjA3MTg3NSwyNy41MTI1IDY4Ljg3ODEyNSwyOC4zODQzNzUgNjguMTAzMTI1LDI4Ljg2ODc1IEw2OC4xMDMxMjUsMjguODY4NzUgWiBNNjIuMjkwNjI1LDE4LjYgQzYxLjcwOTM3NSwxOC45ODc1IDYxLjQxODc1LDE5Ljc2MjUgNjEuODA2MjUsMjAuMzQzNzUgTDY2LjI2MjUsMjguMTkwNjI1IEM2Ni42NSwyOC43NzE4NzUgNjcuNDI1LDI4Ljk2NTYyNSA2OC4wMDYyNSwyOC42NzUgQzY4LjU4NzUsMjguMjg3NSA2OC44NzgxMjUsMjcuNTEyNSA2OC40OTA2MjUsMjYuOTMxMjUgTDY0LjAzNDM3NSwxOS4wODQzNzUgQzYzLjc0Mzc1LDE4LjUwMzEyNSA2Mi44NzE4NzUsMTguMjEyNSA2Mi4yOTA2MjUsMTguNiBMNjIuMjkwNjI1LDE4LjYgWiIgZmlsbD0iI0ZGRkZGRiIvPgogICAgICAgICAgICAgICAgPHBhdGggZD0iTTgwLjk4NzUsMzUuMTY1NjI1IEM4MC4yMTI1LDM1LjQ1NjI1IDc5LjQzNzUsMzUuMTY1NjI1IDc5LjE0Njg3NSwzNC40ODc1IEw3MS4zLDE1Ljc5MDYyNSBDNzEuMDA5Mzc1LDE1LjExMjUgNzEuMzk2ODc1LDE0LjI0MDYyNSA3Mi4wNzUsMTMuOTUgQzcyLjg1LDEzLjY1OTM3NSA3My42MjUsMTMuOTUgNzMuOTE1NjI1LDE0LjYyODEyNSBMODEuNzYyNSwzMy4zMjUgQzgyLjA1MzEyNSwzNC4wMDMxMjUgODEuNjY1NjI1LDM0Ljg3NSA4MC45ODc1LDM1LjE2NTYyNSBMODAuOTg3NSwzNS4xNjU2MjUgWiIgZmlsbD0iI0YzRjNGMyIvPgogICAgICAgICAgICAgICAgPHBhdGggZD0iTTgwLjk4NzUsMzUuMjYyNSBDODAuMjEyNSwzNS41NTMxMjUgNzkuMzQwNjI1LDM1LjI2MjUgNzguOTUzMTI1LDM0LjQ4NzUgTDcxLjEwNjI1LDE1Ljc5MDYyNSBDNzAuODE1NjI1LDE1LjAxNTYyNSA3MS4yMDMxMjUsMTQuMTQzNzUgNzEuOTc4MTI1LDEzLjg1MzEyNSBDNzIuNzUzMTI1LDEzLjU2MjUgNzMuNjI1LDEzLjg1MzEyNSA3NC4wMTI1LDE0LjYyODEyNSBMODEuODU5Mzc1LDMzLjMyNSBDODIuMTUsMzQuMDAzMTI1IDgxLjc2MjUsMzQuODc1IDgwLjk4NzUsMzUuMjYyNSBMODAuOTg3NSwzNS4yNjI1IFogTTcyLjE3MTg3NSwxNC4wNDY4NzUgQzcxLjQ5Mzc1LDE0LjMzNzUgNzEuMjAzMTI1LDE1LjExMjUgNzEuNDkzNzUsMTUuNjkzNzUgTDc5LjM0MDYyNSwzNC4zOTA2MjUgQzc5LjYzMTI1LDM1LjA2ODc1IDgwLjQwNjI1LDM1LjM1OTM3NSA4MS4wODQzNzUsMzUuMDY4NzUgQzgxLjc2MjUsMzQuNzc4MTI1IDgyLjA1MzEyNSwzNC4wMDMxMjUgODEuNzYyNSwzMy40MjE4NzUgTDczLjkxNTYyNSwxNC43MjUgQzczLjUyODEyNSwxNC4wNDY4NzUgNzIuODUsMTMuNzU2MjUgNzIuMTcxODc1LDE0LjA0Njg3NSBMNzIuMTcxODc1LDE0LjA0Njg3NSBaIiBmaWxsPSIjRkZGRkZGIi8+CiAgICAgICAgICAgICAgICA8cGF0aCBkPSJNODUuNzM0Mzc1LDIxLjQwOTM3NSBDODQuOTU5Mzc1LDIxLjcgODQuMTg0Mzc1LDIxLjMxMjUgODMuODkzNzUsMjAuNTM3NSBMODEuMDg0Mzc1LDEyLjAxMjUgQzgwLjc5Mzc1LDExLjMzNDM3NSA4MS4yNzgxMjUsMTAuNDYyNSA4MS45NTYyNSwxMC4yNjg3NSBDODIuNjM0Mzc1LDEwLjA3NSA4My41MDYyNSwxMC4zNjU2MjUgODMuNzk2ODc1LDExLjE0MDYyNSBMODYuNjA2MjUsMTkuNjY1NjI1IEM4Ni44OTY4NzUsMjAuMzQzNzUgODYuNTA5Mzc1LDIxLjExODc1IDg1LjczNDM3NSwyMS40MDkzNzUgTDg1LjczNDM3NSwyMS40MDkzNzUgWiIgZmlsbD0iI0YzRjNGMyIvPgogICAgICAgICAgICAgICAgPHBhdGggZD0iTTg1LjgzMTI1LDIxLjUwNjI1IEM4NS4wNTYyNSwyMS43OTY4NzUgODQuMTg0Mzc1LDIxLjQwOTM3NSA4My44OTM3NSwyMC42MzQzNzUgTDgxLjA4NDM3NSwxMi4xMDkzNzUgQzgwLjc5Mzc1LDExLjMzNDM3NSA4MS4yNzgxMjUsMTAuNDYyNSA4Mi4wNTMxMjUsMTAuMTcxODc1IEM4Mi44MjgxMjUsOS44ODEyNSA4My43LDEwLjI2ODc1IDgzLjk5MDYyNSwxMS4wNDM3NSBMODYuOCwxOS41Njg3NSBDODYuOTkzNzUsMjAuMzQzNzUgODYuNjA2MjUsMjEuMjE1NjI1IDg1LjgzMTI1LDIxLjUwNjI1IEw4NS44MzEyNSwyMS41MDYyNSBaIE04Mi4wNTMxMjUsMTAuMzY1NjI1IEM4MS4zNzUsMTAuNTU5Mzc1IDgwLjk4NzUsMTEuMzM0Mzc1IDgxLjE4MTI1LDEyLjAxMjUgTDgzLjk5MDYyNSwyMC41Mzc1IEM4NC4xODQzNzUsMjEuMjE1NjI1IDg0Ljk1OTM3NSwyMS41MDYyNSA4NS42Mzc1LDIxLjMxMjUgQzg2LjMxNTYyNSwyMS4xMTg3NSA4Ni43MDMxMjUsMjAuMzQzNzUgODYuNTA5Mzc1LDE5LjY2NTYyNSBMODMuNywxMS4xNDA2MjUgQzgzLjUwNjI1LDEwLjQ2MjUgODIuNzMxMjUsMTAuMDc1IDgyLjA1MzEyNSwxMC4zNjU2MjUgTDgyLjA1MzEyNSwxMC4zNjU2MjUgWiIgZmlsbD0iI0ZGRkZGRiIvPgogICAgICAgICAgICAgICAgPHBhdGggZD0iTTk3LjE2NTYyNSwzMC4yMjUgQzk2LjM5MDYyNSwzMC40MTg3NSA5NS42MTU2MjUsMjkuOTM0Mzc1IDk1LjUxODc1LDI5LjE1OTM3NSBMOTEuNDUsOS4zIEM5MS4yNTYyNSw4LjUyNSA5MS44Mzc1LDcuODQ2ODc1IDkyLjYxMjUsNy42NTMxMjUgQzkzLjM4NzUsNy40NTkzNzUgOTQuMTYyNSw3Ljk0Mzc1IDk0LjI1OTM3NSw4LjcxODc1IEw5OC4zMjgxMjUsMjguNTc4MTI1IEM5OC40MjUsMjkuMjU2MjUgOTcuOTQwNjI1LDMwLjAzMTI1IDk3LjE2NTYyNSwzMC4yMjUgTDk3LjE2NTYyNSwzMC4yMjUgWiIgZmlsbD0iI0YzRjNGMyIvPgogICAgICAgICAgICAgICAgPHBhdGggZD0iTTk3LjE2NTYyNSwzMC4zMjE4NzUgQzk2LjI5Mzc1LDMwLjUxNTYyNSA5NS41MTg3NSwyOS45MzQzNzUgOTUuMzI1LDI5LjE1OTM3NSBMOTEuMjU2MjUsOS4zIEM5MS4wNjI1LDguNTI1IDkxLjY0Mzc1LDcuNjUzMTI1IDkyLjQxODc1LDcuNTU2MjUgQzkzLjI5MDYyNSw3LjM2MjUgOTQuMDY1NjI1LDcuOTQzNzUgOTQuMjU5Mzc1LDguNzE4NzUgTDk4LjMyODEyNSwyOC41NzgxMjUgQzk4LjUyMTg3NSwyOS4zNTMxMjUgOTguMDM3NSwzMC4xMjgxMjUgOTcuMTY1NjI1LDMwLjMyMTg3NSBMOTcuMTY1NjI1LDMwLjMyMTg3NSBaIE05Mi42MTI1LDcuNzUgQzkxLjkzNDM3NSw3Ljg0Njg3NSA5MS40NSw4LjUyNSA5MS41NDY4NzUsOS4zIEw5NS42MTU2MjUsMjkuMTU5Mzc1IEM5NS43MTI1LDI5LjgzNzUgOTYuNDg3NSwzMC4zMjE4NzUgOTcuMTY1NjI1LDMwLjEyODEyNSBDOTcuODQzNzUsMzAuMDMxMjUgOTguMzI4MTI1LDI5LjM1MzEyNSA5OC4yMzEyNSwyOC41NzgxMjUgTDk0LjE2MjUsOC43MTg3NSBDOTMuOTY4NzUsOC4wNDA2MjUgOTMuMjkwNjI1LDcuNjUzMTI1IDkyLjYxMjUsNy43NSBMOTIuNjEyNSw3Ljc1IFoiIGZpbGw9IiNGRkZGRkYiLz4KICAgICAgICAgICAgICAgIDxwYXRoIGQ9Ik0xMDQuNTI4MTI1LDE3LjYzMTI1IEMxMDMuNzUzMTI1LDE3LjcyODEyNSAxMDMuMDc1LDE3LjI0Mzc1IDEwMi44ODEyNSwxNi40Njg3NSBMMTAxLjcxODc1LDcuNTU2MjUgQzEwMS42MjE4NzUsNi43ODEyNSAxMDIuMjAzMTI1LDYuMTAzMTI1IDEwMi45NzgxMjUsNi4wMDYyNSBDMTAzLjc1MzEyNSw1LjkwOTM3NSAxMDQuNDMxMjUsNi4zOTM3NSAxMDQuNjI1LDcuMTY4NzUgTDEwNS43ODc1LDE2LjA4MTI1IEMxMDUuODg0Mzc1LDE2Ljg1NjI1IDEwNS4zMDMxMjUsMTcuNTM0Mzc1IDEwNC41MjgxMjUsMTcuNjMxMjUgTDEwNC41MjgxMjUsMTcuNjMxMjUgWiIgZmlsbD0iI0YzRjNGMyIvPgogICAgICAgICAgICAgICAgPHBhdGggZD0iTTEwNC41MjgxMjUsMTcuNzI4MTI1IEMxMDMuNjU2MjUsMTcuODI1IDEwMi44ODEyNSwxNy4yNDM3NSAxMDIuNzg0Mzc1LDE2LjQ2ODc1IEwxMDEuNjIxODc1LDcuNTU2MjUgQzEwMS41MjUsNi43ODEyNSAxMDIuMTA2MjUsNi4wMDYyNSAxMDIuOTc4MTI1LDUuOTA5Mzc1IEMxMDMuODUsNS44MTI1IDEwNC42MjUsNi4zOTM3NSAxMDQuNzIxODc1LDcuMTY4NzUgTDEwNS44ODQzNzUsMTYuMDgxMjUgQzEwNS45ODEyNSwxNi44NTYyNSAxMDUuNCwxNy42MzEyNSAxMDQuNTI4MTI1LDE3LjcyODEyNSBMMTA0LjUyODEyNSwxNy43MjgxMjUgWiBNMTAzLjA3NSw2LjEwMzEyNSBDMTAyLjM5Njg3NSw2LjIgMTAxLjgxNTYyNSw2Ljg3ODEyNSAxMDEuOTEyNSw3LjU1NjI1IEwxMDMuMDc1LDE2LjQ2ODc1IEMxMDMuMTcxODc1LDE3LjE0Njg3NSAxMDMuODUsMTcuNjMxMjUgMTA0LjUyODEyNSwxNy41MzQzNzUgQzEwNS4yMDYyNSwxNy40Mzc1IDEwNS43ODc1LDE2Ljc1OTM3NSAxMDUuNjkwNjI1LDE2LjA4MTI1IEwxMDQuNTI4MTI1LDcuMTY4NzUgQzEwNC40MzEyNSw2LjQ5MDYyNSAxMDMuNzUzMTI1LDYuMDA2MjUgMTAzLjA3NSw2LjEwMzEyNSBMMTAzLjA3NSw2LjEwMzEyNSBaIiBmaWxsPSIjRkZGRkZGIi8+CiAgICAgICAgICAgICAgICA8Y2lyY2xlIGZpbGwtb3BhY2l0eT0iMC4yMDAwMDAwMDMiIGZpbGw9InVybCgjbGluZWFyR3JhZGllbnQtNCkiIGN4PSIxMTQuOTkwNjI1IiBjeT0iMTE1LjE4NDM3NSIgcj0iMTE0LjciLz4KICAgICAgICAgICAgPC9nPgogICAgICAgICAgICA8cGF0aCBkPSJNMjA0LjExNTYyNSw1MS4xNSBMMTExLjYsMTEwLjQzNzUgTDExMS41MDMxMjUsMTEwLjQzNzUgTDExMS41MDMxMjUsMTEwLjUzNDM3NSBMMTExLjQwNjI1LDExMC42MzEyNSBMNTMuNjY4NzUsMjA1Ljg1OTM3NSBMMTM4LjUzMTI1LDEzNy41NjI1IEwxMzguNjI4MTI1LDEzNy40NjU2MjUgTDEzOC42MjgxMjUsMTM3LjM2ODc1IEwyMDQuMTE1NjI1LDUxLjE1IFoiIGZpbGw9ImJsYWNrIiBmaWxsLW9wYWNpdHk9IjAuMDUiIGZpbHRlcj0idXJsKCNmaWx0ZXItNSkiLz4KICAgICAgICAgICAgPHBhdGggZD0iTTIwMi4zNzE4NzUsNDUuNjI4MTI1IEwxMTAuOTIxODc1LDExMC42MzEyNSBMMTM4LjA0Njg3NSwxMzcuNTYyNSBMMjAyLjM3MTg3NSw0NS42MjgxMjUiIGZpbGw9IiNDRDE1MUUiLz4KICAgICAgICAgICAgPHBhdGggZD0iTTExMS4wMTg3NSwxMTAuNDM3NSBMMTI0LjY3ODEyNSwxMjMuOTAzMTI1IEwyMDIuMzcxODc1LDQ1LjYyODEyNSBMMTExLjAxODc1LDExMC40Mzc1IFoiIGZpbGw9IiNGQTUxNTMiLz4KICAgICAgICAgICAgPHBhdGggZD0iTTExMS4wMTg3NSwxMTAuNDM3NSBMMTM4LjE0Mzc1LDEzNy4zNjg3NSBMNDYuNjkzNzUsMjAyLjM3MTg3NSBMMTExLjAxODc1LDExMC40Mzc1IFoiIGZpbGw9IiNBQ0FDQUMiLz4KICAgICAgICAgICAgPHBhdGggZD0iTTQ2LjY5Mzc1LDIwMi4zNzE4NzUgTDEyNC42NzgxMjUsMTIzLjkwMzEyNSBMMTExLjAxODc1LDExMC40Mzc1IEw0Ni42OTM3NSwyMDIuMzcxODc1IFoiIGZpbGw9IiNFRUVFRUUiLz4KICAgICAgICA8L2c+CiAgICA8L2c+Cjwvc3ZnPg==;" parent="1" vertex="1">
                    <mxGeometry x="567" y="344.20000000000005" width="67.5" height="67.5" as="geometry"/>
                </mxCell>
                <mxCell id="17" value="" style="fontColor=#0066CC;verticalAlign=top;verticalLabelPosition=bottom;labelPosition=center;align=center;html=1;outlineConnect=0;fillColor=#CCCCCC;strokeColor=#6881B3;gradientColor=none;gradientDirection=north;strokeWidth=2;shape=mxgraph.networks.web_server;" parent="1" vertex="1">
                    <mxGeometry x="92" y="626.65" width="105" height="105" as="geometry"/>
                </mxCell>
                <mxCell id="26" value="" style="sketch=0;aspect=fixed;html=1;points=[];align=center;image;fontSize=12;image=img/lib/mscae/Database_General.svg;" parent="1" vertex="1">
                    <mxGeometry x="107.26" y="823.65" width="74.48" height="98" as="geometry"/>
                </mxCell>
                <mxCell id="27" value="" style="endArrow=classic;startArrow=classic;html=1;" parent="1" source="26" target="17" edge="1">
                    <mxGeometry width="50" height="50" relative="1" as="geometry">
                        <mxPoint x="44.5" y="799.65" as="sourcePoint"/>
                        <mxPoint x="231.5" y="749.65" as="targetPoint"/>
                    </mxGeometry>
                </mxCell>
                <mxCell id="28" value="" style="shape=image;verticalLabelPosition=bottom;labelBackgroundColor=#ffffff;verticalAlign=top;aspect=fixed;imageAspect=0;image=data:image/svg+xml,PHN2ZyB4bWxucz0iaHR0cDovL3d3dy53My5vcmcvMjAwMC9zdmciIHhtbG5zOnhsaW5rPSJodHRwOi8vd3d3LnczLm9yZy8xOTk5L3hsaW5rIiB2ZXJzaW9uPSIxLjEiIGlkPSJMYXllcl8xIiB4PSIwcHgiIHk9IjBweCIgdmlld0JveD0iMCAwIDI5MS4zNDYgMjkxLjM0NiIgc3R5bGU9ImVuYWJsZS1iYWNrZ3JvdW5kOm5ldyAwIDAgMjkxLjM0NiAyOTEuMzQ2OyIgeG1sOnNwYWNlPSJwcmVzZXJ2ZSI+CjxnPgoJPHBhdGggc3R5bGU9ImZpbGw6IzI2QTZEMTsiIGQ9Ik0xMTcuNTQ3LDI2Ni4xNTZMMCwyNDkuMTQxdi05NC4yOTZoMTE3LjU0N1YyNjYuMTU2eiIvPgoJPHBhdGggc3R5bGU9ImZpbGw6IzNEQjM5RTsiIGQ9Ik0yOTEuMzQ2LDEzNi41MUgxMzYuMzFsMC4wNTUtMTE0LjA2TDI5MS4zNDYsMC4wMDlWMTM2LjUxeiIvPgoJPHBhdGggc3R5bGU9ImZpbGw6I0Y0QjQ1OTsiIGQ9Ik0yOTEuMzQ2LDI5MS4zMzdsLTE1NS4wOTEtMjIuNDU5bDAuMTgyLTExNC4wMTVoMTU0LjkwOVYyOTEuMzM3eiIvPgoJPHBhdGggc3R5bGU9ImZpbGw6I0UyNTc0QzsiIGQ9Ik0xMTcuNTQ3LDEzNi41MUgwVjQyLjIwNWwxMTcuNTQ3LTE3LjAyNFYxMzYuNTF6Ii8+CjwvZz4KPGc+CjwvZz4KPGc+CjwvZz4KPGc+CjwvZz4KPGc+CjwvZz4KPGc+CjwvZz4KPGc+CjwvZz4KPGc+CjwvZz4KPGc+CjwvZz4KPGc+CjwvZz4KPGc+CjwvZz4KPGc+CjwvZz4KPGc+CjwvZz4KPGc+CjwvZz4KPGc+CjwvZz4KPGc+CjwvZz4KPC9zdmc+;" parent="1" vertex="1">
                    <mxGeometry x="-404" y="350.65" width="76" height="76" as="geometry"/>
                </mxCell>
                <mxCell id="29" value="" style="shape=image;verticalLabelPosition=bottom;labelBackgroundColor=#ffffff;verticalAlign=top;aspect=fixed;imageAspect=0;image=data:image/svg+xml,PHN2ZyB4bWxucz0iaHR0cDovL3d3dy53My5vcmcvMjAwMC9zdmciIHhtbG5zOnhsaW5rPSJodHRwOi8vd3d3LnczLm9yZy8xOTk5L3hsaW5rIiB2ZXJzaW9uPSIxLjEiIGlkPSJMYXllcl8xIiB4PSIwcHgiIHk9IjBweCIgdmlld0JveD0iMCAwIDI5MS41MzggMjkxLjUzOCIgc3R5bGU9ImVuYWJsZS1iYWNrZ3JvdW5kOm5ldyAwIDAgMjkxLjUzOCAyOTEuNTM4OyIgeG1sOnNwYWNlPSJwcmVzZXJ2ZSI+CjxnPgoJPHBhdGggc3R5bGU9ImZpbGw6I0NDRDBEMjsiIGQ9Ik0xODguMzczLDQ0LjMwOGMxMC45Ny0xMS43NDQsMTguMzktMjguMDQ5LDE2LjM1OS00NC4zMDhjLTE1LjgwNCwwLjU2NC0zNC45NTgsOS4yNzctNDYuMzAyLDIxLjAyJiMxMDsmIzk7JiM5O2MtMTAuMTY5LDEwLjM5Ni0xOS4wNzIsMjcuMDExLTE2LjY5Niw0Mi45NTFDMTU5LjM2OSw2NS4xNjQsMTc3LjM4NSw1Ni4wMzMsMTg4LjM3Myw0NC4zMDh6IE0yMjIuMDMsMTU2LjU5MyYjMTA7JiM5OyYjOTtjLTAuMzM3LTM2LjQ1MSwyOC44NTktNTMuOTU4LDMwLjE1Mi01NC44MDRjLTE2LjQxNC0yNC43NTMtNDEuOTc3LTI4LjE0LTUxLjA4MS0yOC41MjJjLTIxLjc2Ny0yLjI4NS00Mi40NDIsMTMuMTgyLTUzLjQ5MywxMy4xODImIzEwOyYjOTsmIzk7Yy0xMS4wMDYsMC0yOC4wMy0xMi44ODItNDYuMDgzLTEyLjUzNmMtMjMuNzMzLDAuMzkxLTQ1LjYwMSwxNC4yMTEtNTcuNzksMzYuMTE0QzE5LjA4MSwxNTQuMDksMzcuNDE2LDIxOS4zNjMsNjEuNDQsMjU1LjEwNCYjMTA7JiM5OyYjOTtjMTEuNzQ0LDE3LjQ5NywyNS43MjcsMzcuMTI1LDQ0LjA4OSwzNi40MTVjMTcuNzI1LTAuNzEsMjQuNDA3LTExLjc4OSw0NS43OTItMTEuNzg5YzIxLjM5NCwwLDI3LjM4NCwxMS43ODksNDYuMTAxLDExLjQzNCYjMTA7JiM5OyYjOTtjMTkuMDQ1LTAuMzU1LDMxLjA5OC0xNy44MzQsNDIuNzQyLTM1LjM4NmMxMy40NzMtMjAuMjkyLDE5LjAyNy0zOS45MzgsMTkuMzQ1LTQwLjkzJiMxMDsmIzk7JiM5O0MyNTkuMSwyMTQuNjExLDIyMi40MjEsMjAwLjE4MiwyMjIuMDMsMTU2LjU5M3oiLz4KPC9nPgo8Zz4KPC9nPgo8Zz4KPC9nPgo8Zz4KPC9nPgo8Zz4KPC9nPgo8Zz4KPC9nPgo8Zz4KPC9nPgo8Zz4KPC9nPgo8Zz4KPC9nPgo8Zz4KPC9nPgo8Zz4KPC9nPgo8Zz4KPC9nPgo8Zz4KPC9nPgo8Zz4KPC9nPgo8Zz4KPC9nPgo8Zz4KPC9nPgo8L3N2Zz4=;" parent="1" vertex="1">
                    <mxGeometry x="-296" y="336" width="86" height="86" as="geometry"/>
                </mxCell>
                <mxCell id="30" value="" style="shape=image;verticalLabelPosition=bottom;labelBackgroundColor=#ffffff;verticalAlign=top;aspect=fixed;imageAspect=0;image=data:image/svg+xml,PHN2ZyB4bWxucz0iaHR0cDovL3d3dy53My5vcmcvMjAwMC9zdmciIHdpZHRoPSIyNHB4IiBoZWlnaHQ9IjI0cHgiIHZpZXdCb3g9IjAgMCAyNCAyNCI+CiAgPHBhdGggZmlsbD0iI0RENDgxNCIgZmlsbC1ydWxlPSJldmVub2RkIiBkPSJNMjQsMTIuMDAwMTI3IEMyNCwxOC42MjcyMzA5IDE4LjYyNzMxNTUsMjMuOTk5OTE1MyAxMS45OTk4NzMsMjMuOTk5OTE1MyBDNS4zNzI0MzA0NiwyMy45OTk5MTUzIDAsMTguNjI3MzE1NSAwLDEyLjAwMDEyNyBDMCw1LjM3MjUxNTEzIDUuMzcyMzQ1NzksMCAxMS45OTk3ODgzLDAgQzE4LjYyNzIzMDksMCAyNCw1LjM3MjUxNTEzIDI0LDEyLjAwMDEyNyBMMjQsMTIuMDAwMTI3IFogTTMuODQwMTM1NDcsMTAuMzk4MDY2OCBDMi45NTUxMTYxNSwxMC4zOTgwNjY4IDIuMjM3OTkwNTgsMTEuMTE1MTkyNCAyLjIzNzk5MDU4LDEyLjAwMDIxMTcgQzIuMjM3OTkwNTgsMTIuODg0ODkyMyAyLjk1NTExNjE1LDEzLjYwMjEwMjYgMy44NDAxMzU0NywxMy42MDIxMDI2IEM0LjcyNDgxNjExLDEzLjYwMjEwMjYgNS40NDIwMjYzNSwxMi44ODQ4OTIzIDUuNDQyMDI2MzUsMTIuMDAwMjExNyBDNS40NDIwMjYzNSwxMS4xMTUxMDc3IDQuNzI0OTAwNzgsMTAuMzk4MDY2OCAzLjg0MDEzNTQ3LDEwLjM5ODA2NjggTDMuODQwMTM1NDcsMTAuMzk4MDY2OCBaIE0xNS4yNzkxNzczLDE3LjY3OTU1ODMgQzE0LjUxMjg2MDUsMTguMTIxOTQxIDE0LjI1MDU2MzYsMTkuMTAxMzYzNSAxNC42OTI3NzY5LDE5Ljg2NzM0MTYgQzE1LjEzNTI0NDIsMjAuNjMzNjU4NSAxNi4xMTQ1ODIsMjAuODk2MTI0NyAxNi44ODA4OTg5LDIwLjQ1Mzc0MjEgQzE3LjY0Njk2MTcsMjAuMDExNDQ0MSAxNy45MDk0MjgsMTkuMDMyMDIxNiAxNy40NjcwNDUzLDE4LjI2NTc4OTQgQzE3LjAyNDc0NzMsMTcuNDk5ODExMyAxNi4wNDUyNDAyLDE3LjIzNzI2MDMgMTUuMjc5MTc3MywxNy42Nzk1NTgzIEwxNS4yNzkxNzczLDE3LjY3OTU1ODMgWiBNNy4zMjAwOTk0OCwxMS45OTk5NTc3IEM3LjMyMDA5OTQ4LDEwLjQxNjYwODggOC4xMDY5MDU2MSw5LjAxODA4Njg5IDkuMzEwMTAxNzgsOC4xNzEyNTIxOCBMOC4xMzg4MjQ5LDYuMjA5Mjc0NTEgQzYuNzM2NzQ3MDQsNy4xNDYwMjUwOCA1LjY5MzgyNDYzLDguNTc4MDc0ODkgNS4yNjA1ODU5NiwxMC4yNTUzMTkgQzUuNzY2NjM3ODYsMTAuNjY3ODE0NCA2LjA4OTk3OTM2LDExLjI5NTk1NTQgNi4wODk5NzkzNiwxMi4wMDAxMjcgQzYuMDg5OTc5MzYsMTIuNzA0MTI5MyA1Ljc2NjYzNzg2LDEzLjMzMjI3MDMgNS4yNjA1MDEzLDEzLjc0NDY4MSBDNS42OTM2NTUzLDE1LjQyMjA5NDQgNi43MzY2NjIzNywxNi44NTQxNDQzIDguMTM4NzQwMjMsMTcuNzkwODEwMiBMOS4zMTAxMDE3OCwxNS44Mjg2NjMyIEM4LjEwNjkwNTYxLDE0Ljk4MTk5NzggNy4zMjAwOTk0OCwxMy41ODM1NjA2IDcuMzIwMDk5NDgsMTEuOTk5OTU3NyBMNy4zMjAwOTk0OCwxMS45OTk5NTc3IFogTTEyLjAwMDA0MjMsNy4zMjAwMTQ4MiBDMTQuNDQ0OTU3OSw3LjMyMDAxNDgyIDE2LjQ1MDQ1NDIsOS4xOTQ2MTY2MiAxNi42NjA2ODEyLDExLjU4NDkyMjMgTDE4Ljk0Mzk2ODQsMTEuNTUxNTYzNyBDMTguODMxNjE1OSw5Ljc4Njc3NDM4IDE4LjA2MDcyNzEsOC4yMDE5ODYxNCAxNi44NzU5ODgyLDcuMDM3MjI4NTggQzE2LjI2Njg5NzEsNy4yNjczNTIyMyAxNS41NjMyMzM2LDcuMjMyNDY5NjIgMTQuOTU1MDczOCw2Ljg4MTI3MjgyIEMxNC4zNDYxNTIxLDYuNTI5NzM3MzYgMTMuOTY0MDUyLDUuOTM2NzMyOTMgMTMuODU5NDA0Miw1LjI5MzE4MjU4IEMxMy4yNjc0MTU3LDUuMTI5MzUyODMgMTIuNjQ0MzU0Nyw1LjA0MDAyOTYzIDEyLjAwMDEyNyw1LjA0MDAyOTYzIEMxMC44OTIxODA3LDUuMDQwMDI5NjMgOS44NDU0NDgyOSw1LjMwMDEyNTI0IDguOTE1NjQwMzgsNS43NjA3MTEyIEwxMC4wMjg2NjY3LDcuNzU1NDU0ODIgQzEwLjYyNzg1MTgsNy40NzY2NDc5MSAxMS4yOTU1MzIxLDcuMzIwMDE0ODIgMTIuMDAwMDQyMyw3LjMyMDAxNDgyIEwxMi4wMDAwNDIzLDcuMzIwMDE0ODIgWiBNMTIuMDAwMDQyMywxNi42Nzk5ODUyIEMxMS4yOTU0NDc0LDE2LjY3OTk4NTIgMTAuNjI3ODUxOCwxNi41MjMzNTIxIDEwLjAyODU4MiwxNi4yNDQ1NDUyIEw4LjkxNTM4NjM4LDE4LjIzOTQ1ODEgQzkuODQ1Mjc4OTYsMTguNjk5ODc0OCAxMC44OTIwOTYsMTguOTYwMDU1IDEyLjAwMDA0MjMsMTguOTYwMDU1IEMxMi42NDQyNywxOC45NjAwNTUgMTMuMjY3MzMxMSwxOC44NzA3MzE4IDEzLjg1OTQwNDIsMTguNzA2OTAyMSBDMTMuOTY0MDUyLDE4LjA2MzM1MTcgMTQuMzQ2MjM2NywxNy40NzAzNDczIDE0Ljk1NTI0MzIsMTcuMTE4NTU3OCBDMTUuNTYzNDAyOSwxNi43Njc1MzA0IDE2LjI2NzA2NjUsMTYuNzMyNjQ3OCAxNi44NzYxNTc2LDE2Ljk2Mjg1NjEgQzE4LjA2MDgxMTcsMTUuNzk4MDEzOSAxOC44MzE3MDA2LDE0LjIxMzIyNTYgMTguOTQzODgzNywxMi40NDg0MzYzIEwxNi42NjA1OTY1LDEyLjQxNTA3NzcgQzE2LjQ1MDUzODksMTQuODA1NzIyIDE0LjQ0NDk1NzksMTYuNjc5OTg1MiAxMi4wMDAwNDIzLDE2LjY3OTk4NTIgTDEyLjAwMDA0MjMsMTYuNjc5OTg1MiBaIE0xNS4yNzg5MjMzLDYuMzIwMjcyMzQgQzE2LjA0NTE1NTUsNi43NjI4MjQzMyAxNy4wMjQ2NjI3LDYuNTAwMjczNCAxNy40NjY4NzYsNS43MzQyOTUyNCBDMTcuOTA5MzQzMyw0Ljk2Nzk3ODQxIDE3LjY0NzA0NjQsMy45ODg1NTU5MSAxNi44ODA3Mjk1LDMuNTQ2MDg4NTggQzE2LjExNDU4MiwzLjEwMzc5MDU5IDE1LjEzNTE1OTUsMy4zNjYyNTY4NiAxNC42OTI2OTIyLDQuMTMyNTczNjkgQzE0LjI1MDM5NDIsNC44OTg1NTE4NSAxNC41MTI4NjA1LDUuODc4MDU5MDIgMTUuMjc4OTIzMyw2LjMyMDI3MjM0IEwxNS4yNzg5MjMzLDYuMzIwMjcyMzQgWiIvPgo8L3N2Zz4=;" parent="1" vertex="1">
                    <mxGeometry x="-178" y="351.65" width="75" height="75" as="geometry"/>
                </mxCell>
                <mxCell id="31" value="" style="endArrow=classic;startArrow=classic;html=1;" parent="1" source="17" target="28" edge="1">
                    <mxGeometry width="50" height="50" relative="1" as="geometry">
                        <mxPoint x="-325" y="568.65" as="sourcePoint"/>
                        <mxPoint x="-275" y="518.65" as="targetPoint"/>
                    </mxGeometry>
                </mxCell>
                <mxCell id="32" value="" style="endArrow=classic;startArrow=classic;html=1;" parent="1" source="17" target="29" edge="1">
                    <mxGeometry width="50" height="50" relative="1" as="geometry">
                        <mxPoint x="157" y="640.6548775710087" as="sourcePoint"/>
                        <mxPoint x="-263" y="401.6538981390793" as="targetPoint"/>
                    </mxGeometry>
                </mxCell>
                <mxCell id="33" value="" style="endArrow=classic;startArrow=classic;html=1;" parent="1" source="17" target="30" edge="1">
                    <mxGeometry width="50" height="50" relative="1" as="geometry">
                        <mxPoint x="319" y="655.7048775710086" as="sourcePoint"/>
                        <mxPoint x="-101" y="416.70389813907934" as="targetPoint"/>
                    </mxGeometry>
                </mxCell>
                <mxCell id="34" value="" style="endArrow=classic;startArrow=classic;html=1;" parent="1" source="17" target="6" edge="1">
                    <mxGeometry width="50" height="50" relative="1" as="geometry">
                        <mxPoint x="460" y="663.6548775710087" as="sourcePoint"/>
                        <mxPoint x="40" y="424.6538981390793" as="targetPoint"/>
                    </mxGeometry>
                </mxCell>
                <mxCell id="35" value="" style="endArrow=classic;startArrow=classic;html=1;" parent="1" source="17" target="4" edge="1">
                    <mxGeometry width="50" height="50" relative="1" as="geometry">
                        <mxPoint x="629" y="706.6548775710087" as="sourcePoint"/>
                        <mxPoint x="209" y="467.6538981390793" as="targetPoint"/>
                    </mxGeometry>
                </mxCell>
                <mxCell id="36" value="" style="endArrow=classic;startArrow=classic;html=1;" parent="1" source="17" target="10" edge="1">
                    <mxGeometry width="50" height="50" relative="1" as="geometry">
                        <mxPoint x="700" y="696.6548775710087" as="sourcePoint"/>
                        <mxPoint x="280" y="457.6538981390793" as="targetPoint"/>
                    </mxGeometry>
                </mxCell>
                <mxCell id="37" value="" style="endArrow=classic;startArrow=classic;html=1;" parent="1" source="17" target="12" edge="1">
                    <mxGeometry width="50" height="50" relative="1" as="geometry">
                        <mxPoint x="753" y="707.6548775710087" as="sourcePoint"/>
                        <mxPoint x="333" y="468.6538981390793" as="targetPoint"/>
                    </mxGeometry>
                </mxCell>
                <mxCell id="38" value="" style="endArrow=classic;startArrow=classic;html=1;" parent="1" source="17" target="15" edge="1">
                    <mxGeometry width="50" height="50" relative="1" as="geometry">
                        <mxPoint x="839.5" y="804.6548775710087" as="sourcePoint"/>
                        <mxPoint x="419.5" y="565.6538981390793" as="targetPoint"/>
                    </mxGeometry>
                </mxCell>
                <mxCell id="39" value="Desktop Version" style="text;html=1;strokeColor=none;fillColor=none;align=center;verticalAlign=middle;whiteSpace=wrap;rounded=0;" parent="1" vertex="1">
                    <mxGeometry x="-303.5" y="272" width="101" height="30" as="geometry"/>
                </mxCell>
                <mxCell id="40" value="Mobile Version" style="text;html=1;strokeColor=none;fillColor=none;align=center;verticalAlign=middle;whiteSpace=wrap;rounded=0;" parent="1" vertex="1">
                    <mxGeometry x="69" y="272" width="101" height="30" as="geometry"/>
                </mxCell>
                <mxCell id="41" value="Web Version" style="text;html=1;strokeColor=none;fillColor=none;align=center;verticalAlign=middle;whiteSpace=wrap;rounded=0;" parent="1" vertex="1">
                    <mxGeometry x="456" y="272" width="101" height="30" as="geometry"/>
                </mxCell>
                <mxCell id="42" value="&lt;h1&gt;Tipos de mensagens&lt;/h1&gt;" style="text;html=1;strokeColor=none;fillColor=none;spacing=5;spacingTop=-20;whiteSpace=wrap;overflow=hidden;rounded=0;" parent="1" vertex="1">
                    <mxGeometry x="1015" y="209" width="266" height="45" as="geometry"/>
                </mxCell>
                <mxCell id="51" value="" style="edgeStyle=none;html=1;" parent="1" source="43" target="50" edge="1">
                    <mxGeometry relative="1" as="geometry"/>
                </mxCell>
                <mxCell id="43" value="Email" style="rounded=1;whiteSpace=wrap;html=1;" parent="1" vertex="1">
                    <mxGeometry x="869" y="297" width="120" height="60" as="geometry"/>
                </mxCell>
                <mxCell id="49" value="" style="edgeStyle=none;html=1;" parent="1" source="44" target="48" edge="1">
                    <mxGeometry relative="1" as="geometry"/>
                </mxCell>
                <mxCell id="44" value="SMS" style="rounded=1;whiteSpace=wrap;html=1;" parent="1" vertex="1">
                    <mxGeometry x="1074" y="297" width="120" height="60" as="geometry"/>
                </mxCell>
                <mxCell id="47" value="" style="edgeStyle=none;html=1;" parent="1" source="45" target="46" edge="1">
                    <mxGeometry relative="1" as="geometry"/>
                </mxCell>
                <mxCell id="45" value="Whatsapp" style="rounded=1;whiteSpace=wrap;html=1;" parent="1" vertex="1">
                    <mxGeometry x="1263" y="297" width="120" height="60" as="geometry"/>
                </mxCell>
                <mxCell id="46" value="API" style="whiteSpace=wrap;html=1;rounded=1;" parent="1" vertex="1">
                    <mxGeometry x="1263" y="437" width="120" height="60" as="geometry"/>
                </mxCell>
                <mxCell id="48" value="Operadoras Telefônicas" style="whiteSpace=wrap;html=1;rounded=1;" parent="1" vertex="1">
                    <mxGeometry x="1074" y="437" width="120" height="60" as="geometry"/>
                </mxCell>
                <mxCell id="50" value="Diferentes Clientes de Emails" style="whiteSpace=wrap;html=1;rounded=1;" parent="1" vertex="1">
                    <mxGeometry x="869" y="437" width="120" height="60" as="geometry"/>
                </mxCell>
                <mxCell id="52" value="Users" style="swimlane;childLayout=stackLayout;horizontal=1;startSize=30;horizontalStack=0;rounded=1;fontSize=14;fontStyle=0;strokeWidth=2;resizeParent=0;resizeLast=1;shadow=0;dashed=0;align=center;" parent="1" vertex="1">
                    <mxGeometry x="1037" y="781" width="160" height="143" as="geometry"/>
                </mxCell>
                <mxCell id="53" value="+id&#10;+name&#10;+email&#10;+password&#10;+createdAt&#10;+updatedAt" style="align=left;strokeColor=none;fillColor=none;spacingLeft=4;fontSize=12;verticalAlign=top;resizable=0;rotatable=0;part=1;" parent="52" vertex="1">
                    <mxGeometry y="30" width="160" height="113" as="geometry"/>
                </mxCell>
                <mxCell id="54" value="Wallets" style="swimlane;childLayout=stackLayout;horizontal=1;startSize=30;horizontalStack=0;rounded=1;fontSize=14;fontStyle=0;strokeWidth=2;resizeParent=0;resizeLast=1;shadow=0;dashed=0;align=center;" parent="1" vertex="1">
                    <mxGeometry x="908" y="1072" width="160" height="150" as="geometry"/>
                </mxCell>
                <mxCell id="55" value="+id&#10;+userId&#10;+email&#10;+sms&#10;+whatsapp&#10;+createdAt&#10;+updatedAt" style="align=left;strokeColor=none;fillColor=none;spacingLeft=4;fontSize=12;verticalAlign=top;resizable=0;rotatable=0;part=1;" parent="54" vertex="1">
                    <mxGeometry y="30" width="160" height="120" as="geometry"/>
                </mxCell>
                <mxCell id="56" value="" style="fontSize=12;html=1;endArrow=ERmandOne;startArrow=ERmandOne;" parent="1" source="54" target="53" edge="1">
                    <mxGeometry width="100" height="100" relative="1" as="geometry">
                        <mxPoint x="1117" y="1075" as="sourcePoint"/>
                        <mxPoint x="1082" y="986" as="targetPoint"/>
                    </mxGeometry>
                </mxCell>
                <mxCell id="63" value="Messages" style="swimlane;childLayout=stackLayout;horizontal=1;startSize=30;horizontalStack=0;rounded=1;fontSize=14;fontStyle=0;strokeWidth=2;resizeParent=0;resizeLast=1;shadow=0;dashed=0;align=center;" parent="1" vertex="1">
                    <mxGeometry x="1166" y="1072" width="160" height="157" as="geometry"/>
                </mxCell>
                <mxCell id="64" value="+id&#10;+userId&#10;+contactId&#10;+content&#10;+type&#10;+status&#10;+createdAt&#10;+updatedAt" style="align=left;strokeColor=none;fillColor=none;spacingLeft=4;fontSize=12;verticalAlign=top;resizable=0;rotatable=0;part=1;" parent="63" vertex="1">
                    <mxGeometry y="30" width="160" height="127" as="geometry"/>
                </mxCell>
                <mxCell id="65" value="" style="fontSize=12;html=1;endArrow=ERzeroToMany;startArrow=ERmandOne;" parent="1" source="53" target="63" edge="1">
                    <mxGeometry width="100" height="100" relative="1" as="geometry">
                        <mxPoint x="1112" y="959" as="sourcePoint"/>
                        <mxPoint x="1304" y="965" as="targetPoint"/>
                    </mxGeometry>
                </mxCell>
                <mxCell id="66" value="&lt;b&gt;&lt;font style=&quot;font-size: 18px&quot;&gt;Data&lt;/font&gt;&lt;/b&gt;" style="text;html=1;strokeColor=none;fillColor=none;align=center;verticalAlign=middle;whiteSpace=wrap;rounded=0;" parent="1" vertex="1">
                    <mxGeometry x="1087" y="731.65" width="60" height="30" as="geometry"/>
                </mxCell>
                <mxCell id="69" value="&lt;font style=&quot;font-size: 18px&quot;&gt;&lt;b&gt;Serviços Externos&lt;/b&gt;&lt;/font&gt;" style="text;html=1;strokeColor=none;fillColor=none;align=center;verticalAlign=middle;whiteSpace=wrap;rounded=0;" parent="1" vertex="1">
                    <mxGeometry x="1021" y="516" width="231" height="30" as="geometry"/>
                </mxCell>
            </root>
        </mxGraphModel>
    </diagram>
</mxfile>
